<?xml version="1.0" encoding="utf-8"?>
<!-- Generator: Adobe Illustrator 16.0.0, SVG Export Plug-In . SVG Version: 6.00 Build 0)  -->
<!DOCTYPE svg PUBLIC "-//W3C//DTD SVG 1.1//EN" "http://www.w3.org/Graphics/SVG/1.1/DTD/svg11.dtd">
<svg version="1.1" id="Layer_1" xmlns="http://www.w3.org/2000/svg" xmlns:xlink="http://www.w3.org/1999/xlink" x="0px" y="0px"
	 width="25.833px" height="25.833px" viewBox="0 0 25.833 25.833" enable-background="new 0 0 25.833 25.833" xml:space="preserve">
<path fill="#FFFFFF" d="M23.034,12.53c-0.834,0-1.511,0.675-1.511,1.512c0,4.723-3.841,8.562-8.563,8.562
	c-4.721,0-8.562-3.841-8.562-8.562s3.841-8.562,8.562-8.562h0.001v2.519l6.043-4.03l-6.044-4.03v2.518h-0.001
	c-6.387,0-11.584,5.198-11.584,11.585c0,6.387,5.197,11.584,11.584,11.584c6.388,0,11.584-5.197,11.584-11.584
	C24.543,13.205,23.87,12.53,23.034,12.53"/>
<rect x="2.967" y="9.737" fill="none" width="19.819" height="9.764"/>
<g enable-background="new    ">
	<path fill="#FFFFFF" d="M8.596,18.344v-1.088l2.151-4.182c0.193-0.362,0.35-0.906,0.35-1.534c0-0.495-0.266-0.749-0.616-0.749
		s-0.641,0.241-0.641,0.736v0.557H8.56v-0.508c0-0.688,0.193-1.1,0.532-1.426s0.87-0.508,1.39-0.508s0.979,0.133,1.33,0.459
		c0.338,0.314,0.568,0.798,0.568,1.486c0,0.629-0.193,1.354-0.471,1.886l-1.946,3.722h2.417v1.148H8.596z"/>
	<path fill="#FFFFFF" d="M16.839,17.002v1.342h-1.28v-1.342h-2.394v-1.147l2.212-6.115h1.244l-2.139,6.115h1.076V14.32h1.28v1.535
		h0.593v1.147H16.839z"/>
</g>
</svg>
