<?xml version="1.0" encoding="utf-8"?>
<!-- Generator: Adobe Illustrator 16.0.0, SVG Export Plug-In . SVG Version: 6.00 Build 0)  -->
<!DOCTYPE svg PUBLIC "-//W3C//DTD SVG 1.1//EN" "http://www.w3.org/Graphics/SVG/1.1/DTD/svg11.dtd">
<svg version="1.1" id="Layer_1" xmlns="http://www.w3.org/2000/svg" xmlns:xlink="http://www.w3.org/1999/xlink" x="0px" y="0px"
	 width="25.833px" height="25.833px" viewBox="0 0 25.833 25.833" enable-background="new 0 0 25.833 25.833" xml:space="preserve">
<path fill="#FFFFFF" d="M23.034,12.53c-0.834,0-1.511,0.675-1.511,1.512c0,4.722-3.841,8.562-8.563,8.562
	c-4.721,0-8.562-3.841-8.562-8.562c0-4.722,3.841-8.563,8.562-8.563h0.001v2.519l6.043-4.03L12.96-0.062v2.518h-0.001
	c-6.387,0-11.584,5.198-11.584,11.585c0,6.387,5.197,11.584,11.584,11.584c6.388,0,11.584-5.197,11.584-11.584
	C24.543,13.205,23.87,12.53,23.034,12.53"/>
<rect x="2.967" y="9.737" fill="none" width="19.819" height="9.764"/>
<text transform="matrix(1 0 0 1 8.0283 18.3442)" fill="#FFFFFF" font-family="'DINCond-Bold'" font-size="12.0882">24</text>
</svg>
