<?xml version="1.0" encoding="utf-8"?>
<!-- Generator: Adobe Illustrator 16.0.0, SVG Export Plug-In . SVG Version: 6.00 Build 0)  -->
<!DOCTYPE svg PUBLIC "-//W3C//DTD SVG 1.1//EN" "http://www.w3.org/Graphics/SVG/1.1/DTD/svg11.dtd">
<svg version="1.1" id="Layer_1" xmlns="http://www.w3.org/2000/svg" xmlns:xlink="http://www.w3.org/1999/xlink" x="0px" y="0px"
	 width="25.833px" height="25.833px" viewBox="0 0 25.833 25.833" enable-background="new 0 0 25.833 25.833" xml:space="preserve">
<path fill="#FFFFFF" d="M13.002,10.465c1.397,0,2.533,1.135,2.533,2.533c0,1.396-1.136,2.534-2.533,2.534
	c-1.397,0-2.533-1.138-2.533-2.534C10.469,11.6,11.605,10.465,13.002,10.465 M13.002,7.932c-2.798,0-5.066,2.268-5.066,5.066
	c0,2.799,2.268,5.067,5.066,5.067s5.066-2.269,5.066-5.067C18.069,10.2,15.8,7.932,13.002,7.932"/>
<path fill="#FFFFFF" d="M13.002,5.398c-0.699,0-1.267-0.565-1.267-1.267V1.599c0-0.701,0.567-1.267,1.267-1.267
	s1.267,0.565,1.267,1.267v2.533C14.269,4.833,13.702,5.398,13.002,5.398"/>
<path fill="#FFFFFF" d="M19.272,7.996c-0.323,0-0.648-0.124-0.895-0.371c-0.496-0.496-0.496-1.296,0-1.791l1.791-1.791
	c0.495-0.496,1.295-0.496,1.791,0c0.495,0.496,0.495,1.296,0,1.791l-1.791,1.791C19.921,7.872,19.596,7.996,19.272,7.996"/>
<path fill="#FFFFFF" d="M24.402,14.267h-2.533c-0.7,0-1.267-0.566-1.267-1.267s0.566-1.267,1.267-1.267h2.533
	c0.699,0,1.267,0.566,1.267,1.267S25.101,14.267,24.402,14.267"/>
<path fill="#FFFFFF" d="M21.061,22.33c-0.324,0-0.649-0.126-0.896-0.374l-1.791-1.791c-0.496-0.494-0.496-1.296,0-1.788
	c0.496-0.497,1.295-0.497,1.791,0l1.791,1.788c0.496,0.498,0.496,1.297,0,1.791C21.709,22.204,21.385,22.33,21.061,22.33"/>
<path fill="#FFFFFF" d="M12.999,25.667c-0.7,0-1.267-0.566-1.267-1.267v-2.533c0-0.7,0.567-1.267,1.267-1.267
	c0.699,0,1.266,0.566,1.266,1.267V24.4C14.265,25.1,13.698,25.667,12.999,25.667"/>
<path fill="#FFFFFF" d="M4.938,22.325c-0.324,0-0.648-0.124-0.896-0.371c-0.495-0.497-0.495-1.296,0-1.791l1.791-1.791
	c0.496-0.497,1.296-0.497,1.791,0c0.496,0.495,0.496,1.296,0,1.791l-1.791,1.791C5.587,22.201,5.262,22.325,4.938,22.325"/>
<path fill="#FFFFFF" d="M4.135,14.262H1.602c-0.699,0-1.267-0.566-1.267-1.267c0-0.7,0.568-1.267,1.267-1.267h2.533
	c0.699,0,1.267,0.567,1.267,1.267C5.401,13.696,4.834,14.262,4.135,14.262"/>
<path fill="#FFFFFF" d="M6.734,7.993c-0.324,0-0.648-0.125-0.896-0.371L4.047,5.831c-0.495-0.496-0.495-1.296,0-1.791
	c0.496-0.495,1.296-0.495,1.791,0l1.791,1.791c0.496,0.496,0.496,1.296,0,1.791C7.383,7.868,7.058,7.993,6.734,7.993"/>
</svg>
