<?xml version="1.0" encoding="utf-8"?>
<!-- Generator: Adobe Illustrator 16.0.0, SVG Export Plug-In . SVG Version: 6.00 Build 0)  -->
<!DOCTYPE svg PUBLIC "-//W3C//DTD SVG 1.1//EN" "http://www.w3.org/Graphics/SVG/1.1/DTD/svg11.dtd">
<svg version="1.1" id="Layer_1" xmlns="http://www.w3.org/2000/svg" xmlns:xlink="http://www.w3.org/1999/xlink" x="0px" y="0px"
	 width="25.833px" height="25.833px" viewBox="0 0 25.833 25.833" enable-background="new 0 0 25.833 25.833" xml:space="preserve">
<path fill="#FFFFFF" d="M17.447,10.944c-1.313-2.341-2.376-9.626-2.376-9.626c0.405-0.327,0.006-0.469,0.006-0.469
	c-0.298-0.275-0.072-0.364-0.072-0.364h0.387c-0.193-1.097-0.959-1.097-0.959-1.097h-1.178h-0.001h-1.475c0,0-0.766,0-0.956,1.096
	h0.383c0,0,0.23,0.088-0.072,0.365c0,0-0.397,0.142,0.008,0.469c0,0-1.055,7.285-2.369,9.626c0,0-0.496,0.631-0.306,2.875
	l0.08,9.801c0,0-0.079,2.225,1.069,2.631c0,0,1.533,0.367,3.558,0.369c0.002,0,0.004,0,0.005,0c0.002,0,0.004,0,0.006,0
	c2.024-0.002,3.48-0.369,3.48-0.369c1.146-0.406,1.032-2.631,1.032-2.631l0.065-9.801C17.95,11.573,17.447,10.944,17.447,10.944z"/>
</svg>
