<?xml version="1.0" encoding="utf-8"?>
<!-- Generator: Adobe Illustrator 16.0.0, SVG Export Plug-In . SVG Version: 6.00 Build 0)  -->
<!DOCTYPE svg PUBLIC "-//W3C//DTD SVG 1.1//EN" "http://www.w3.org/Graphics/SVG/1.1/DTD/svg11.dtd">
<svg version="1.1" id="Layer_1" xmlns="http://www.w3.org/2000/svg" xmlns:xlink="http://www.w3.org/1999/xlink" x="0px" y="0px"
	 width="25.833px" height="25.833px" viewBox="0 0 25.833 25.833" enable-background="new 0 0 25.833 25.833" xml:space="preserve">
<path fill="#FFFFFF" d="M13.179,25.703c-1.893,0-3.329-0.344-3.329-0.344c-1.07-0.38-0.997-2.455-0.997-2.455l-0.074-9.14
	c-0.178-2.093,0.285-2.681,0.285-2.681c1.225-2.183,2.209-8.978,2.209-8.978c-0.378-0.305-0.008-0.437-0.008-0.437
	c0.282-0.259,0.067-0.341,0.067-0.341h-0.357c0.178-1.022,0.891-1.022,0.891-1.022h1.377 M13.169,25.703
	c1.893,0,3.255-0.344,3.255-0.344c1.068-0.38,0.964-2.455,0.964-2.455l0.061-9.14c0.177-2.095-0.294-2.681-0.294-2.681
	c-1.225-2.183-2.216-8.978-2.216-8.978c0.378-0.305,0.006-0.437,0.006-0.437c-0.279-0.257-0.068-0.34-0.068-0.34h0.36
	c-0.181-1.023-0.894-1.023-0.894-1.023h-1.1"/>
</svg>
