<?xml version="1.0" encoding="utf-8"?>
<!-- Generator: Adobe Illustrator 16.0.0, SVG Export Plug-In . SVG Version: 6.00 Build 0)  -->
<!DOCTYPE svg PUBLIC "-//W3C//DTD SVG 1.1//EN" "http://www.w3.org/Graphics/SVG/1.1/DTD/svg11.dtd">
<svg version="1.1" id="Layer_1" xmlns="http://www.w3.org/2000/svg" xmlns:xlink="http://www.w3.org/1999/xlink" x="0px" y="0px"
	 width="25.833px" height="25.833px" viewBox="0 0 25.833 25.833" enable-background="new 0 0 25.833 25.833" xml:space="preserve">
<path fill="#FFFFFF" d="M13.184,26.62c-2.03,0-3.569-0.369-3.569-0.369c-1.148-0.407-1.069-2.632-1.069-2.632l-0.08-9.8
	c-0.19-2.244,0.306-2.875,0.306-2.875c1.314-2.341,2.369-9.626,2.369-9.626c-0.405-0.327-0.008-0.469-0.008-0.469
	c0.302-0.277,0.072-0.365,0.072-0.365h-0.383c0.19-1.096,0.956-1.096,0.956-1.096h1.476 M13.173,26.62
	c2.03,0,3.491-0.369,3.491-0.369c1.146-0.407,1.033-2.632,1.033-2.632l0.065-9.8c0.188-2.246-0.315-2.875-0.315-2.875
	c-1.313-2.341-2.376-9.626-2.376-9.626c0.405-0.327,0.006-0.469,0.006-0.469c-0.298-0.275-0.072-0.364-0.072-0.364h0.386
	c-0.193-1.097-0.959-1.097-0.959-1.097h-1.179"/>
</svg>
