<?xml version="1.0" encoding="utf-8"?>
<!-- Generator: Adobe Illustrator 16.0.0, SVG Export Plug-In . SVG Version: 6.00 Build 0)  -->
<!DOCTYPE svg PUBLIC "-//W3C//DTD SVG 1.1//EN" "http://www.w3.org/Graphics/SVG/1.1/DTD/svg11.dtd">
<svg version="1.1" id="Layer_1" xmlns="http://www.w3.org/2000/svg" xmlns:xlink="http://www.w3.org/1999/xlink" x="0px" y="0px"
	 width="120px" height="30px" viewBox="0 0 120 30" enable-background="new 0 0 120 30" xml:space="preserve">
<g>
	<g>
		<path fill="#FFFFFF" d="M2.013,6.028C0.891,6.402,1.269,4.64,1.524,4.127c0.497-0.993,2.679-0.832,3.637-0.91
			C7.554,3.021,15.94,2.91,18.328,3.093c0.658,0.05,1.314,0.101,1.97,0.176c0.68,0.079,0.348,1.019-0.017,1.388
			c-0.402,0.396-1.418,0.164-1.953,0.154c-0.516-0.008-3.812-0.068-4.327-0.068c-0.338,0-0.675,0-1.013,0
			c-0.421,0-0.362,0.384-0.467,0.759c-0.385,1.366-0.774,2.731-1.145,4.102c-0.768,2.842-1.541,5.702-2.056,8.602
			c-0.243,1.366-0.483,2.733-0.729,4.1c-0.112,0.625-0.217,1.253-0.306,1.882c-0.08,0.557-0.004,1.801-0.52,2.031
			c-0.403,0.18-2.665,0.965-2.6-0.012c0.067-0.979,0.457-2.002,0.681-2.951c0.602-2.547,1.196-5.097,1.801-7.643
			c0.851-3.582,1.663-6.976,2.525-10.554C8.506,5.281,3.642,5.621,2.013,6.028C1.807,6.097,2.218,5.977,2.013,6.028z"/>
		<path fill="#FFFFFF" d="M5.831,27.062c-0.386,0-0.662-0.095-0.844-0.288c-0.1-0.107-0.216-0.298-0.196-0.593
			c0.048-0.706,0.25-1.415,0.445-2.102c0.087-0.309,0.174-0.613,0.244-0.91l0.77-3.268c0.343-1.459,0.685-2.918,1.032-4.376
			C8.091,12.12,8.865,8.883,9.682,5.495C9.148,5.554,8.462,5.62,7.715,5.691C5.75,5.879,3.32,6.112,2.208,6.367
			C2.128,6.403,2.048,6.417,2,6.422C1.624,6.513,1.241,6.394,1.047,6.079c-0.382-0.618-0.024-1.786,0.142-2.12
			c0.505-1.01,2.132-1.056,3.32-1.09c0.236-0.007,0.449-0.013,0.622-0.026c1.497-0.123,5.407-0.218,8.902-0.218
			c1.412,0,3.308,0.017,4.324,0.094c0.662,0.051,1.323,0.102,1.983,0.178c0.329,0.038,0.575,0.224,0.676,0.51
			c0.184,0.523-0.171,1.213-0.469,1.514c-0.311,0.307-0.773,0.342-1.095,0.342c-0.238,0-0.486-0.023-0.713-0.045
			c-0.155-0.015-0.299-0.029-0.417-0.031l-0.886-0.015c-1.172-0.021-3.056-0.053-3.435-0.053h-1.013
			c-0.009,0.001-0.03,0.116-0.043,0.191c-0.017,0.095-0.035,0.195-0.063,0.294l-0.195,0.692c-0.32,1.134-0.641,2.269-0.948,3.406
			c-0.754,2.793-1.535,5.681-2.049,8.569L8.96,22.372c-0.111,0.62-0.215,1.244-0.304,1.868c-0.018,0.122-0.026,0.278-0.037,0.449
			c-0.043,0.714-0.098,1.603-0.701,1.872C7.695,26.661,6.622,27.062,5.831,27.062z M10.665,4.615l-0.128,0.532
			c-0.863,3.578-1.675,6.972-2.525,10.553c-0.346,1.458-0.688,2.916-1.031,4.374l-0.77,3.269c-0.072,0.309-0.162,0.624-0.253,0.943
			c-0.185,0.649-0.375,1.32-0.418,1.947c-0.004,0.029,0.058,0.08,0.292,0.08c0.572,0,1.493-0.308,1.781-0.437
			c0.188-0.084,0.239-0.918,0.258-1.232c0.012-0.194,0.023-0.372,0.043-0.51c0.09-0.633,0.195-1.265,0.308-1.895l0.729-4.099
			c0.52-2.922,1.304-5.826,2.063-8.634c0.308-1.141,0.629-2.278,0.95-3.415l0.195-0.691c0.021-0.075,0.034-0.151,0.046-0.223
			c0.047-0.263,0.144-0.81,0.782-0.81h1.013c0.38,0,2.271,0.033,3.448,0.053l0.885,0.015c0.136,0.002,0.3,0.018,0.477,0.035
			c0.204,0.02,0.428,0.042,0.642,0.042c0.383,0,0.519-0.077,0.565-0.123c0.218-0.221,0.346-0.642,0.289-0.74
			c-0.702-0.083-1.354-0.134-2.007-0.184c-0.774-0.06-2.289-0.092-4.266-0.092c-3.42,0-7.387,0.097-8.842,0.215
			C5.008,3.605,4.782,3.612,4.53,3.619C3.645,3.645,2.164,3.687,1.86,4.294C1.631,4.754,1.557,5.609,1.696,5.7
			c0.067,0.004,0.117,0,0.198-0.028l0.098-0.023c1.184-0.276,3.655-0.513,5.652-0.704c1.021-0.098,1.927-0.184,2.479-0.258
			L10.665,4.615z"/>
	</g>
	<g>
		<path fill="#FFFFFF" d="M13.891,21.802c-0.12,0.188-0.252,0.312-0.398,0.372c-0.146,0.06-0.274,0.067-0.386,0.025
			c-0.11-0.043-0.184-0.133-0.218-0.27c-0.034-0.138,0-0.309,0.103-0.515c0.051-0.103,0.167-0.333,0.347-0.692
			c0.179-0.359,0.394-0.792,0.641-1.298c0.25-0.504,0.519-1.053,0.81-1.644c0.292-0.591,0.569-1.151,0.834-1.684
			c0.266-0.53,0.51-1.005,0.733-1.425c0.223-0.419,0.385-0.723,0.488-0.912c-0.188-0.171-0.317-0.296-0.385-0.373
			c-0.068-0.077-0.12-0.244-0.154-0.501c-0.035-0.222,0.017-0.514,0.154-0.874c0.137-0.36,0.317-0.707,0.54-1.041
			s0.471-0.62,0.745-0.86c0.274-0.24,0.54-0.36,0.796-0.36c0.479,0,0.817,0.154,1.015,0.462c0.196,0.308,0.312,0.625,0.346,0.951
			c0.034,0.223,0.017,0.505-0.051,0.848s-0.197,0.651-0.385,0.925c0.051,0.035,0.12,0.073,0.206,0.116
			c0.085,0.042,0.223,0.064,0.411,0.064c0.274,0,0.466-0.017,0.578-0.051c0.111-0.034,0.288-0.051,0.527-0.051
			c0.291,0,0.531,0.073,0.719,0.218c0.188,0.146,0.342,0.325,0.462,0.54c0.12,0.214,0.209,0.446,0.27,0.693
			c0.059,0.249,0.098,0.476,0.115,0.681c0.051,0.428-0.06,0.874-0.334,1.335S21.812,17.452,21.417,18
			c-0.24,0.342-0.479,0.728-0.719,1.155s-0.342,0.814-0.308,1.156c0.034,0.223,0.094,0.401,0.18,0.539s0.325,0.205,0.719,0.205
			c0.291,0,0.612-0.106,0.963-0.32s0.711-0.488,1.079-0.822s0.732-0.702,1.092-1.104c0.359-0.401,0.693-0.797,1.002-1.182
			c0.308-0.386,0.569-0.732,0.783-1.041c0.214-0.308,0.373-0.53,0.476-0.667c0.085-0.137,0.197-0.232,0.334-0.283
			c0.137-0.051,0.257-0.051,0.359,0c0.103,0.051,0.167,0.154,0.193,0.308c0.024,0.154-0.039,0.361-0.193,0.618
			c-0.103,0.171-0.279,0.445-0.526,0.821c-0.25,0.377-0.549,0.796-0.9,1.258c-0.351,0.463-0.74,0.938-1.168,1.427
			c-0.428,0.488-0.878,0.934-1.349,1.336c-0.471,0.402-0.942,0.731-1.412,0.988c-0.472,0.257-0.921,0.387-1.349,0.387
			c-0.445,0-0.814-0.087-1.105-0.257c-0.291-0.172-0.526-0.383-0.707-0.63c-0.179-0.248-0.308-0.522-0.384-0.822
			c-0.078-0.299-0.107-0.579-0.09-0.836c0.017-0.205,0.072-0.423,0.167-0.654s0.206-0.471,0.335-0.72
			c0.127-0.247,0.265-0.496,0.411-0.744c0.145-0.249,0.278-0.492,0.397-0.732c0.292-0.496,0.527-0.921,0.706-1.271
			c0.181-0.351,0.271-0.646,0.271-0.887c0-0.154-0.035-0.291-0.103-0.411s-0.18-0.18-0.334-0.18c-0.103,0-0.176,0.004-0.218,0.013
			c-0.044,0.009-0.086,0.013-0.129,0.013s-0.103,0.004-0.179,0.013c-0.078,0.009-0.193,0.013-0.348,0.013
			c-0.223,0-0.411-0.035-0.565-0.103c-0.154-0.068-0.3-0.119-0.437-0.154c-0.068,0.12-0.223,0.377-0.462,0.771
			s-0.519,0.856-0.835,1.387c-0.317,0.531-0.651,1.089-1.001,1.671c-0.352,0.582-0.682,1.126-0.99,1.631s-0.569,0.934-0.784,1.284
			C14.075,21.523,13.942,21.733,13.891,21.802z"/>
		<path fill="#FFFFFF" d="M20.673,23.153c-0.509,0-0.944-0.104-1.294-0.308c-0.333-0.197-0.608-0.442-0.82-0.732
			c-0.209-0.29-0.358-0.609-0.445-0.951c-0.087-0.332-0.121-0.654-0.101-0.954c0.021-0.248,0.085-0.506,0.193-0.771
			c0.098-0.241,0.214-0.491,0.35-0.751c0.13-0.252,0.271-0.508,0.421-0.762c0.139-0.239,0.269-0.476,0.385-0.709
			c0.299-0.512,0.531-0.93,0.708-1.275c0.19-0.368,0.229-0.593,0.229-0.716c0-0.088-0.018-0.162-0.054-0.225
			c-0.073,0.009-0.122,0.009-0.152,0.015c-0.104,0.021-0.165,0.011-0.341,0.03c-0.085,0.01-0.215,0.016-0.389,0.016
			c-0.273,0-0.514-0.045-0.717-0.135c-0.039-0.017-0.077-0.033-0.115-0.048c-0.08,0.133-0.184,0.306-0.312,0.517
			c-0.239,0.394-0.518,0.855-0.833,1.384l-2.778,4.59c-0.222,0.367-0.363,0.587-0.417,0.658c-0.146,0.231-0.338,0.406-0.556,0.495
			c-0.231,0.095-0.458,0.104-0.659,0.029c-0.229-0.089-0.387-0.276-0.45-0.53c-0.057-0.229-0.014-0.482,0.131-0.773l0.348-0.692
			c0.195-0.392,0.402-0.81,0.639-1.295l1.646-3.329c0.267-0.534,0.513-1.011,0.737-1.434c0.142-0.266,0.258-0.486,0.352-0.659
			c-0.088-0.084-0.154-0.151-0.197-0.2c-0.125-0.14-0.2-0.356-0.246-0.701c-0.044-0.282,0.013-0.63,0.175-1.056
			c0.147-0.385,0.341-0.76,0.578-1.115c0.239-0.358,0.511-0.672,0.81-0.934c0.343-0.301,0.694-0.453,1.043-0.453
			c0.763,0,1.145,0.345,1.331,0.635c0.228,0.359,0.364,0.733,0.404,1.114c0.039,0.25,0.021,0.571-0.057,0.96
			c-0.046,0.231-0.117,0.45-0.211,0.655c0.022,0.001,0.047,0.001,0.074,0.001c0.33,0,0.44-0.026,0.466-0.034
			c0.152-0.047,0.354-0.068,0.639-0.068c0.374,0,0.692,0.1,0.948,0.296c0.228,0.176,0.417,0.396,0.561,0.654
			c0.135,0.242,0.239,0.507,0.307,0.788c0.064,0.271,0.106,0.517,0.125,0.739c0.06,0.497-0.069,1.026-0.385,1.558
			c-0.283,0.477-0.626,0.996-1.021,1.544c-0.227,0.324-0.462,0.702-0.696,1.12c-0.2,0.357-0.289,0.672-0.262,0.936
			c0.023,0.147,0.065,0.279,0.122,0.373c-0.004-0.01,0.096,0.033,0.404,0.033c0.22,0,0.479-0.089,0.768-0.266
			c0.329-0.2,0.673-0.463,1.022-0.779c0.358-0.325,0.716-0.688,1.065-1.077c0.354-0.396,0.684-0.786,0.989-1.166
			c0.302-0.378,0.557-0.718,0.767-1.021c0.218-0.313,0.38-0.54,0.485-0.679c0.112-0.183,0.288-0.33,0.503-0.409
			c0.233-0.087,0.462-0.081,0.657,0.016c0.146,0.072,0.335,0.231,0.396,0.579c0.04,0.253-0.039,0.539-0.242,0.875
			c-0.104,0.173-0.283,0.452-0.534,0.834c-0.254,0.384-0.559,0.81-0.916,1.278c-0.356,0.471-0.755,0.958-1.185,1.447
			c-0.436,0.498-0.903,0.96-1.387,1.374c-0.486,0.415-0.982,0.763-1.476,1.032C21.674,23.008,21.16,23.153,20.673,23.153z
			 M20.236,14.259c0.29,0,0.523,0.131,0.66,0.369c0.101,0.177,0.152,0.378,0.152,0.597c0,0.305-0.102,0.651-0.312,1.059
			c-0.181,0.354-0.42,0.786-0.716,1.29c-0.111,0.224-0.248,0.474-0.396,0.73c-0.144,0.244-0.278,0.486-0.402,0.728
			c-0.125,0.239-0.231,0.468-0.321,0.689c-0.079,0.194-0.126,0.377-0.14,0.544c-0.014,0.213,0.013,0.454,0.08,0.71
			c0.064,0.253,0.174,0.486,0.326,0.698c0.15,0.204,0.351,0.382,0.594,0.525c0.456,0.267,1.236,0.323,2.084-0.136
			c0.447-0.245,0.9-0.562,1.347-0.944c0.458-0.391,0.898-0.827,1.311-1.298c0.418-0.477,0.806-0.95,1.152-1.406
			c0.346-0.455,0.641-0.867,0.887-1.238c0.242-0.369,0.416-0.639,0.517-0.808c0.159-0.264,0.145-0.364,0.145-0.365
			c-0.083,0.003-0.143,0.026-0.198,0.114c-0.12,0.162-0.276,0.381-0.487,0.684c-0.217,0.313-0.483,0.667-0.797,1.061
			c-0.313,0.39-0.651,0.791-1.016,1.197c-0.366,0.409-0.743,0.79-1.12,1.132c-0.385,0.35-0.767,0.641-1.136,0.865
			c-0.409,0.249-0.798,0.375-1.158,0.375c-0.344,0-0.825-0.04-1.038-0.383c-0.114-0.183-0.189-0.405-0.231-0.68
			c-0.044-0.438,0.075-0.902,0.352-1.396c0.247-0.439,0.495-0.839,0.739-1.188c0.384-0.533,0.715-1.034,0.986-1.492
			c0.23-0.387,0.326-0.757,0.284-1.1c-0.017-0.202-0.053-0.411-0.107-0.639c-0.052-0.212-0.13-0.415-0.233-0.598
			c-0.096-0.171-0.215-0.31-0.364-0.425c-0.123-0.094-0.283-0.14-0.49-0.14c-0.274,0-0.383,0.024-0.417,0.035
			c-0.15,0.047-0.362,0.068-0.688,0.068c-0.252,0-0.436-0.033-0.578-0.103c-0.104-0.051-0.187-0.099-0.249-0.141l-0.313-0.212
			l0.215-0.312c0.158-0.229,0.268-0.494,0.326-0.785c0.06-0.298,0.076-0.54,0.048-0.717c-0.03-0.283-0.127-0.548-0.292-0.807
			c-0.079-0.123-0.238-0.289-0.699-0.289c-0.162,0-0.347,0.09-0.549,0.267c-0.249,0.218-0.478,0.483-0.68,0.786
			c-0.206,0.309-0.375,0.634-0.501,0.966c-0.141,0.37-0.15,0.575-0.134,0.682c0.034,0.253,0.072,0.32,0.074,0.323
			c0.052,0.057,0.172,0.172,0.347,0.331l0.218,0.198l-0.141,0.259c-0.103,0.188-0.264,0.49-0.486,0.908
			c-0.221,0.418-0.464,0.891-0.729,1.417l-1.644,3.325c-0.237,0.485-0.445,0.904-0.62,1.256l-0.366,0.731
			c-0.075,0.15-0.083,0.234-0.077,0.261c0.017,0.014,0.047,0.01,0.098-0.012c0.07-0.029,0.147-0.107,0.224-0.227
			c0.065-0.089,0.191-0.289,0.393-0.623l2.773-4.584c0.317-0.531,0.597-0.995,0.837-1.389c0.237-0.389,0.389-0.643,0.457-0.762
			l0.142-0.249l0.277,0.071c0.155,0.04,0.32,0.098,0.495,0.174c0.193,0.085,0.564,0.079,0.717,0.061
			c0.097-0.01,0.17-0.015,0.223-0.015C20.011,14.265,20.102,14.259,20.236,14.259z"/>
	</g>
	<g>
		<path fill="#FFFFFF" d="M38.732,16.818c-0.24,0.342-0.548,0.767-0.925,1.271c-0.377,0.506-0.767,1.011-1.169,1.516
			c-0.402,0.506-0.795,0.968-1.182,1.388c-0.385,0.42-0.706,0.716-0.963,0.886c-0.171,0.103-0.368,0.188-0.591,0.257
			s-0.45,0.112-0.681,0.13c-0.232,0.016-0.45,0.003-0.655-0.039c-0.206-0.043-0.385-0.115-0.54-0.219
			c-0.154-0.119-0.283-0.291-0.385-0.514c-0.086-0.188-0.167-0.438-0.245-0.746c-0.076-0.308-0.106-0.692-0.089-1.154
			c-0.411,0.685-0.865,1.211-1.362,1.579c-0.497,0.369-0.967,0.639-1.413,0.809c-0.514,0.188-1.028,0.3-1.542,0.335
			c-0.24,0-0.497-0.082-0.771-0.244c-0.274-0.163-0.505-0.42-0.694-0.771c-0.188-0.352-0.308-0.806-0.359-1.362
			c-0.052-0.556,0.017-1.22,0.205-1.99c0.24-1.045,0.621-1.995,1.143-2.852c0.522-0.856,1.092-1.588,1.708-2.196
			c0.617-0.607,1.225-1.066,1.824-1.375c0.599-0.308,1.096-0.445,1.49-0.411c0.462,0.086,0.839,0.222,1.13,0.411
			c0.24,0.171,0.399,0.424,0.475,0.758c0.078,0.334-0.064,0.775-0.424,1.323c0.24-0.051,0.441-0.086,0.604-0.103
			c0.162-0.017,0.286-0.025,0.372-0.025c0.103,0,0.171,0.009,0.206,0.025c0.017,0.035,0.025,0.107,0.025,0.219
			c0,0.112-0.025,0.312-0.077,0.604c-0.051,0.292-0.128,0.685-0.231,1.182c-0.103,0.498-0.24,1.139-0.411,1.927
			c-0.034,0.154-0.064,0.295-0.089,0.424c-0.027,0.128-0.051,0.257-0.078,0.385c-0.025,0.129-0.055,0.279-0.089,0.449
			c-0.034,0.171-0.077,0.387-0.128,0.644c-0.017,0.153-0.022,0.32-0.012,0.5c0.007,0.18,0.038,0.347,0.089,0.501
			c0.051,0.153,0.132,0.279,0.244,0.373s0.27,0.141,0.476,0.141c0.171,0,0.394-0.106,0.668-0.321
			c0.274-0.214,0.565-0.487,0.874-0.821c0.308-0.334,0.63-0.702,0.963-1.105c0.334-0.401,0.647-0.791,0.938-1.168
			s0.552-0.711,0.784-1.003c0.23-0.29,0.398-0.504,0.5-0.642c0.137-0.154,0.274-0.244,0.411-0.27
			c0.137-0.025,0.24,0.013,0.309,0.116c0.068,0.103,0.081,0.256,0.038,0.462C39.062,16.305,38.938,16.544,38.732,16.818z
			 M31.205,17.948c0.086-0.343,0.188-0.746,0.309-1.208c0.12-0.462,0.223-0.907,0.308-1.335c0.085-0.428,0.149-0.784,0.192-1.066
			c0.042-0.282,0.03-0.415-0.038-0.398c-0.086,0.017-0.18,0.043-0.283,0.077c-0.085,0.035-0.197,0.06-0.334,0.077
			c-0.137,0.018-0.274,0.043-0.411,0.077c0.137-0.273,0.219-0.501,0.244-0.681c0.027-0.18,0.03-0.321,0.013-0.424
			c-0.017-0.12-0.051-0.214-0.103-0.283c-0.188-0.154-0.519-0.029-0.99,0.373c-0.471,0.402-1.014,1.143-1.631,2.222
			c-0.257,0.446-0.462,0.922-0.616,1.426c-0.154,0.505-0.262,0.98-0.322,1.426s-0.072,0.835-0.038,1.169s0.103,0.553,0.206,0.655
			c0.188,0.188,0.402,0.278,0.642,0.27s0.483-0.077,0.732-0.206c0.248-0.128,0.497-0.296,0.746-0.501
			c0.247-0.205,0.47-0.419,0.667-0.642c0.196-0.223,0.36-0.428,0.487-0.616C31.116,18.171,31.188,18.034,31.205,17.948z"/>
		<path fill="#FFFFFF" d="M27.005,22.69h-0.013c-0.306,0-0.629-0.1-0.961-0.297s-0.613-0.505-0.833-0.915
			c-0.211-0.395-0.347-0.901-0.403-1.506c-0.055-0.593,0.017-1.305,0.214-2.113c0.247-1.075,0.647-2.072,1.187-2.958
			c0.535-0.877,1.129-1.64,1.766-2.268c0.642-0.632,1.286-1.117,1.916-1.441c0.67-0.344,1.229-0.492,1.694-0.451
			c0.546,0.1,0.972,0.256,1.301,0.469c0.331,0.236,0.541,0.566,0.637,0.989c0.063,0.271,0.028,0.575-0.106,0.919
			c0.403-0.035,0.53-0.016,0.661,0.046l0.118,0.057l0.057,0.118c0.045,0.092,0.063,0.203,0.063,0.383
			c0,0.124-0.025,0.347-0.083,0.669c-0.052,0.294-0.129,0.691-0.233,1.192c-0.103,0.499-0.24,1.142-0.412,1.932
			c-0.034,0.151-0.063,0.289-0.087,0.415l-0.296,1.479c-0.01,0.103-0.014,0.249-0.005,0.406c0.006,0.146,0.03,0.279,0.071,0.403
			c0.03,0.089,0.072,0.156,0.129,0.204c0.04,0.033,0.125,0.053,0.234,0.053c0.013,0,0.137-0.007,0.437-0.241
			c0.258-0.201,0.537-0.464,0.83-0.781c0.304-0.329,0.621-0.691,0.949-1.089c0.333-0.399,0.642-0.785,0.93-1.159
			c0.292-0.378,0.554-0.714,0.787-1.007c0.227-0.286,0.392-0.497,0.493-0.633c0.214-0.242,0.423-0.373,0.642-0.414l0.147-0.014
			c0.225,0,0.417,0.103,0.542,0.289c0.127,0.191,0.158,0.436,0.094,0.747c-0.055,0.264-0.198,0.548-0.439,0.869
			c-0.235,0.335-0.545,0.763-0.925,1.271c-0.379,0.509-0.771,1.017-1.176,1.524c-0.407,0.513-0.811,0.986-1.199,1.408
			c-0.41,0.447-0.748,0.757-1.032,0.944c-0.212,0.128-0.439,0.227-0.688,0.303c-0.25,0.077-0.507,0.126-0.762,0.146
			c-0.279,0.017-0.522,0.002-0.759-0.046c-0.255-0.053-0.481-0.146-0.673-0.274c-0.222-0.17-0.389-0.391-0.517-0.668
			c-0.094-0.207-0.182-0.473-0.267-0.812c-0.013-0.051-0.024-0.104-0.035-0.159c-0.262,0.313-0.54,0.579-0.83,0.794
			c-0.521,0.388-1.027,0.676-1.502,0.857c-0.549,0.201-1.102,0.321-1.65,0.358L27.005,22.69z M31.471,11.483
			c-0.364,0.001-0.767,0.127-1.25,0.375c-0.562,0.289-1.145,0.729-1.732,1.308c-0.593,0.585-1.148,1.3-1.651,2.125
			c-0.498,0.817-0.868,1.739-1.098,2.741c-0.179,0.732-0.245,1.361-0.197,1.871c0.046,0.505,0.153,0.915,0.316,1.221
			c0.155,0.288,0.342,0.498,0.555,0.625c0.21,0.124,0.401,0.188,0.567,0.191c0.472-0.034,0.951-0.139,1.424-0.312
			c0.406-0.154,0.851-0.41,1.318-0.757c0.455-0.337,0.88-0.832,1.264-1.472l0.75-1.249l-0.054,1.456
			c-0.016,0.423,0.011,0.776,0.079,1.051c0.073,0.289,0.148,0.519,0.222,0.681c0.076,0.165,0.168,0.291,0.273,0.372
			c0.093,0.062,0.227,0.115,0.387,0.148c0.169,0.035,0.355,0.046,0.553,0.032c0.197-0.016,0.398-0.054,0.596-0.114
			c0.191-0.059,0.362-0.133,0.508-0.221c0.215-0.143,0.516-0.42,0.879-0.816c0.376-0.41,0.768-0.87,1.165-1.368
			c0.4-0.502,0.788-1.004,1.162-1.506c0.374-0.501,0.681-0.923,0.918-1.263c0.22-0.293,0.291-0.477,0.312-0.581
			c0.008-0.039,0.013-0.071,0.015-0.097c-0.033,0.022-0.075,0.058-0.125,0.114c-0.083,0.114-0.253,0.332-0.487,0.626
			c-0.231,0.291-0.491,0.623-0.78,0.999c-0.294,0.38-0.609,0.773-0.947,1.179c-0.336,0.407-0.663,0.781-0.975,1.119
			c-0.321,0.347-0.629,0.638-0.918,0.863c-0.733,0.575-1.277,0.457-1.616,0.172c-0.163-0.138-0.284-0.32-0.357-0.541
			c-0.063-0.191-0.1-0.395-0.108-0.604c-0.011-0.197-0.005-0.385,0.014-0.558l0.301-1.513c0.024-0.126,0.056-0.27,0.09-0.428
			c0.171-0.785,0.307-1.426,0.41-1.922c0.102-0.492,0.178-0.882,0.229-1.17c0.03-0.167,0.051-0.301,0.062-0.401
			c-0.056,0.005-0.115,0.01-0.181,0.017c-0.152,0.016-0.34,0.049-0.564,0.097l-0.386,0.083c0.002,0.098-0.009,0.209-0.029,0.338
			c-0.043,0.288-0.108,0.649-0.195,1.084c-0.087,0.436-0.191,0.887-0.313,1.356c-0.12,0.461-0.222,0.863-0.308,1.205
			c-0.024,0.125-0.11,0.294-0.273,0.532c-0.134,0.198-0.307,0.416-0.515,0.652c-0.21,0.236-0.448,0.466-0.709,0.682
			c-0.274,0.226-0.547,0.408-0.814,0.546c-0.295,0.153-0.595,0.237-0.89,0.248c-0.001,0-0.002,0-0.003,0
			c-0.373,0-0.666-0.128-0.917-0.379c-0.169-0.17-0.269-0.45-0.313-0.883c-0.037-0.363-0.024-0.787,0.04-1.257
			c0.062-0.463,0.175-0.963,0.335-1.485c0.162-0.53,0.38-1.036,0.65-1.503c0.644-1.126,1.204-1.886,1.712-2.32
			c0.653-0.556,1.135-0.651,1.471-0.378c0.152,0.186,0.21,0.338,0.236,0.52c0.023,0.138,0.019,0.314-0.013,0.533
			c-0.006,0.041-0.014,0.084-0.024,0.129c0.005-0.002,0.009-0.003,0.013-0.005c0.142-0.048,0.251-0.078,0.351-0.097h0.172
			l0.157,0.095l0.175-0.267c0.393-0.6,0.402-0.904,0.372-1.033c-0.056-0.244-0.163-0.42-0.328-0.538
			C32.219,11.68,31.884,11.56,31.471,11.483z M30.833,13.118c-0.083,0.033-0.233,0.116-0.478,0.324
			c-0.435,0.372-0.956,1.086-1.548,2.123c-0.242,0.42-0.438,0.874-0.583,1.349c-0.148,0.484-0.252,0.943-0.309,1.366
			c-0.056,0.412-0.068,0.775-0.037,1.081c0.035,0.344,0.099,0.429,0.101,0.432c0.14,0.141,0.262,0.157,0.342,0.157
			c0.201-0.008,0.394-0.062,0.591-0.165c0.221-0.113,0.45-0.268,0.681-0.458c0.231-0.191,0.441-0.394,0.625-0.601
			c0.183-0.208,0.337-0.4,0.457-0.577c0.141-0.205,0.162-0.276,0.163-0.279c0.089-0.356,0.192-0.761,0.312-1.225
			c0.118-0.454,0.219-0.892,0.303-1.314c0.07-0.349,0.125-0.65,0.166-0.901c-0.064,0.014-0.137,0.026-0.216,0.036
			c-0.12,0.016-0.243,0.039-0.365,0.069l-0.792,0.197l0.366-0.729c0.147-0.294,0.194-0.469,0.207-0.564
			c0.028-0.19,0.02-0.281,0.015-0.311C30.834,13.125,30.834,13.121,30.833,13.118z"/>
	</g>
	<g>
		<path fill="#FFFFFF" d="M44.538,17.356c-0.445,0.651-0.904,1.284-1.375,1.901c-0.471,0.616-0.925,1.169-1.36,1.657
			c-0.438,0.488-0.84,0.883-1.208,1.182s-0.663,0.449-0.886,0.449c-0.531,0-0.964-0.253-1.297-0.758
			c-0.335-0.504-0.592-1.13-0.771-1.875c-0.181-0.745-0.292-1.541-0.335-2.389c-0.043-0.849-0.038-1.605,0.013-2.274
			c0.068-0.668,0.146-1.203,0.231-1.605c0.086-0.402,0.193-0.715,0.321-0.938c0.129-0.222,0.284-0.385,0.462-0.488
			c0.181-0.103,0.407-0.188,0.681-0.257c0.12-0.034,0.257-0.06,0.411-0.077c0.154-0.017,0.295-0.013,0.424,0.013
			c0.127,0.026,0.227,0.082,0.295,0.167c0.069,0.086,0.077,0.215,0.026,0.385c-0.034,0.154-0.09,0.382-0.167,0.681
			c-0.078,0.299-0.159,0.638-0.245,1.015s-0.167,0.771-0.245,1.182c-0.076,0.411-0.132,0.805-0.167,1.182
			c-0.051,0.65-0.051,1.22,0,1.708c0.052,0.488,0.128,0.899,0.231,1.233c0.103,0.334,0.214,0.587,0.334,0.758
			c0.12,0.171,0.214,0.257,0.282,0.257c0.086,0,0.244-0.116,0.476-0.348c0.23-0.23,0.496-0.535,0.795-0.912
			c0.3-0.376,0.616-0.812,0.951-1.309c0.333-0.497,0.646-1.011,0.938-1.542c-0.103-0.273-0.146-0.6-0.128-0.977
			c0.051-0.582,0.18-1.108,0.385-1.58c0.206-0.471,0.44-0.869,0.707-1.194c0.264-0.325,0.539-0.578,0.822-0.758
			c0.282-0.18,0.535-0.27,0.757-0.27c0.445,0,0.724,0.115,0.835,0.347c0.11,0.231,0.15,0.467,0.116,0.707
			c-0.034,0.359-0.194,0.852-0.476,1.477c-0.283,0.625-0.646,1.306-1.092,2.042c0.085,0.035,0.18,0.068,0.282,0.103
			c0.103,0.035,0.223,0.053,0.36,0.053c0.582,0,1.107-0.069,1.579-0.207c0.471-0.137,0.881-0.299,1.233-0.487
			c0.35-0.188,0.65-0.389,0.898-0.604c0.249-0.214,0.451-0.389,0.604-0.526c0.104-0.103,0.206-0.154,0.309-0.154
			s0.188,0.026,0.257,0.077s0.103,0.128,0.103,0.231c0,0.103-0.051,0.215-0.154,0.334c-0.616,0.754-1.366,1.361-2.249,1.823
			c-0.881,0.463-1.912,0.695-3.094,0.695c-0.103,0-0.231-0.01-0.385-0.027C44.872,17.443,44.709,17.408,44.538,17.356z"/>
		<path fill="#FFFFFF" d="M39.708,22.921c-0.653,0-1.21-0.32-1.61-0.927c-0.357-0.536-0.634-1.207-0.822-1.993
			c-0.185-0.762-0.301-1.589-0.345-2.458c-0.043-0.855-0.039-1.637,0.014-2.321c0.07-0.686,0.15-1.24,0.238-1.655
			c0.095-0.444,0.213-0.787,0.362-1.046c0.164-0.281,0.366-0.492,0.602-0.626c0.213-0.122,0.467-0.218,0.777-0.295
			c0.126-0.036,0.283-0.066,0.46-0.086c0.199-0.022,0.374-0.015,0.538,0.017c0.215,0.044,0.393,0.148,0.516,0.301
			c0.103,0.13,0.203,0.36,0.092,0.728c-0.027,0.13-0.084,0.361-0.162,0.666c-0.078,0.298-0.158,0.633-0.242,1.005
			c-0.084,0.373-0.165,0.762-0.242,1.168c-0.074,0.397-0.128,0.78-0.162,1.146c-0.049,0.62-0.049,1.172,0,1.635
			c0.049,0.464,0.122,0.854,0.217,1.162c0.113,0.368,0.216,0.558,0.282,0.652c0.005,0.008,0.011,0.016,0.016,0.022
			c0.04-0.037,0.098-0.09,0.171-0.163c0.218-0.219,0.476-0.515,0.767-0.88c0.287-0.359,0.601-0.792,0.934-1.285
			c0.298-0.444,0.581-0.905,0.841-1.371c-0.08-0.28-0.112-0.601-0.096-0.955c0.056-0.635,0.195-1.206,0.416-1.713
			c0.22-0.503,0.476-0.935,0.761-1.282c0.289-0.354,0.595-0.636,0.911-0.836c0.341-0.218,0.663-0.328,0.958-0.328
			c0.6,0,0.995,0.188,1.173,0.559c0.144,0.301,0.194,0.611,0.149,0.922c-0.036,0.383-0.202,0.905-0.505,1.578
			c-0.235,0.52-0.526,1.078-0.866,1.666c0.024,0.001,0.049,0.002,0.075,0.002c0.542,0,1.038-0.064,1.474-0.192
			c0.443-0.129,0.833-0.283,1.162-0.458c0.328-0.177,0.607-0.365,0.83-0.557c0.247-0.212,0.447-0.386,0.6-0.522
			c0.308-0.306,0.759-0.31,1.04-0.098c0.163,0.122,0.253,0.311,0.253,0.531c0,0.197-0.083,0.392-0.246,0.58
			c-0.637,0.78-1.433,1.425-2.358,1.909c-0.932,0.49-2.031,0.738-3.268,0.738c-0.114,0-0.257-0.01-0.428-0.029
			c-0.091-0.01-0.187-0.025-0.286-0.047c-0.402,0.581-0.814,1.146-1.237,1.7c-0.472,0.618-0.936,1.183-1.378,1.68
			c-0.459,0.512-0.869,0.912-1.252,1.223C40.382,22.752,40.026,22.921,39.708,22.921z M39.605,12.25
			c-0.045,0-0.091,0.003-0.139,0.008c-0.13,0.014-0.247,0.036-0.349,0.065c-0.251,0.062-0.448,0.136-0.598,0.222
			c-0.119,0.068-0.228,0.187-0.324,0.351c-0.107,0.186-0.201,0.465-0.278,0.828c-0.083,0.388-0.158,0.915-0.225,1.565
			c-0.049,0.644-0.053,1.392-0.012,2.217c0.041,0.821,0.15,1.602,0.325,2.318c0.168,0.701,0.41,1.292,0.719,1.756
			c0.266,0.403,0.578,0.591,0.984,0.591c0.047,0,0.232-0.026,0.649-0.365c0.347-0.282,0.739-0.666,1.166-1.141
			c0.43-0.481,0.881-1.032,1.342-1.635c0.467-0.612,0.922-1.239,1.363-1.886l0.155-0.227l0.263,0.079
			c0.146,0.045,0.286,0.075,0.417,0.089c0.142,0.016,0.256,0.025,0.348,0.025c1.114,0,2.096-0.22,2.919-0.652
			c0.751-0.393,1.407-0.902,1.953-1.516c-0.117,0.102-0.252,0.218-0.403,0.348c-0.262,0.227-0.587,0.446-0.965,0.649
			c-0.375,0.2-0.813,0.374-1.307,0.518c-0.504,0.146-1.071,0.222-1.684,0.222c-0.178,0-0.34-0.024-0.481-0.073
			c-0.109-0.036-0.211-0.072-0.304-0.11l-0.405-0.166l0.227-0.375c0.433-0.715,0.793-1.389,1.071-2.002
			c0.265-0.588,0.415-1.045,0.444-1.358c0.026-0.182-0.001-0.343-0.081-0.509c-0.04-0.082-0.23-0.133-0.497-0.133
			c-0.147,0-0.339,0.073-0.556,0.211c-0.248,0.157-0.494,0.385-0.732,0.678c-0.243,0.295-0.462,0.668-0.654,1.107
			c-0.188,0.432-0.308,0.924-0.355,1.463c-0.014,0.31,0.021,0.588,0.106,0.812l0.061,0.161l-0.083,0.151
			c-0.292,0.532-0.613,1.061-0.955,1.57c-0.35,0.518-0.667,0.953-0.97,1.333c-0.307,0.387-0.584,0.704-0.823,0.943
			c-0.335,0.334-0.536,0.458-0.742,0.458c-0.262,0-0.445-0.211-0.589-0.417c-0.144-0.204-0.27-0.486-0.385-0.862
			c-0.11-0.357-0.191-0.784-0.246-1.305c-0.053-0.509-0.054-1.106-0.001-1.776c0.036-0.393,0.093-0.799,0.172-1.221
			c0.079-0.417,0.161-0.816,0.248-1.196c0.086-0.381,0.168-0.724,0.248-1.026c0.074-0.292,0.129-0.516,0.163-0.667l0.024-0.119
			C39.723,12.255,39.666,12.25,39.605,12.25z"/>
	</g>
	<g>
		<path fill="#FFFFFF" d="M59.9,16.586c-0.514,0.755-1.096,1.486-1.746,2.197c-0.651,0.71-1.342,1.344-2.069,1.9
			c-0.729,0.557-1.473,1.006-2.235,1.349c-0.762,0.343-1.502,0.514-2.221,0.514c-0.377,0-0.784-0.09-1.222-0.27
			c-0.436-0.18-0.834-0.457-1.193-0.834s-0.646-0.865-0.861-1.466c-0.214-0.599-0.278-1.326-0.193-2.183
			c0.068-0.702,0.288-1.442,0.655-2.222c0.369-0.779,0.822-1.494,1.362-2.145c0.539-0.651,1.147-1.19,1.823-1.619
			c0.678-0.428,1.358-0.642,2.044-0.642c0.65,0,1.12,0.163,1.411,0.488c0.292,0.326,0.421,0.729,0.387,1.208
			c-0.052,0.531-0.202,1.019-0.451,1.464c-0.247,0.446-0.542,0.848-0.885,1.208c-0.343,0.359-0.708,0.685-1.092,0.977
			c-0.387,0.291-0.75,0.556-1.093,0.795c-0.377,0.258-0.736,0.502-1.079,0.733c-0.342,0.23-0.641,0.441-0.897,0.63
			c0.017,0.428,0.093,0.787,0.229,1.079c0.138,0.291,0.309,0.525,0.514,0.705c0.206,0.181,0.442,0.309,0.706,0.386
			c0.267,0.077,0.537,0.115,0.811,0.115c0.583,0,1.189-0.183,1.823-0.552c0.634-0.368,1.254-0.812,1.863-1.336
			c0.606-0.522,1.172-1.065,1.695-1.631c0.521-0.565,0.955-1.055,1.298-1.464c0.12-0.137,0.243-0.219,0.371-0.245
			c0.129-0.025,0.232-0.008,0.309,0.052c0.078,0.06,0.116,0.163,0.116,0.308C60.08,16.231,60.021,16.397,59.9,16.586z M53.324,12.63
			c-0.205,0-0.451,0.103-0.732,0.308c-0.283,0.206-0.562,0.501-0.836,0.886c-0.273,0.385-0.53,0.857-0.771,1.413
			c-0.239,0.557-0.418,1.194-0.538,1.914c0.205-0.154,0.428-0.312,0.668-0.476c0.239-0.162,0.479-0.337,0.719-0.526
			c0.736-0.565,1.251-1.062,1.542-1.49c0.291-0.428,0.452-0.796,0.486-1.104c0.035-0.325,0-0.561-0.103-0.707
			C53.657,12.704,53.513,12.63,53.324,12.63z"/>
		<path fill="#FFFFFF" d="M51.629,22.921c-0.424,0-0.883-0.101-1.364-0.298c-0.484-0.2-0.93-0.51-1.322-0.922
			c-0.395-0.414-0.712-0.951-0.943-1.599c-0.231-0.648-0.303-1.438-0.213-2.346c0.071-0.737,0.304-1.526,0.689-2.345
			c0.382-0.807,0.857-1.555,1.412-2.225c0.562-0.677,1.204-1.248,1.911-1.696c0.737-0.465,1.492-0.7,2.245-0.7
			c0.758,0,1.326,0.206,1.69,0.612c0.361,0.403,0.523,0.902,0.481,1.485c-0.058,0.59-0.225,1.132-0.498,1.621
			c-0.26,0.469-0.576,0.901-0.94,1.283c-0.353,0.368-0.734,0.71-1.136,1.017c-0.393,0.295-0.76,0.562-1.105,0.804l-1.084,0.736
			c-0.267,0.18-0.506,0.348-0.72,0.501c0.026,0.29,0.088,0.538,0.182,0.738c0.114,0.241,0.256,0.438,0.421,0.582
			c0.162,0.143,0.353,0.246,0.564,0.308c0.724,0.209,1.503,0.086,2.34-0.4c0.611-0.355,1.22-0.791,1.808-1.296
			c0.597-0.515,1.157-1.054,1.664-1.602c0.517-0.56,0.946-1.044,1.285-1.45c0.182-0.207,0.377-0.329,0.585-0.372
			c0.254-0.048,0.455-0.001,0.615,0.125c0.115,0.088,0.259,0.268,0.259,0.602c0,0.221-0.078,0.451-0.238,0.702
			c-0.525,0.772-1.124,1.525-1.786,2.249c-0.662,0.723-1.375,1.377-2.118,1.945c-0.748,0.572-1.525,1.04-2.31,1.393
			C53.197,22.737,52.398,22.921,51.629,22.921z M54.044,11.541c-0.609,0-1.229,0.197-1.844,0.584
			c-0.641,0.406-1.224,0.924-1.734,1.541c-0.516,0.622-0.957,1.316-1.312,2.066c-0.349,0.74-0.558,1.446-0.621,2.098
			c-0.079,0.798-0.021,1.478,0.174,2.021c0.195,0.547,0.458,0.996,0.779,1.333c0.319,0.336,0.678,0.587,1.064,0.746
			c0.39,0.16,0.753,0.241,1.079,0.241c0.663,0,1.358-0.162,2.066-0.48c0.732-0.329,1.459-0.768,2.162-1.305
			c0.708-0.542,1.388-1.166,2.021-1.856c0.638-0.696,1.214-1.422,1.713-2.154c0.096-0.151,0.113-0.244,0.114-0.287
			c-0.005,0.013-0.059,0.037-0.14,0.13c-0.34,0.406-0.777,0.9-1.304,1.471c-0.526,0.569-1.107,1.128-1.726,1.661
			c-0.623,0.535-1.269,0.998-1.92,1.376c-1.013,0.59-1.999,0.739-2.927,0.473c-0.318-0.094-0.604-0.249-0.849-0.464
			c-0.243-0.213-0.446-0.491-0.605-0.827c-0.158-0.337-0.247-0.748-0.266-1.225l-0.008-0.199l0.161-0.118
			c0.26-0.19,0.563-0.404,0.909-0.638l1.077-0.732c0.337-0.234,0.696-0.497,1.079-0.785c0.369-0.281,0.722-0.596,1.046-0.936
			c0.32-0.336,0.599-0.716,0.828-1.13c0.224-0.399,0.359-0.842,0.406-1.319c0.026-0.367-0.069-0.671-0.293-0.92
			C54.96,11.663,54.579,11.541,54.044,11.541z M49.923,18.016l0.154-0.926c0.125-0.748,0.314-1.42,0.563-2
			c0.251-0.58,0.522-1.079,0.81-1.482c0.297-0.417,0.607-0.745,0.921-0.973c0.721-0.526,1.356-0.481,1.695-0.002
			c0.159,0.226,0.214,0.541,0.169,0.963c-0.042,0.376-0.222,0.793-0.55,1.275c-0.315,0.465-0.847,0.98-1.623,1.577
			c-0.242,0.191-0.49,0.372-0.737,0.539c-0.234,0.159-0.452,0.313-0.652,0.465L49.923,18.016z M53.324,13.005
			c-0.07,0-0.23,0.031-0.511,0.236c-0.25,0.181-0.502,0.45-0.752,0.801c-0.256,0.36-0.503,0.813-0.731,1.344
			c-0.119,0.276-0.223,0.577-0.312,0.9c0.194-0.135,0.389-0.278,0.583-0.432c0.707-0.542,1.198-1.015,1.464-1.407
			c0.316-0.464,0.405-0.765,0.424-0.935c0.036-0.328-0.023-0.432-0.036-0.449C53.426,13.025,53.397,13.005,53.324,13.005z"/>
	</g>
	<g>
		<path fill="#FFFFFF" d="M57.665,21.519c0.753-3.169,1.356-5.712,1.812-7.629c0.453-1.918,0.801-3.382,1.041-4.393
			c0.273-1.198,0.462-2.029,0.564-2.492c0.052-0.325,0.094-0.643,0.128-0.951c0.034-0.273,0.052-0.556,0.052-0.848
			c0-0.291-0.025-0.556-0.076-0.796c0.137-0.086,0.285-0.154,0.449-0.206c0.161-0.051,0.321-0.094,0.476-0.128
			c0.188-0.051,0.376-0.094,0.564-0.128c0.188-0.034,0.36-0.051,0.515-0.051c0.137,0,0.264,0.013,0.384,0.039
			c0.12,0.025,0.198,0.081,0.232,0.167c0.103,0.086,0.148,0.257,0.141,0.514c-0.01,0.257-0.03,0.522-0.064,0.796
			c-0.068,0.325-0.145,0.677-0.23,1.053c-0.205,0.736-0.489,1.798-0.849,3.186c-0.309,1.182-0.724,2.792-1.244,4.83
			c-0.523,2.039-1.179,4.607-1.966,7.707c-0.086,0.085-0.188,0.146-0.309,0.181c-0.12,0.034-0.232,0.051-0.335,0.051
			c-0.12,0-0.247-0.009-0.385-0.026c-0.119-0.034-0.239-0.086-0.359-0.154c-0.103-0.068-0.205-0.158-0.308-0.269
			C57.794,21.857,57.716,21.708,57.665,21.519z"/>
		<path fill="#FFFFFF" d="M58.949,22.793c-0.135,0-0.277-0.01-0.433-0.029c-0.202-0.054-0.351-0.117-0.497-0.2
			c-0.148-0.098-0.274-0.207-0.396-0.34c-0.146-0.157-0.254-0.361-0.32-0.608l-0.024-0.091l2.874-12.115
			c0.272-1.194,0.461-2.024,0.563-2.486c0.047-0.297,0.088-0.608,0.121-0.911c0.033-0.264,0.05-0.531,0.05-0.806
			c0-0.263-0.022-0.505-0.068-0.719l-0.054-0.256l0.222-0.139c0.166-0.105,0.342-0.185,0.536-0.246
			c0.17-0.054,0.341-0.1,0.506-0.136c0.183-0.05,0.38-0.095,0.579-0.131c0.416-0.076,0.743-0.077,1.045-0.011
			c0.256,0.054,0.391,0.194,0.459,0.308c0.151,0.167,0.22,0.414,0.21,0.751c-0.011,0.27-0.032,0.546-0.067,0.832
			c-0.074,0.358-0.15,0.711-0.237,1.09C63.808,7.3,63.524,8.36,63.166,9.745c-0.309,1.182-0.724,2.791-1.244,4.828
			c-0.523,2.039-1.179,4.607-1.966,7.707l-0.025,0.101l-0.074,0.073c-0.131,0.13-0.288,0.222-0.467,0.274
			C59.235,22.771,59.088,22.793,58.949,22.793z M58.054,21.506c0.031,0.087,0.071,0.156,0.118,0.208
			c0.083,0.089,0.164,0.16,0.241,0.211c0.072,0.04,0.165,0.081,0.255,0.106c0.106,0.006,0.299,0.035,0.514-0.024
			c0.028-0.009,0.055-0.02,0.078-0.034c0.773-3.045,1.419-5.574,1.936-7.586c0.521-2.039,0.936-3.649,1.244-4.831
			c0.36-1.389,0.646-2.454,0.851-3.191c0.081-0.357,0.157-0.707,0.225-1.03c0.028-0.232,0.048-0.487,0.057-0.733
			c0.006-0.176-0.023-0.231-0.024-0.232l-0.09-0.129C63.4,4.281,63.3,4.271,63.189,4.271c-0.134,0-0.284,0.016-0.447,0.045
			c-0.178,0.032-0.355,0.073-0.533,0.121c-0.16,0.037-0.31,0.076-0.461,0.124c-0.051,0.016-0.101,0.034-0.147,0.054
			c0.024,0.187,0.036,0.384,0.036,0.591c0,0.308-0.019,0.606-0.055,0.894c-0.034,0.309-0.077,0.632-0.13,0.963
			c-0.106,0.485-0.295,1.317-0.569,2.516L58.054,21.506z"/>
	</g>
	<g>
		<path fill="#FFFFFF" d="M65.114,16.081c0.445-0.069,0.802-0.031,1.068,0.114c0.264,0.146,0.38,0.415,0.346,0.81
			c-0.017,0.223-0.108,0.434-0.27,0.63c-0.164,0.196-0.36,0.373-0.59,0.526c-0.232,0.154-0.477,0.273-0.733,0.36
			c-0.257,0.085-0.479,0.127-0.668,0.127c-0.342,0-0.646-0.076-0.911-0.23c-0.267-0.153-0.383-0.402-0.349-0.745
			c0.018-0.222,0.092-0.424,0.219-0.604c0.13-0.18,0.292-0.338,0.489-0.476c0.196-0.138,0.419-0.248,0.668-0.334
			C64.632,16.174,64.875,16.115,65.114,16.081z"/>
		<path fill="#FFFFFF" d="M64.268,19.023c-0.409,0-0.779-0.095-1.1-0.281c-0.392-0.226-0.582-0.619-0.533-1.106
			c0.022-0.28,0.118-0.546,0.285-0.783c0.157-0.217,0.352-0.406,0.581-0.566c0.221-0.154,0.477-0.283,0.761-0.381
			c0.265-0.092,0.533-0.157,0.8-0.195c0.522-0.081,0.963-0.028,1.301,0.156c0.28,0.155,0.6,0.484,0.54,1.171
			c-0.022,0.294-0.142,0.577-0.354,0.836c-0.191,0.229-0.417,0.43-0.672,0.6c-0.256,0.171-0.532,0.307-0.821,0.404
			C64.757,18.976,64.499,19.023,64.268,19.023z M65.518,16.423c-0.107,0-0.223,0.01-0.346,0.028
			c-0.224,0.032-0.445,0.087-0.665,0.163c-0.218,0.075-0.412,0.172-0.575,0.286c-0.164,0.114-0.295,0.241-0.401,0.389
			c-0.087,0.123-0.137,0.26-0.148,0.413c-0.023,0.235,0.048,0.325,0.161,0.391c0.317,0.185,0.657,0.278,1.274,0.072
			c0.226-0.075,0.442-0.183,0.645-0.316c0.194-0.13,0.366-0.283,0.509-0.454c0.112-0.137,0.173-0.274,0.184-0.418
			c0.03-0.351-0.099-0.423-0.153-0.453C65.879,16.457,65.716,16.423,65.518,16.423z"/>
	</g>
	<g>
		<path fill="#FFFFFF" d="M80.428,20.747c0-0.359,0.038-0.771,0.116-1.232c0.076-0.463,0.175-0.938,0.295-1.426
			c0.119-0.488,0.239-0.963,0.359-1.425c0.12-0.464,0.223-0.875,0.309-1.234c0.103-0.445,0.095-0.787-0.025-1.027
			c-0.119-0.24-0.325-0.36-0.616-0.36c-0.137,0-0.407,0.12-0.811,0.36c-0.401,0.24-0.839,0.655-1.31,1.246
			c-0.472,0.591-0.935,1.388-1.387,2.39c-0.455,1.002-0.809,2.273-1.066,3.815c-0.325,0.17-0.633,0.281-0.925,0.333
			c-0.153,0.034-0.291,0.061-0.41,0.078c-0.343,0.016-0.565-0.039-0.668-0.168c-0.104-0.128-0.086-0.44,0.051-0.938
			c0.068-0.239,0.192-0.624,0.371-1.154c0.181-0.531,0.356-1.109,0.527-1.735c0.171-0.625,0.321-1.249,0.449-1.875
			c0.129-0.625,0.194-1.169,0.194-1.631c0-0.325-0.058-0.548-0.168-0.668c-0.112-0.119-0.271-0.18-0.476-0.18
			c-0.154,0-0.411,0.086-0.771,0.257c-0.36,0.171-0.762,0.505-1.207,1.002c-0.445,0.497-0.887,1.186-1.324,2.068
			c-0.436,0.882-0.809,2.025-1.117,3.431V20.62c-0.034,0.137-0.068,0.274-0.103,0.411c-0.034,0.12-0.059,0.247-0.076,0.384
			c-0.017,0.139-0.044,0.267-0.078,0.387l-1.284,0.565c-0.086,0.034-0.192,0.059-0.321,0.076c-0.128,0.017-0.248-0.004-0.36-0.064
			c-0.11-0.06-0.191-0.184-0.243-0.372c-0.052-0.188-0.034-0.472,0.052-0.849l1.619-6.704c0.051-0.222,0.093-0.437,0.127-0.642
			c0.034-0.188,0.056-0.373,0.065-0.552c0.007-0.18-0.004-0.33-0.038-0.45c0.291-0.137,0.548-0.24,0.771-0.308
			s0.401-0.12,0.538-0.154c0.172-0.051,0.318-0.077,0.438-0.077c0.549,0,0.728,0.472,0.539,1.413
			c-0.068,0.274-0.171,0.677-0.309,1.207c0.325-0.411,0.672-0.8,1.041-1.168c0.367-0.368,0.74-0.698,1.117-0.989
			c0.377-0.291,0.757-0.522,1.144-0.693c0.385-0.171,0.767-0.257,1.144-0.257c0.291,0,0.535,0.086,0.73,0.257
			c0.198,0.171,0.353,0.398,0.463,0.681c0.112,0.282,0.177,0.616,0.194,1.002c0.017,0.385,0,0.783-0.052,1.194
			c0.274-0.36,0.576-0.723,0.911-1.092c0.333-0.368,0.686-0.697,1.053-0.989c0.369-0.292,0.75-0.531,1.144-0.72
			c0.394-0.188,0.788-0.282,1.182-0.282c0.463,0,0.818,0.137,1.065,0.411c0.25,0.274,0.421,0.626,0.514,1.054
			c0.096,0.428,0.12,0.89,0.078,1.387c-0.043,0.497-0.115,0.976-0.219,1.438l-0.873,3.469c-0.188,0.856-0.008,1.284,0.54,1.284
			c0.429,0,0.898-0.205,1.412-0.616s1.015-0.9,1.504-1.466c0.486-0.564,0.945-1.146,1.373-1.747
			c0.429-0.599,0.788-1.078,1.079-1.438c0.103-0.12,0.21-0.188,0.322-0.206c0.11-0.017,0.205,0.004,0.281,0.064
			c0.078,0.061,0.12,0.159,0.129,0.296c0.008,0.137-0.038,0.309-0.141,0.514c-0.342,0.6-0.763,1.263-1.26,1.99
			c-0.496,0.729-1.041,1.409-1.631,2.043c-0.592,0.634-1.22,1.165-1.888,1.593s-1.362,0.642-2.081,0.642
			c-0.24,0-0.477-0.024-0.706-0.076c-0.232-0.052-0.445-0.146-0.644-0.283c-0.196-0.138-0.354-0.321-0.474-0.552
			C80.488,21.403,80.428,21.107,80.428,20.747z"/>
		<path fill="#FFFFFF" d="M70.444,24.128v-1.864L69.43,22.71c-0.125,0.05-0.259,0.083-0.422,0.104l-0.135,0.01
			c-0.16,0-0.312-0.039-0.454-0.115c-0.204-0.11-0.348-0.312-0.427-0.603c-0.069-0.25-0.054-0.588,0.048-1.031l1.62-6.709
			c0.048-0.21,0.088-0.417,0.121-0.616c0.032-0.178,0.052-0.347,0.062-0.511c0.005-0.14-0.003-0.251-0.024-0.326l-0.088-0.306
			l0.288-0.136c0.305-0.144,0.581-0.254,0.82-0.327c0.23-0.071,0.415-0.124,0.557-0.159c0.682-0.205,1.102,0.028,1.271,0.235
			c0.227,0.276,0.295,0.701,0.208,1.295c0.019-0.02,0.038-0.039,0.058-0.058c0.373-0.375,0.761-0.718,1.152-1.021
			c0.402-0.31,0.812-0.559,1.222-0.739c0.818-0.364,1.71-0.432,2.272,0.061c0.242,0.208,0.433,0.487,0.565,0.827
			c0.126,0.316,0.2,0.694,0.22,1.121c0.001,0.032,0.002,0.063,0.003,0.096c0.066-0.076,0.135-0.152,0.204-0.228
			c0.339-0.375,0.708-0.722,1.097-1.03c0.389-0.307,0.797-0.563,1.215-0.764c1.008-0.482,2.116-0.417,2.688,0.215
			c0.292,0.321,0.495,0.734,0.602,1.226c0.103,0.456,0.131,0.96,0.086,1.499c-0.045,0.516-0.121,1.017-0.227,1.489l-0.876,3.479
			c-0.126,0.573-0.022,0.74,0,0.768c0.026,0.033,0.086,0.05,0.177,0.05c0.339,0,0.735-0.18,1.178-0.534
			c0.49-0.393,0.98-0.87,1.455-1.418c0.484-0.563,0.939-1.142,1.351-1.72c0.435-0.606,0.799-1.091,1.093-1.456
			c0.17-0.198,0.355-0.31,0.558-0.34l0.128-0.01c0.165,0,0.317,0.052,0.442,0.15c0.111,0.086,0.251,0.256,0.271,0.566
			c0.012,0.21-0.047,0.44-0.18,0.706c-0.349,0.612-0.777,1.291-1.285,2.034c-0.5,0.733-1.061,1.436-1.666,2.087
			c-0.613,0.656-1.272,1.213-1.96,1.652c-0.977,0.627-2.094,0.837-3.071,0.616c-0.275-0.062-0.536-0.176-0.774-0.341
			c-0.247-0.173-0.445-0.403-0.594-0.688c-0.147-0.285-0.223-0.642-0.223-1.061c0-0.383,0.041-0.818,0.121-1.295
			c0.078-0.471,0.179-0.955,0.301-1.453c0.119-0.489,0.24-0.966,0.36-1.43c0.12-0.461,0.222-0.869,0.308-1.227
			c0.102-0.441,0.058-0.664,0.004-0.772c-0.048-0.094-0.11-0.152-0.281-0.152c-0.005,0.001-0.145,0.025-0.619,0.307
			c-0.362,0.217-0.77,0.606-1.208,1.157c-0.451,0.565-0.901,1.342-1.338,2.31c-0.437,0.962-0.786,2.214-1.038,3.723L76.631,22.1
			l-0.165,0.086c-0.359,0.188-0.707,0.312-1.033,0.37c-0.147,0.033-0.294,0.062-0.421,0.08l-0.164,0.007
			c-0.406,0-0.685-0.103-0.853-0.312c-0.19-0.236-0.196-0.617-0.017-1.271c0.07-0.246,0.195-0.637,0.377-1.175
			c0.179-0.525,0.353-1.096,0.521-1.714c0.171-0.627,0.32-1.25,0.443-1.852c0.124-0.601,0.187-1.125,0.187-1.556
			c0-0.327-0.068-0.414-0.069-0.414c-0.011-0.012-0.055-0.059-0.199-0.059c-0.024,0-0.167,0.011-0.609,0.221
			c-0.312,0.148-0.679,0.456-1.089,0.914c-0.421,0.47-0.848,1.138-1.268,1.984c-0.421,0.852-0.787,1.978-1.087,3.344L70.444,24.128z
			 M80.865,13.668c0.432,0,0.77,0.202,0.952,0.568c0.161,0.322,0.179,0.74,0.055,1.278c-0.087,0.365-0.19,0.778-0.311,1.244
			c-0.12,0.461-0.239,0.934-0.358,1.42c-0.118,0.479-0.215,0.944-0.289,1.397c-0.074,0.438-0.111,0.831-0.111,1.172
			c0,0.297,0.047,0.538,0.139,0.715c0.093,0.178,0.209,0.314,0.356,0.418c0.158,0.109,0.326,0.183,0.509,0.224
			c0.787,0.179,1.697,0.001,2.504-0.515c0.635-0.406,1.245-0.923,1.815-1.533c0.58-0.623,1.116-1.295,1.596-1.998
			c0.496-0.727,0.914-1.388,1.243-1.965c0.088-0.177,0.095-0.274,0.093-0.307c0.004-0.002,0.006-0.004,0.006-0.004
			c-0.002,0-0.032,0.018-0.079,0.072c-0.281,0.347-0.636,0.82-1.06,1.412c-0.424,0.596-0.894,1.192-1.394,1.773
			c-0.505,0.583-1.027,1.093-1.554,1.514c-0.587,0.47-1.126,0.698-1.646,0.698c-0.41,0-0.641-0.18-0.762-0.33
			c-0.24-0.299-0.287-0.76-0.145-1.41l0.876-3.479c0.096-0.43,0.167-0.897,0.208-1.379c0.039-0.461,0.016-0.89-0.07-1.273
			c-0.079-0.364-0.222-0.66-0.425-0.883c-0.343-0.378-1.106-0.379-1.808-0.042c-0.368,0.176-0.729,0.404-1.073,0.676
			c-0.356,0.282-0.695,0.601-1.007,0.946c-0.328,0.361-0.623,0.716-0.892,1.068l-0.844,1.107l0.174-1.381
			c0.049-0.384,0.065-0.765,0.049-1.131c-0.016-0.342-0.072-0.638-0.168-0.879c-0.088-0.227-0.209-0.406-0.359-0.535
			c-0.335-0.296-0.933-0.184-1.477,0.059c-0.354,0.156-0.713,0.374-1.066,0.647c-0.366,0.283-0.729,0.605-1.081,0.957
			c-0.357,0.357-0.698,0.739-1.013,1.137l-1.104,1.394l0.446-1.721c0.138-0.529,0.24-0.931,0.308-1.204
			c0.135-0.674,0.013-0.867-0.014-0.898c-0.011-0.014-0.04-0.049-0.161-0.049c-0.057,0-0.16,0.011-0.33,0.062
			c-0.147,0.038-0.32,0.087-0.535,0.153c-0.142,0.043-0.298,0.102-0.469,0.175c0.004,0.074,0.004,0.153,0.001,0.238
			c-0.011,0.201-0.034,0.4-0.071,0.605c-0.034,0.207-0.078,0.429-0.131,0.659l-1.62,6.708c-0.097,0.425-0.07,0.604-0.055,0.661
			c0.026,0.096,0.056,0.137,0.064,0.145c0.027,0.015,0.059,0.022,0.094,0.022c0.134-0.017,0.213-0.034,0.267-0.056l1.103-0.485
			c0.011-0.053,0.02-0.106,0.026-0.163c0.021-0.159,0.049-0.305,0.088-0.441l0.838-3.354v0.443c0.129-0.342,0.265-0.655,0.406-0.942
			c0.45-0.908,0.915-1.632,1.381-2.152c0.484-0.54,0.918-0.896,1.325-1.091c0.428-0.203,0.715-0.293,0.932-0.293
			c0.387,0,0.62,0.162,0.748,0.297c0.184,0.199,0.271,0.5,0.271,0.925c0,0.482-0.068,1.057-0.202,1.708
			c-0.126,0.617-0.279,1.256-0.455,1.897c-0.173,0.634-0.351,1.22-0.533,1.758c-0.176,0.521-0.299,0.9-0.366,1.136
			c-0.108,0.396-0.106,0.562-0.101,0.617c0.016-0.008,0.094,0.015,0.248,0.015c0.166-0.016,0.295-0.04,0.438-0.072
			c0.217-0.038,0.438-0.111,0.669-0.219c0.261-1.489,0.618-2.739,1.062-3.719c0.462-1.023,0.945-1.854,1.436-2.468
			c0.494-0.621,0.969-1.069,1.41-1.333C80.475,13.717,80.713,13.668,80.865,13.668z"/>
	</g>
	<g>
		<path fill="#FFFFFF" d="M98.976,16.586c-0.515,0.755-1.097,1.486-1.747,2.197c-0.651,0.71-1.34,1.344-2.066,1.9
			c-0.729,0.557-1.476,1.006-2.236,1.349c-0.763,0.343-1.503,0.514-2.223,0.514c-0.377,0-0.782-0.09-1.22-0.27
			c-0.436-0.18-0.835-0.457-1.195-0.834c-0.359-0.377-0.646-0.865-0.859-1.466c-0.214-0.599-0.278-1.326-0.192-2.183
			c0.068-0.702,0.285-1.442,0.654-2.222c0.367-0.779,0.822-1.494,1.362-2.145c0.539-0.651,1.146-1.19,1.823-1.619
			c0.676-0.428,1.356-0.642,2.042-0.642c0.65,0,1.123,0.163,1.414,0.488c0.291,0.326,0.418,0.729,0.384,1.208
			c-0.051,0.531-0.201,1.019-0.449,1.464c-0.249,0.446-0.544,0.848-0.887,1.208c-0.342,0.359-0.706,0.685-1.09,0.977
			c-0.387,0.291-0.75,0.556-1.093,0.795c-0.376,0.258-0.736,0.502-1.079,0.733c-0.342,0.23-0.643,0.441-0.899,0.63
			c0.017,0.428,0.095,0.787,0.232,1.079c0.137,0.291,0.308,0.525,0.514,0.705c0.205,0.181,0.439,0.309,0.706,0.386
			c0.264,0.077,0.534,0.115,0.809,0.115c0.582,0,1.191-0.183,1.824-0.552c0.634-0.368,1.255-0.812,1.863-1.336
			c0.607-0.522,1.172-1.065,1.695-1.631c0.521-0.565,0.954-1.055,1.296-1.464c0.12-0.137,0.246-0.219,0.373-0.245
			c0.13-0.025,0.232-0.008,0.309,0.052c0.078,0.06,0.116,0.163,0.116,0.308C99.156,16.231,99.095,16.397,98.976,16.586z
			 M92.398,12.63c-0.205,0-0.449,0.103-0.73,0.308c-0.283,0.206-0.562,0.501-0.835,0.886c-0.274,0.385-0.531,0.857-0.771,1.413
			c-0.239,0.557-0.42,1.194-0.54,1.914c0.205-0.154,0.428-0.312,0.668-0.476c0.24-0.162,0.479-0.337,0.72-0.526
			c0.736-0.565,1.25-1.062,1.541-1.49c0.291-0.428,0.455-0.796,0.489-1.104c0.034-0.325,0-0.561-0.104-0.707
			C92.733,12.704,92.587,12.63,92.398,12.63z"/>
		<path fill="#FFFFFF" d="M90.703,22.921c-0.423,0-0.881-0.101-1.362-0.298c-0.485-0.2-0.931-0.51-1.324-0.922
			c-0.396-0.415-0.712-0.953-0.941-1.6c-0.231-0.648-0.303-1.438-0.212-2.345c0.072-0.744,0.304-1.533,0.688-2.346
			c0.377-0.8,0.853-1.549,1.412-2.224c0.563-0.68,1.207-1.251,1.912-1.696c0.733-0.465,1.488-0.7,2.242-0.7
			c0.76,0,1.329,0.206,1.693,0.612c0.359,0.402,0.521,0.902,0.479,1.485c-0.056,0.588-0.223,1.13-0.496,1.62
			c-0.263,0.472-0.58,0.903-0.942,1.284c-0.352,0.369-0.733,0.711-1.134,1.017c-0.393,0.295-0.76,0.562-1.105,0.804l-1.084,0.736
			c-0.267,0.18-0.508,0.348-0.722,0.501c0.027,0.288,0.089,0.536,0.184,0.737c0.114,0.242,0.256,0.438,0.421,0.583
			c0.166,0.146,0.35,0.246,0.564,0.308c0.719,0.21,1.506,0.088,2.34-0.4c0.614-0.357,1.223-0.793,1.808-1.296
			c0.593-0.511,1.153-1.05,1.664-1.602c0.517-0.56,0.944-1.044,1.283-1.45c0.182-0.207,0.376-0.329,0.586-0.372
			c0.261-0.05,0.455-0.002,0.616,0.125c0.115,0.088,0.259,0.268,0.259,0.602c0,0.218-0.078,0.447-0.238,0.701
			c-0.528,0.774-1.127,1.528-1.788,2.25c-0.665,0.726-1.376,1.38-2.114,1.945c-0.748,0.57-1.525,1.038-2.311,1.393
			C92.272,22.737,91.473,22.921,90.703,22.921z M93.118,11.541c-0.609,0-1.229,0.196-1.842,0.584
			c-0.639,0.403-1.222,0.922-1.734,1.541c-0.521,0.626-0.962,1.322-1.312,2.065c-0.348,0.734-0.556,1.44-0.62,2.099
			c-0.08,0.797-0.021,1.477,0.173,2.021c0.193,0.547,0.455,0.995,0.777,1.333c0.32,0.335,0.68,0.586,1.066,0.746
			c0.39,0.16,0.752,0.241,1.077,0.241c0.663,0,1.359-0.162,2.069-0.48c0.733-0.331,1.461-0.77,2.162-1.305
			c0.703-0.539,1.382-1.164,2.018-1.856c0.637-0.695,1.213-1.42,1.714-2.154c0.095-0.151,0.113-0.242,0.115-0.285
			c-0.008,0.013-0.063,0.039-0.142,0.128c-0.338,0.406-0.775,0.9-1.302,1.471c-0.53,0.573-1.111,1.132-1.727,1.661
			c-0.619,0.533-1.265,0.996-1.919,1.376c-1.013,0.59-2.012,0.737-2.927,0.473c-0.317-0.093-0.604-0.249-0.849-0.465
			c-0.243-0.212-0.447-0.49-0.605-0.827c-0.159-0.337-0.249-0.749-0.268-1.224l-0.008-0.199l0.161-0.118
			c0.26-0.19,0.565-0.404,0.911-0.638l1.077-0.732c0.337-0.234,0.696-0.497,1.079-0.785c0.368-0.279,0.72-0.595,1.044-0.936
			c0.318-0.334,0.599-0.715,0.831-1.132c0.222-0.398,0.357-0.842,0.403-1.317c0.026-0.369-0.068-0.674-0.29-0.922
			C94.037,11.663,93.655,11.541,93.118,11.541z M88.997,18.016l0.154-0.926c0.124-0.743,0.314-1.416,0.565-2
			c0.251-0.582,0.523-1.08,0.811-1.483c0.296-0.416,0.605-0.743,0.92-0.972c0.721-0.525,1.361-0.475,1.695-0.002
			c0.158,0.223,0.215,0.538,0.17,0.962c-0.042,0.375-0.222,0.791-0.553,1.276c-0.316,0.466-0.847,0.981-1.622,1.577
			c-0.244,0.192-0.491,0.372-0.738,0.539c-0.234,0.159-0.452,0.313-0.652,0.465L88.997,18.016z M92.398,13.005
			c-0.069,0-0.229,0.031-0.509,0.236c-0.25,0.181-0.502,0.45-0.751,0.801c-0.257,0.36-0.503,0.812-0.732,1.345
			c-0.12,0.277-0.224,0.578-0.312,0.9c0.194-0.135,0.389-0.278,0.583-0.432c0.705-0.541,1.196-1.013,1.463-1.406
			c0.319-0.469,0.408-0.767,0.427-0.935c0.035-0.329-0.023-0.431-0.036-0.448C92.507,13.032,92.48,13.005,92.398,13.005z"/>
	</g>
	<g>
		<path fill="#FFFFFF" d="M108.764,16.586c-0.514,0.755-1.096,1.486-1.747,2.197c-0.65,0.71-1.341,1.344-2.068,1.9
			c-0.729,0.557-1.473,1.006-2.235,1.349c-0.762,0.343-1.502,0.514-2.221,0.514c-0.377,0-0.784-0.09-1.222-0.27
			c-0.437-0.18-0.834-0.457-1.193-0.834s-0.647-0.865-0.862-1.466c-0.213-0.599-0.277-1.326-0.192-2.183
			c0.069-0.702,0.288-1.442,0.655-2.222c0.369-0.779,0.821-1.494,1.362-2.145c0.538-0.651,1.147-1.19,1.823-1.619
			c0.677-0.428,1.358-0.642,2.043-0.642c0.651,0,1.121,0.163,1.412,0.488c0.291,0.326,0.421,0.729,0.387,1.208
			c-0.052,0.531-0.202,1.019-0.451,1.464c-0.247,0.446-0.542,0.848-0.885,1.208c-0.343,0.359-0.708,0.685-1.093,0.977
			c-0.386,0.291-0.749,0.556-1.092,0.795c-0.377,0.258-0.736,0.502-1.079,0.733c-0.343,0.23-0.642,0.441-0.898,0.63
			c0.018,0.428,0.094,0.787,0.23,1.079c0.137,0.291,0.309,0.525,0.514,0.705c0.206,0.181,0.441,0.309,0.706,0.386
			c0.267,0.077,0.537,0.115,0.811,0.115c0.583,0,1.189-0.183,1.823-0.552c0.634-0.368,1.254-0.812,1.863-1.336
			c0.606-0.522,1.172-1.065,1.695-1.631c0.521-0.565,0.955-1.055,1.298-1.464c0.12-0.137,0.243-0.219,0.371-0.245
			c0.129-0.025,0.231-0.008,0.308,0.052c0.078,0.06,0.116,0.163,0.116,0.308C108.942,16.231,108.884,16.397,108.764,16.586z
			 M102.188,12.63c-0.206,0-0.451,0.103-0.732,0.308c-0.284,0.206-0.562,0.501-0.836,0.886c-0.273,0.385-0.53,0.857-0.771,1.413
			c-0.24,0.557-0.419,1.194-0.538,1.914c0.205-0.154,0.428-0.312,0.668-0.476c0.239-0.162,0.479-0.337,0.719-0.526
			c0.736-0.565,1.25-1.062,1.541-1.49c0.292-0.428,0.453-0.796,0.487-1.104c0.034-0.325,0-0.561-0.103-0.707
			C102.521,12.704,102.376,12.63,102.188,12.63z"/>
		<path fill="#FFFFFF" d="M100.492,22.921c-0.424,0-0.883-0.101-1.364-0.298c-0.484-0.199-0.929-0.51-1.322-0.922
			c-0.396-0.415-0.713-0.952-0.944-1.599c-0.23-0.649-0.302-1.438-0.212-2.346c0.073-0.74,0.305-1.529,0.689-2.345
			c0.383-0.81,0.858-1.558,1.413-2.225c0.558-0.675,1.201-1.246,1.91-1.696c0.735-0.465,1.49-0.7,2.244-0.7
			c0.758,0,1.327,0.206,1.691,0.612c0.361,0.404,0.522,0.904,0.481,1.485c-0.058,0.59-0.225,1.132-0.498,1.621
			c-0.26,0.469-0.576,0.901-0.94,1.283c-0.354,0.37-0.735,0.712-1.138,1.017c-0.391,0.295-0.758,0.562-1.104,0.804l-1.084,0.736
			c-0.268,0.18-0.507,0.347-0.721,0.501c0.027,0.291,0.089,0.538,0.183,0.738c0.112,0.24,0.254,0.437,0.421,0.582
			c0.165,0.145,0.35,0.245,0.563,0.308c0.726,0.209,1.504,0.086,2.341-0.4c0.611-0.355,1.22-0.791,1.808-1.296
			c0.597-0.515,1.157-1.054,1.664-1.602c0.517-0.56,0.946-1.044,1.285-1.45c0.182-0.207,0.377-0.329,0.585-0.372
			c0.252-0.05,0.453-0.002,0.614,0.125c0.115,0.088,0.259,0.268,0.259,0.602c0,0.222-0.078,0.452-0.237,0.702
			c-0.526,0.773-1.125,1.527-1.787,2.249c-0.661,0.722-1.373,1.376-2.117,1.945c-0.748,0.572-1.525,1.04-2.31,1.393
			C102.061,22.737,101.262,22.921,100.492,22.921z M102.906,11.541c-0.609,0-1.229,0.196-1.843,0.584
			c-0.643,0.407-1.226,0.925-1.734,1.541c-0.515,0.62-0.956,1.314-1.312,2.067c-0.348,0.737-0.557,1.443-0.621,2.099
			c-0.079,0.796-0.021,1.476,0.173,2.02c0.195,0.546,0.458,0.995,0.78,1.333c0.32,0.336,0.679,0.587,1.064,0.746
			c0.39,0.16,0.753,0.241,1.079,0.241c0.663,0,1.358-0.162,2.066-0.48c0.732-0.329,1.459-0.768,2.162-1.305
			c0.709-0.542,1.389-1.167,2.02-1.855c0.638-0.696,1.214-1.421,1.714-2.155c0.095-0.149,0.112-0.243,0.113-0.286
			c-0.005,0.013-0.059,0.038-0.139,0.129c-0.34,0.406-0.777,0.9-1.304,1.471c-0.526,0.569-1.107,1.128-1.726,1.661
			c-0.623,0.535-1.269,0.998-1.92,1.376c-1.013,0.59-1.999,0.739-2.927,0.473c-0.318-0.093-0.604-0.249-0.849-0.464
			s-0.449-0.493-0.606-0.828c-0.156-0.335-0.246-0.746-0.266-1.223l-0.008-0.2l0.161-0.118c0.261-0.19,0.563-0.404,0.911-0.639
			l1.076-0.731c0.337-0.234,0.696-0.497,1.078-0.785c0.369-0.28,0.722-0.595,1.047-0.936c0.32-0.336,0.599-0.716,0.828-1.13
			c0.224-0.399,0.359-0.842,0.406-1.319c0.025-0.366-0.069-0.671-0.293-0.921C103.823,11.663,103.442,11.541,102.906,11.541z
			 M98.788,18.014l0.152-0.924c0.124-0.747,0.313-1.421,0.563-2c0.251-0.58,0.522-1.078,0.81-1.482
			c0.303-0.425,0.604-0.743,0.922-0.973c0.719-0.526,1.355-0.481,1.694-0.002c0.158,0.225,0.213,0.539,0.169,0.962
			c-0.042,0.378-0.222,0.795-0.551,1.277c-0.316,0.465-0.847,0.981-1.622,1.576c-0.242,0.191-0.49,0.372-0.737,0.539
			c-0.234,0.159-0.452,0.313-0.652,0.465L98.788,18.014z M102.188,13.005c-0.07,0-0.23,0.031-0.511,0.236
			c-0.249,0.18-0.501,0.449-0.752,0.801c-0.256,0.36-0.503,0.813-0.731,1.344c-0.12,0.276-0.224,0.577-0.312,0.901
			c0.194-0.135,0.39-0.279,0.584-0.433c0.705-0.542,1.196-1.014,1.463-1.407c0.317-0.464,0.406-0.765,0.425-0.935
			c0.035-0.329-0.023-0.432-0.036-0.449C102.289,13.025,102.261,13.005,102.188,13.005z"/>
	</g>
	<g>
		<path fill="#FFFFFF" d="M116.393,15.43c0.068-0.103,0.158-0.167,0.271-0.192c0.11-0.026,0.201-0.013,0.27,0.039
			c0.069,0.051,0.107,0.137,0.116,0.257c0.008,0.12-0.04,0.283-0.143,0.488c-0.343,0.651-0.791,1.353-1.347,2.105
			c-0.558,0.755-1.145,1.462-1.761,2.12c-0.616,0.659-1.216,1.203-1.798,1.631c-0.583,0.428-1.071,0.644-1.466,0.644
			c-0.564,0-1.035-0.112-1.412-0.335c-0.376-0.223-0.673-0.497-0.887-0.822c-0.215-0.324-0.363-0.681-0.448-1.065
			c-0.086-0.386-0.112-0.74-0.078-1.066c0.017-0.273,0.078-0.767,0.181-1.478c0.103-0.71,0.239-1.531,0.411-2.466
			c0.171-0.934,0.363-1.935,0.578-3.006c0.213-1.07,0.439-3.102,0.68-4.095c-0.291,0.035-0.583,0.068-0.874,0.103
			c-0.291,0.035-0.556,0.051-0.795,0.051c-0.548,0-1.065-0.064-1.555-0.192c-0.487-0.128-0.853-0.253-1.093-0.373
			c-0.137-0.068-0.195-0.167-0.179-0.295c0.018-0.128,0.068-0.257,0.154-0.385s0.192-0.24,0.321-0.334
			c0.128-0.094,0.244-0.142,0.347-0.142c0.325,0.035,0.676,0.064,1.052,0.09c0.377,0.026,0.788,0.03,1.233,0.013
			c0.325-0.017,0.638-0.042,0.938-0.077c0.299-0.034,0.596-0.077,0.887-0.128c0.223-0.822,0.439-1.537,0.654-2.145
			c0.213-0.607,0.407-1.031,0.578-1.272c0.052-0.085,0.168-0.158,0.347-0.218c0.181-0.06,0.373-0.103,0.579-0.128
			c0.205-0.025,0.401-0.025,0.59,0c0.188,0.026,0.325,0.09,0.41,0.193c0.086,0.137,0.12,0.488,0.104,1.053
			c-0.018,0.565-0.11,1.284-0.282,2.158c0.72,0,1.357,0.039,1.915,0.116c0.556,0.077,1.031,0.163,1.425,0.257
			c0.394,0.094,0.71,0.189,0.949,0.283c0.24,0.094,0.421,0.158,0.541,0.192c0.12,0.035,0.183,0.12,0.192,0.257
			c0.007,0.137-0.018,0.279-0.076,0.424c-0.062,0.146-0.16,0.27-0.297,0.373c-0.138,0.103-0.291,0.137-0.463,0.103
			c-0.171-0.017-0.363-0.051-0.576-0.103c-0.215-0.052-0.472-0.094-0.771-0.128c-0.301-0.035-0.657-0.068-1.068-0.103
			c-0.41-0.034-0.89-0.051-1.438-0.051c-0.103,0-0.217,0.004-0.346,0.013c-0.128,0.009-0.261,0.013-0.398,0.013
			c-0.068,0.274-0.133,0.544-0.191,0.81c-0.062,0.266-0.144,1.543-0.246,1.835c-0.223,0.685-0.479,1.43-0.771,2.235
			c-0.257,0.703-0.565,1.507-0.925,2.415c-0.359,0.909-0.761,1.875-1.206,2.904c-0.104,0.736-0.09,1.297,0.038,1.682
			c0.129,0.386,0.287,0.664,0.476,0.836c0.223,0.188,0.496,0.291,0.822,0.308c0.257,0.034,0.568-0.055,0.938-0.27
			c0.367-0.215,0.748-0.501,1.142-0.86c0.395-0.359,0.792-0.754,1.195-1.182c0.401-0.429,0.774-0.849,1.117-1.26
			s0.644-0.783,0.9-1.117S116.29,15.568,116.393,15.43z"/>
		<path fill="#FFFFFF" d="M110.535,22.896c-0.629,0-1.168-0.13-1.603-0.387c-0.426-0.253-0.766-0.568-1.01-0.939
			c-0.236-0.357-0.405-0.759-0.501-1.19c-0.095-0.424-0.123-0.823-0.085-1.187c0.016-0.259,0.074-0.738,0.183-1.492
			c0.104-0.714,0.24-1.54,0.413-2.48c0.172-0.935,0.364-1.939,0.58-3.012c0.176-0.885,0.363-2.753,0.558-3.586l-0.341,0.04
			c-1.005,0.122-1.745,0.044-2.488-0.151c-0.519-0.137-0.899-0.267-1.165-0.399c-0.277-0.138-0.421-0.392-0.384-0.679
			c0.026-0.189,0.098-0.372,0.215-0.546c0.11-0.166,0.249-0.31,0.411-0.428c0.194-0.142,0.385-0.214,0.568-0.214
			c0.36,0.036,0.706,0.065,1.077,0.091c0.364,0.025,0.764,0.028,1.193,0.013c0.312-0.016,0.617-0.042,0.91-0.075
			c0.212-0.024,0.423-0.053,0.631-0.086c0.208-0.752,0.404-1.389,0.6-1.94c0.225-0.641,0.43-1.087,0.626-1.364
			c0.084-0.141,0.264-0.265,0.532-0.356c0.207-0.068,0.425-0.117,0.652-0.146c0.241-0.029,0.469-0.029,0.687,0
			c0.286,0.04,0.504,0.149,0.649,0.326c0.122,0.189,0.214,0.456,0.189,1.303c-0.016,0.489-0.085,1.085-0.207,1.777
			c0.556,0.013,1.063,0.051,1.517,0.114c0.562,0.078,1.055,0.167,1.46,0.264c0.405,0.097,0.742,0.197,0.999,0.298
			c0.226,0.088,0.395,0.149,0.507,0.181c0.274,0.081,0.442,0.296,0.464,0.591c0.01,0.202-0.024,0.398-0.103,0.591
			c-0.09,0.212-0.229,0.389-0.419,0.531c-0.226,0.168-0.48,0.229-0.763,0.171c-0.148-0.013-0.357-0.05-0.59-0.105
			c-0.202-0.049-0.444-0.088-0.726-0.121c-0.298-0.034-0.65-0.067-1.057-0.102c-0.401-0.033-0.87-0.05-1.407-0.05
			c-0.096,0-0.202,0.004-0.321,0.012c-0.042,0.003-0.084,0.006-0.127,0.008c-0.043,0.175-0.083,0.349-0.121,0.521
			c-0.065,0.282-0.151,1.573-0.259,1.879c-0.221,0.68-0.479,1.429-0.771,2.238c-0.258,0.707-0.568,1.514-0.929,2.425
			c-0.355,0.898-0.751,1.853-1.19,2.867c-0.108,0.807-0.044,1.239,0.029,1.462c0.106,0.317,0.235,0.552,0.373,0.677
			c0.149,0.126,0.345,0.198,0.589,0.211c0.249,0.001,0.476-0.072,0.729-0.22c0.345-0.202,0.707-0.476,1.077-0.813
			c0.38-0.346,0.765-0.726,1.176-1.161c0.395-0.423,0.764-0.837,1.102-1.243c0.339-0.407,0.637-0.775,0.892-1.105
			c0.255-0.332,0.433-0.565,0.534-0.702c0.11-0.167,0.283-0.288,0.488-0.334c0.21-0.048,0.423-0.013,0.579,0.105
			c0.106,0.079,0.242,0.237,0.264,0.528c0.013,0.194-0.045,0.41-0.181,0.683c-0.354,0.674-0.817,1.398-1.381,2.161
			c-0.564,0.765-1.167,1.489-1.789,2.153c-0.629,0.674-1.251,1.237-1.85,1.677C111.566,22.662,111.014,22.896,110.535,22.896z
			 M110.051,7.752l-0.127,0.524c-0.237,0.981-0.465,3.018-0.676,4.08c-0.215,1.069-0.407,2.068-0.577,3
			c-0.171,0.93-0.308,1.746-0.409,2.452c-0.101,0.696-0.161,1.179-0.178,1.446c-0.03,0.299-0.007,0.617,0.07,0.962
			c0.075,0.343,0.208,0.659,0.395,0.94c0.182,0.275,0.438,0.514,0.766,0.707c0.317,0.188,0.728,0.282,1.221,0.282
			c0.213,0,0.601-0.099,1.244-0.571c0.561-0.411,1.147-0.944,1.745-1.584c0.603-0.644,1.186-1.346,1.733-2.087
			c0.541-0.732,0.983-1.425,1.316-2.058c0.01-0.019,0.019-0.038,0.026-0.055c-0.129,0.156-0.27,0.341-0.449,0.573
			c-0.259,0.338-0.562,0.714-0.909,1.129c-0.348,0.416-0.725,0.842-1.132,1.275c-0.425,0.451-0.822,0.844-1.216,1.203
			c-0.408,0.373-0.814,0.678-1.205,0.906c-0.38,0.222-0.712,0.328-1.017,0.328l0,0c-0.055,0-0.108-0.003-0.16-0.01
			c-0.377-0.019-0.729-0.151-1.015-0.394c-0.249-0.227-0.438-0.552-0.589-1.003c-0.148-0.447-0.166-1.054-0.054-1.853l0.027-0.098
			c0.443-1.024,0.843-1.987,1.201-2.892s0.665-1.706,0.921-2.406c0.289-0.8,0.545-1.541,0.767-2.222
			c0.101-0.286,0.179-1.551,0.237-1.804c0.059-0.265,0.124-0.538,0.192-0.816l0.071-0.284h0.293c0.128,0,0.252-0.003,0.371-0.012
			c0.142-0.009,0.264-0.014,0.373-0.014c0.561,0,1.051,0.018,1.47,0.053c0.416,0.035,0.776,0.069,1.08,0.104
			c0.316,0.037,0.588,0.082,0.815,0.136c0.193,0.047,0.369,0.079,0.524,0.094c0.119,0.012,0.154,0.007,0.203-0.03
			c0.081-0.062,0.14-0.133,0.175-0.218c0.027-0.066,0.043-0.133,0.047-0.199c-0.122-0.039-0.288-0.098-0.495-0.18
			c-0.226-0.088-0.528-0.178-0.899-0.267c-0.383-0.091-0.85-0.175-1.39-0.25c-0.538-0.075-1.165-0.112-1.863-0.112h-0.456
			l0.088-0.447c0.166-0.842,0.259-1.547,0.275-2.097c0.017-0.57-0.025-0.771-0.043-0.83c-0.001,0-0.001,0-0.001,0
			c-0.012,0-0.057-0.021-0.146-0.033c-0.153-0.021-0.319-0.021-0.492,0c-0.18,0.023-0.349,0.06-0.508,0.112
			c-0.12,0.041-0.155,0.073-0.156,0.074c-0.107,0.154-0.284,0.479-0.532,1.185c-0.208,0.59-0.42,1.283-0.646,2.119l-0.062,0.23
			l-0.234,0.041c-0.299,0.053-0.604,0.097-0.909,0.132c-0.309,0.036-0.629,0.062-0.962,0.079c-0.473,0.018-0.89,0.013-1.278-0.014
			c-0.376-0.025-0.727-0.055-1.052-0.089c0.014,0.004-0.027,0.016-0.1,0.069c-0.093,0.068-0.169,0.147-0.231,0.24
			c-0.035,0.053-0.062,0.105-0.078,0.156c0.229,0.106,0.554,0.214,0.979,0.326c0.656,0.172,1.311,0.239,2.21,0.131L110.051,7.752z"
			/>
	</g>
</g>
</svg>
