<?xml version="1.0" encoding="utf-8"?>
<!-- Generator: Adobe Illustrator 16.0.0, SVG Export Plug-In . SVG Version: 6.00 Build 0)  -->
<!DOCTYPE svg PUBLIC "-//W3C//DTD SVG 1.1//EN" "http://www.w3.org/Graphics/SVG/1.1/DTD/svg11.dtd">
<svg version="1.1" id="Layer_1" xmlns="http://www.w3.org/2000/svg" xmlns:xlink="http://www.w3.org/1999/xlink" x="0px" y="0px"
	 width="120px" height="30px" viewBox="0 0 120 30" enable-background="new 0 0 120 30" xml:space="preserve">
<g>
	<g>
		<g>
			<path fill="#FFFFFF" d="M3.667,4.702C2.541,5.069,3.048,3.333,3.339,2.828c0.563-0.979,2.685-0.819,3.627-0.896
				c2.355-0.192,10.562-0.3,12.884-0.119c0.64,0.049,1.277,0.1,1.913,0.174c0.659,0.078,0.26,1.004-0.126,1.369
				c-0.422,0.389-1.399,0.16-1.921,0.151c-0.503-0.008-3.722-0.068-4.226-0.068c-0.331,0-0.661,0-0.99,0
				c-0.413,0-0.384,0.377-0.517,0.746c-0.485,1.347-0.972,2.693-1.443,4.043c-0.973,2.801-1.954,5.619-2.687,8.478
				c-0.345,1.346-0.688,2.693-1.036,4.039c-0.158,0.616-0.31,1.234-0.447,1.855c-0.121,0.549-0.146,1.775-0.668,2.002
				c-0.408,0.176-2.681,0.949-2.54-0.013c0.141-0.964,0.603-1.972,0.896-2.909c0.791-2.509,1.572-5.02,2.364-7.531
				c1.114-3.53,2.174-6.875,3.299-10.402C10.075,3.966,5.292,4.301,3.667,4.702C3.461,4.769,3.872,4.651,3.667,4.702z"/>
			<path fill="#FFFFFF" d="M5.774,25.46c-0.391,0-0.666-0.1-0.842-0.302c-0.099-0.115-0.208-0.317-0.163-0.625
				c0.103-0.696,0.354-1.395,0.6-2.07c0.11-0.305,0.219-0.606,0.311-0.9l1.055-3.363c0.435-1.39,0.871-2.779,1.309-4.169
				c1.052-3.334,2.056-6.503,3.112-9.816c-0.512,0.056-1.155,0.117-1.854,0.184C7.366,4.582,4.972,4.811,3.864,5.061
				C3.786,5.096,3.707,5.11,3.658,5.116C3.273,5.207,2.894,5.086,2.71,4.769C2.349,4.145,2.793,2.983,2.996,2.63
				c0.569-0.989,2.163-1.035,3.328-1.067c0.232-0.007,0.441-0.012,0.611-0.026c1.462-0.12,5.276-0.213,8.681-0.213
				c1.396,0,3.271,0.016,4.267,0.094c0.644,0.05,1.288,0.101,1.927,0.176c0.325,0.038,0.566,0.223,0.659,0.506
				c0.175,0.528-0.23,1.233-0.56,1.544c-0.325,0.3-0.782,0.334-1.098,0.334c-0.232,0-0.476-0.023-0.697-0.044
				c-0.15-0.015-0.289-0.029-0.405-0.031L19.018,3.89c-1.122-0.02-3.137-0.056-3.527-0.056H14.5c-0.011,0.006-0.04,0.12-0.059,0.194
				c-0.024,0.094-0.05,0.192-0.085,0.291l-0.191,0.533c-0.421,1.168-0.842,2.336-1.25,3.507c-0.967,2.784-1.953,5.618-2.677,8.446
				l-1.037,4.04c-0.157,0.611-0.308,1.225-0.444,1.84c-0.026,0.119-0.047,0.272-0.071,0.439c-0.099,0.704-0.222,1.579-0.827,1.842
				C7.631,25.064,6.546,25.46,5.774,25.46z M5.554,24.646c0.022,0.005,0.09,0.021,0.221,0.021c0.584,0,1.516-0.319,1.771-0.428
				c0.197-0.086,0.313-0.914,0.357-1.226c0.027-0.19,0.051-0.363,0.081-0.498c0.139-0.626,0.291-1.248,0.451-1.87l1.035-4.038
				c0.734-2.859,1.724-5.71,2.682-8.466c0.425-1.218,0.846-2.388,1.268-3.558l0.191-0.532c0.027-0.074,0.045-0.148,0.063-0.219
				c0.07-0.276,0.201-0.79,0.826-0.79h0.99c0.391,0,2.415,0.036,3.542,0.056l0.69,0.012c0.134,0.002,0.295,0.018,0.47,0.035
				c0.197,0.019,0.413,0.041,0.619,0.041c0.353,0,0.497-0.066,0.558-0.122c0.219-0.208,0.381-0.605,0.348-0.716
				c-0.63-0.042-1.262-0.091-1.897-0.14c-0.757-0.06-2.25-0.092-4.205-0.092c-3.386,0-7.171,0.092-8.616,0.21
				C6.818,2.341,6.595,2.348,6.347,2.354C5.48,2.379,4.031,2.421,3.682,3.025C3.455,3.42,3.287,4.214,3.396,4.374
				c0.015-0.018,0.064-0.021,0.147-0.049l0.1-0.023c1.183-0.272,3.616-0.505,5.584-0.693c1.006-0.096,1.896-0.181,2.441-0.253
				l0.62-0.083l-0.189,0.595c-1.125,3.526-2.186,6.87-3.3,10.4c-0.438,1.39-0.873,2.779-1.308,4.167L6.436,21.8
				c-0.095,0.305-0.208,0.616-0.322,0.933C5.883,23.37,5.644,24.028,5.554,24.646z"/>
		</g>
		<g>
			<path fill="#FFFFFF" d="M14.599,20.223c-0.117,0.185-0.247,0.306-0.391,0.365c-0.142,0.058-0.269,0.068-0.378,0.024
				c-0.109-0.041-0.181-0.129-0.215-0.263c-0.033-0.135,0-0.303,0.102-0.505c0.051-0.101,0.163-0.329,0.341-0.682
				c0.175-0.353,0.386-0.777,0.629-1.274c0.245-0.495,0.509-1.032,0.795-1.613c0.286-0.579,0.559-1.131,0.819-1.652
				c0.261-0.52,0.5-0.987,0.719-1.399c0.219-0.411,0.378-0.709,0.479-0.895c-0.185-0.168-0.311-0.291-0.378-0.366
				c-0.067-0.076-0.117-0.24-0.151-0.492c-0.033-0.218,0.017-0.504,0.151-0.857c0.134-0.354,0.311-0.693,0.53-1.021
				s0.462-0.609,0.731-0.845c0.269-0.235,0.53-0.353,0.782-0.353c0.471,0,0.802,0.151,0.997,0.454
				c0.192,0.303,0.306,0.614,0.34,0.933c0.034,0.218,0.017,0.496-0.051,0.832c-0.066,0.337-0.193,0.639-0.377,0.908
				c0.05,0.034,0.117,0.071,0.201,0.113c0.084,0.042,0.219,0.063,0.404,0.063c0.27,0,0.457-0.017,0.567-0.051
				c0.109-0.034,0.282-0.05,0.518-0.05c0.286,0,0.52,0.072,0.706,0.213c0.185,0.144,0.336,0.32,0.454,0.531
				c0.117,0.21,0.206,0.437,0.266,0.681c0.057,0.243,0.096,0.465,0.112,0.667c0.051,0.42-0.059,0.857-0.328,1.312
				c-0.269,0.454-0.597,0.95-0.983,1.487c-0.235,0.338-0.471,0.716-0.707,1.138c-0.235,0.418-0.335,0.796-0.302,1.132
				c0.033,0.219,0.092,0.397,0.177,0.53c0.083,0.135,0.319,0.203,0.705,0.203c0.287,0,0.601-0.104,0.946-0.317
				c0.344-0.21,0.698-0.479,1.059-0.806c0.362-0.328,0.72-0.688,1.072-1.085c0.353-0.396,0.681-0.781,0.984-1.161
				c0.302-0.376,0.558-0.718,0.768-1.021c0.211-0.303,0.367-0.521,0.468-0.656c0.084-0.134,0.193-0.227,0.328-0.277
				c0.134-0.051,0.252-0.051,0.354,0c0.1,0.051,0.164,0.152,0.189,0.303c0.024,0.151-0.038,0.353-0.189,0.605
				c-0.102,0.168-0.273,0.437-0.517,0.809c-0.246,0.368-0.54,0.78-0.884,1.235c-0.345,0.453-0.727,0.92-1.147,1.398
				s-0.862,0.918-1.324,1.312c-0.462,0.395-0.925,0.719-1.386,0.972c-0.464,0.252-0.905,0.377-1.325,0.377
				c-0.438,0-0.798-0.082-1.085-0.252c-0.286-0.168-0.516-0.373-0.693-0.617c-0.176-0.244-0.303-0.513-0.378-0.809
				c-0.077-0.293-0.105-0.564-0.088-0.817c0.017-0.202,0.072-0.417,0.164-0.644c0.093-0.227,0.202-0.462,0.329-0.708
				c0.125-0.242,0.259-0.486,0.403-0.729c0.142-0.242,0.273-0.484,0.391-0.718c0.286-0.488,0.518-0.905,0.693-1.25
				c0.178-0.344,0.265-0.633,0.265-0.869c0-0.152-0.034-0.287-0.101-0.404c-0.068-0.117-0.177-0.177-0.328-0.177
				c-0.101,0-0.173,0.004-0.214,0.013c-0.042,0.01-0.084,0.013-0.127,0.013c-0.042,0-0.101,0.004-0.175,0.013
				c-0.077,0.009-0.19,0.013-0.341,0.013c-0.218,0-0.403-0.034-0.555-0.102c-0.151-0.065-0.294-0.116-0.428-0.151
				c-0.067,0.118-0.218,0.37-0.453,0.756c-0.235,0.387-0.51,0.842-0.821,1.362c-0.311,0.521-0.639,1.067-0.983,1.64
				c-0.345,0.571-0.668,1.106-0.971,1.602s-0.558,0.916-0.77,1.261C14.78,19.948,14.649,20.155,14.599,20.223z"/>
			<path fill="#FFFFFF" d="M21.257,21.576c-0.508,0-0.94-0.104-1.286-0.307c-0.331-0.194-0.604-0.44-0.813-0.728
				c-0.207-0.286-0.354-0.604-0.44-0.941c-0.086-0.329-0.12-0.647-0.1-0.942c0.021-0.249,0.085-0.505,0.191-0.768
				c0.097-0.236,0.211-0.483,0.344-0.739c0.127-0.248,0.267-0.5,0.416-0.75c0.135-0.232,0.262-0.467,0.376-0.693
				c0.294-0.503,0.522-0.913,0.694-1.252c0.184-0.356,0.223-0.571,0.223-0.689c0-0.082-0.016-0.15-0.049-0.208
				c-0.045,0.023-0.091,0.023-0.122,0.027c-0.092,0.019-0.152,0.01-0.333,0.031c-0.227,0.024-0.775,0.025-1.103-0.12
				c-0.03-0.014-0.06-0.026-0.089-0.038c-0.077,0.128-0.174,0.29-0.294,0.487c-0.236,0.386-0.509,0.84-0.819,1.359l-0.983,1.641
				c-0.347,0.572-0.67,1.107-0.973,1.604l-0.77,1.261c-0.219,0.363-0.359,0.58-0.413,0.65c-0.141,0.225-0.333,0.4-0.552,0.492
				c-0.25,0.102-0.478,0.108-0.679,0.027c-0.225-0.083-0.388-0.274-0.453-0.535c-0.058-0.23-0.015-0.484,0.131-0.776l0.342-0.685
				c0.191-0.383,0.394-0.793,0.627-1.27l0.794-1.615c0.287-0.579,0.56-1.132,0.821-1.653c0.262-0.525,0.503-0.994,0.724-1.409
				c0.133-0.25,0.245-0.46,0.335-0.628c-0.08-0.076-0.14-0.137-0.181-0.183c-0.125-0.142-0.201-0.358-0.248-0.702
				c-0.043-0.283,0.013-0.629,0.174-1.051c0.144-0.378,0.335-0.748,0.57-1.1c0.236-0.354,0.505-0.665,0.8-0.924
				c0.342-0.299,0.693-0.451,1.043-0.451c0.761,0,1.144,0.346,1.33,0.636c0.226,0.356,0.36,0.728,0.401,1.105
				c0.039,0.249,0.021,0.566-0.057,0.952c-0.042,0.214-0.106,0.418-0.192,0.61c0.297,0.009,0.455-0.024,0.48-0.032
				c0.359-0.108,1.134-0.116,1.583,0.228c0.226,0.176,0.415,0.395,0.557,0.65c0.135,0.241,0.237,0.502,0.305,0.78
				c0.064,0.269,0.105,0.512,0.123,0.73c0.06,0.492-0.068,1.017-0.381,1.546c-0.271,0.457-0.608,0.968-1.003,1.517
				c-0.223,0.319-0.453,0.69-0.682,1.099c-0.194,0.347-0.279,0.649-0.255,0.899c0.027,0.175,0.075,0.289,0.112,0.351
				c0-0.015,0.105,0.026,0.376,0.026c0.212,0,0.461-0.087,0.739-0.257c0.322-0.198,0.659-0.454,1-0.763
				c0.357-0.325,0.708-0.681,1.042-1.056c0.349-0.39,0.671-0.771,0.969-1.145c0.297-0.369,0.547-0.702,0.753-1
				c0.215-0.308,0.373-0.529,0.476-0.667c0.111-0.182,0.288-0.329,0.505-0.41c0.241-0.091,0.472-0.083,0.669,0.016
				c0.151,0.076,0.344,0.239,0.403,0.589c0.041,0.255-0.038,0.539-0.24,0.877c-0.103,0.172-0.277,0.443-0.524,0.821
				c-0.25,0.377-0.549,0.796-0.9,1.259c-0.35,0.46-0.738,0.933-1.165,1.42c-0.438,0.499-0.896,0.952-1.366,1.352
				c-0.483,0.413-0.972,0.755-1.452,1.018C22.252,21.434,21.743,21.576,21.257,21.576z M20.828,12.79
				c0.294,0,0.533,0.133,0.672,0.375c0.102,0.178,0.153,0.38,0.153,0.601c0,0.304-0.101,0.647-0.31,1.052
				c-0.178,0.348-0.413,0.771-0.704,1.266c-0.108,0.22-0.243,0.47-0.389,0.72c-0.142,0.237-0.272,0.476-0.394,0.712
				c-0.121,0.234-0.226,0.459-0.314,0.675c-0.076,0.188-0.122,0.365-0.135,0.526c-0.014,0.204,0.013,0.437,0.078,0.686
				c0.061,0.244,0.167,0.471,0.314,0.675c0.146,0.201,0.334,0.369,0.574,0.51c0.437,0.257,1.204,0.312,2.019-0.132
				c0.432-0.236,0.876-0.547,1.318-0.926c0.441-0.373,0.873-0.802,1.285-1.271c0.413-0.472,0.789-0.931,1.129-1.377
				c0.338-0.446,0.628-0.854,0.869-1.216c0.238-0.362,0.408-0.627,0.508-0.793c0.147-0.245,0.137-0.339,0.137-0.339
				c-0.047,0.02-0.095,0.045-0.144,0.122c-0.117,0.162-0.271,0.374-0.477,0.673c-0.215,0.309-0.476,0.656-0.785,1.042
				c-0.306,0.384-0.639,0.776-0.998,1.176c-0.352,0.396-0.723,0.772-1.101,1.115c-0.379,0.344-0.756,0.629-1.119,0.851
				c-0.404,0.248-0.792,0.375-1.152,0.375c-0.342,0-0.823-0.04-1.041-0.388c-0.113-0.181-0.19-0.409-0.233-0.682
				c-0.044-0.437,0.075-0.896,0.35-1.387c0.241-0.432,0.485-0.825,0.727-1.169c0.384-0.535,0.708-1.024,0.967-1.463
				c0.226-0.381,0.315-0.728,0.276-1.062c-0.018-0.199-0.053-0.402-0.106-0.624c-0.05-0.206-0.126-0.402-0.226-0.58
				c-0.092-0.164-0.207-0.298-0.351-0.41c-0.114-0.087-0.266-0.131-0.463-0.131c-0.266,0-0.37,0.023-0.403,0.033
				c-0.148,0.047-0.359,0.068-0.682,0.068c-0.253,0-0.438-0.034-0.581-0.105c-0.102-0.051-0.185-0.097-0.246-0.139l-0.332-0.223
				l0.227-0.33c0.153-0.224,0.259-0.479,0.315-0.761c0.058-0.29,0.074-0.523,0.047-0.695c-0.029-0.273-0.124-0.53-0.283-0.781
				c-0.073-0.115-0.224-0.27-0.662-0.27c-0.152,0-0.328,0.085-0.522,0.255c-0.241,0.212-0.464,0.47-0.662,0.767
				c-0.202,0.303-0.367,0.62-0.489,0.943c-0.144,0.375-0.144,0.573-0.131,0.656c0.032,0.239,0.068,0.304,0.07,0.307
				c0.047,0.051,0.164,0.163,0.334,0.317l0.231,0.209l-0.148,0.273c-0.101,0.184-0.26,0.481-0.478,0.892
				c-0.217,0.409-0.455,0.873-0.714,1.391l-1.613,3.264c-0.232,0.477-0.438,0.889-0.609,1.233l-0.363,0.726
				c-0.082,0.163-0.07,0.229-0.07,0.229c0.122-0.057,0.194-0.131,0.265-0.243c0.067-0.091,0.189-0.285,0.387-0.61l0.77-1.262
				c0.302-0.495,0.626-1.029,0.97-1.601l0.981-1.638c0.311-0.521,0.586-0.977,0.822-1.365c0.233-0.382,0.382-0.63,0.449-0.748
				l0.149-0.262l0.292,0.075c0.154,0.039,0.316,0.097,0.49,0.172c0.184,0.082,0.543,0.074,0.691,0.057
				c0.093-0.01,0.167-0.015,0.22-0.015C20.601,12.796,20.69,12.79,20.828,12.79z"/>
		</g>
		<g>
			<path fill="#FFFFFF" d="M38.985,15.33c-0.235,0.336-0.538,0.753-0.907,1.248c-0.371,0.497-0.753,0.993-1.149,1.488
				c-0.395,0.495-0.78,0.949-1.16,1.361c-0.377,0.413-0.692,0.704-0.945,0.871c-0.169,0.102-0.362,0.185-0.581,0.251
				s-0.441,0.109-0.667,0.126c-0.229,0.018-0.442,0.005-0.645-0.038c-0.201-0.042-0.378-0.114-0.529-0.214
				c-0.151-0.118-0.278-0.286-0.378-0.505c-0.084-0.185-0.165-0.427-0.241-0.73c-0.075-0.302-0.105-0.681-0.088-1.136
				c-0.404,0.674-0.849,1.191-1.337,1.552c-0.488,0.362-0.95,0.627-1.387,0.796c-0.504,0.184-1.009,0.293-1.513,0.326
				c-0.236,0-0.488-0.081-0.757-0.238c-0.269-0.162-0.496-0.414-0.68-0.758c-0.186-0.343-0.303-0.79-0.354-1.337
				c-0.05-0.545,0.018-1.197,0.202-1.954c0.235-1.026,0.609-1.959,1.122-2.799c0.512-0.841,1.072-1.56,1.677-2.157
				c0.605-0.596,1.202-1.047,1.792-1.35c0.588-0.302,1.075-0.437,1.463-0.403c0.453,0.084,0.823,0.218,1.109,0.403
				c0.235,0.168,0.392,0.417,0.465,0.744c0.078,0.328-0.062,0.761-0.415,1.299c0.235-0.051,0.433-0.085,0.593-0.102
				c0.158-0.017,0.281-0.025,0.365-0.025c0.101,0,0.168,0.008,0.202,0.025c0.017,0.034,0.025,0.105,0.025,0.215
				c0,0.11-0.025,0.307-0.076,0.592c-0.05,0.287-0.126,0.673-0.227,1.16c-0.101,0.488-0.235,1.118-0.403,1.891
				c-0.034,0.151-0.064,0.289-0.088,0.417c-0.026,0.125-0.05,0.252-0.076,0.377c-0.025,0.128-0.055,0.274-0.088,0.443
				c-0.033,0.168-0.076,0.376-0.126,0.629c-0.017,0.151-0.021,0.316-0.013,0.491c0.008,0.178,0.038,0.342,0.088,0.493
				c0.051,0.152,0.13,0.273,0.239,0.364c0.11,0.095,0.266,0.14,0.468,0.14c0.168,0,0.387-0.104,0.656-0.314
				c0.269-0.212,0.555-0.48,0.857-0.808c0.303-0.328,0.618-0.688,0.945-1.085c0.329-0.394,0.636-0.776,0.921-1.147
				c0.286-0.37,0.542-0.696,0.77-0.983c0.226-0.285,0.39-0.496,0.491-0.629c0.134-0.152,0.269-0.24,0.403-0.266
				s0.235,0.013,0.303,0.113c0.067,0.102,0.079,0.253,0.037,0.454C39.308,14.825,39.187,15.062,38.985,15.33z M31.597,16.439
				c0.083-0.336,0.185-0.731,0.303-1.186c0.117-0.454,0.219-0.891,0.302-1.311c0.085-0.421,0.147-0.77,0.189-1.047
				c0.042-0.277,0.03-0.407-0.037-0.391c-0.084,0.017-0.177,0.042-0.278,0.075c-0.084,0.034-0.193,0.059-0.328,0.076
				c-0.135,0.017-0.27,0.042-0.404,0.075c0.134-0.269,0.215-0.492,0.24-0.668c0.026-0.176,0.029-0.315,0.013-0.416
				c-0.018-0.117-0.051-0.21-0.101-0.277c-0.185-0.152-0.51-0.029-0.972,0.365c-0.462,0.395-0.996,1.122-1.6,2.181
				c-0.253,0.439-0.455,0.905-0.606,1.4c-0.151,0.497-0.257,0.964-0.315,1.401c-0.06,0.437-0.072,0.817-0.038,1.146
				c0.033,0.327,0.101,0.542,0.202,0.644c0.185,0.185,0.395,0.273,0.631,0.265c0.235-0.01,0.474-0.076,0.719-0.202
				c0.243-0.126,0.486-0.289,0.732-0.491c0.242-0.202,0.461-0.412,0.655-0.632c0.192-0.218,0.353-0.421,0.478-0.604
				C31.508,16.658,31.579,16.523,31.597,16.439z"/>
			<path fill="#FFFFFF" d="M27.473,21.123H27.46c-0.305,0-0.627-0.1-0.958-0.295c-0.333-0.199-0.612-0.506-0.829-0.909
				c-0.208-0.389-0.343-0.889-0.398-1.488c-0.055-0.589,0.016-1.29,0.211-2.085c0.242-1.058,0.637-2.039,1.169-2.913
				c0.527-0.863,1.111-1.614,1.737-2.231c0.633-0.623,1.267-1.101,1.888-1.419c0.664-0.341,1.218-0.485,1.679-0.445
				c0.541,0.098,0.961,0.253,1.29,0.465c0.331,0.236,0.541,0.565,0.637,0.989c0.061,0.259,0.032,0.55-0.089,0.876
				c0.375-0.03,0.495-0.009,0.623,0.054l0.121,0.06l0.06,0.121c0.047,0.095,0.066,0.208,0.066,0.39c0,0.123-0.025,0.343-0.082,0.661
				c-0.051,0.29-0.127,0.679-0.229,1.171c-0.101,0.489-0.235,1.12-0.404,1.896c-0.033,0.149-0.062,0.282-0.085,0.406l-0.275,1.372
				c-0.025,0.18-0.029,0.321-0.022,0.475c0.007,0.142,0.029,0.271,0.069,0.387c0.027,0.084,0.065,0.145,0.116,0.187
				c0.018,0.015,0.069,0.049,0.214,0.049c0.005,0,0.12-0.002,0.412-0.231c0.252-0.198,0.526-0.456,0.811-0.764
				c0.298-0.322,0.608-0.68,0.931-1.069c0.327-0.391,0.63-0.77,0.912-1.137c0.287-0.371,0.545-0.7,0.773-0.987
				c0.223-0.282,0.384-0.488,0.484-0.621c0.215-0.242,0.425-0.375,0.647-0.417l0.15-0.015c0.231,0,0.428,0.105,0.556,0.297
				c0.13,0.196,0.162,0.442,0.096,0.755c-0.055,0.263-0.197,0.546-0.436,0.862c-0.229,0.33-0.534,0.749-0.908,1.248
				c-0.372,0.5-0.757,1.001-1.155,1.5c-0.401,0.501-0.793,0.962-1.178,1.381c-0.401,0.438-0.734,0.744-1.018,0.934
				c-0.212,0.128-0.437,0.225-0.684,0.3c-0.249,0.075-0.502,0.123-0.753,0.142c-0.271,0.022-0.517,0.005-0.753-0.044
				c-0.252-0.053-0.476-0.144-0.67-0.273c-0.225-0.173-0.392-0.394-0.518-0.668c-0.095-0.21-0.182-0.471-0.265-0.8
				c-0.008-0.032-0.016-0.066-0.024-0.102c-0.248,0.29-0.509,0.537-0.781,0.738c-0.512,0.381-1.01,0.666-1.481,0.848
				c-0.541,0.197-1.086,0.314-1.629,0.352L27.473,21.123z M31.853,10.121c-0.349,0.001-0.74,0.124-1.21,0.366
				c-0.548,0.282-1.119,0.713-1.693,1.28c-0.58,0.571-1.124,1.271-1.618,2.081c-0.488,0.8-0.849,1.701-1.074,2.682
				c-0.175,0.715-0.239,1.329-0.193,1.828c0.046,0.493,0.149,0.893,0.308,1.187c0.149,0.277,0.33,0.48,0.536,0.605
				c0.2,0.116,0.383,0.179,0.541,0.182c0.462-0.031,0.93-0.134,1.39-0.303c0.396-0.153,0.832-0.403,1.287-0.742
				c0.444-0.327,0.859-0.811,1.233-1.436l0.792-1.32l-0.056,1.538c-0.016,0.415,0.011,0.761,0.076,1.027
				c0.07,0.276,0.144,0.499,0.217,0.66c0.072,0.157,0.16,0.278,0.261,0.356c0.084,0.055,0.216,0.107,0.368,0.14
				c0.164,0.034,0.343,0.047,0.533,0.029c0.193-0.015,0.389-0.051,0.582-0.108c0.185-0.057,0.351-0.128,0.491-0.213
				c0.21-0.141,0.504-0.414,0.856-0.798c0.374-0.407,0.753-0.854,1.142-1.341c0.393-0.492,0.773-0.985,1.14-1.479
				c0.367-0.49,0.668-0.905,0.901-1.238c0.213-0.284,0.281-0.46,0.302-0.561c0.001-0.008,0.004-0.016,0.004-0.023
				c-0.019,0.02-0.042,0.039-0.064,0.065c-0.081,0.11-0.247,0.323-0.477,0.612c-0.228,0.287-0.482,0.611-0.767,0.979
				c-0.29,0.375-0.598,0.762-0.931,1.16c-0.329,0.4-0.65,0.766-0.957,1.099c-0.315,0.34-0.618,0.626-0.904,0.851
				c-0.742,0.58-1.281,0.461-1.626,0.165c-0.162-0.135-0.283-0.317-0.356-0.541c-0.062-0.184-0.099-0.387-0.108-0.6
				c-0.011-0.194-0.005-0.382,0.014-0.553l0.297-1.486c0.023-0.124,0.053-0.267,0.089-0.422c0.167-0.77,0.301-1.399,0.402-1.885
				c0.099-0.482,0.174-0.865,0.224-1.149c0.025-0.145,0.046-0.265,0.057-0.358c-0.044,0.004-0.091,0.009-0.142,0.015
				c-0.149,0.015-0.332,0.046-0.551,0.094l-0.356,0.076c0,0.092-0.011,0.195-0.03,0.314c-0.043,0.282-0.106,0.638-0.191,1.065
				c-0.085,0.426-0.188,0.87-0.308,1.333c-0.118,0.452-0.218,0.846-0.302,1.183c-0.025,0.125-0.11,0.295-0.272,0.53
				c-0.132,0.195-0.303,0.411-0.507,0.644c-0.209,0.235-0.444,0.461-0.7,0.674c-0.264,0.217-0.533,0.397-0.803,0.537
				c-0.293,0.151-0.591,0.235-0.884,0.248c-0.001,0-0.003,0-0.004,0c-0.373,0-0.674-0.133-0.923-0.381
				c-0.17-0.173-0.271-0.453-0.315-0.884c-0.037-0.359-0.024-0.776,0.039-1.239c0.061-0.453,0.171-0.944,0.33-1.464
				c0.159-0.522,0.375-1.02,0.64-1.482c0.634-1.108,1.186-1.856,1.688-2.284c0.652-0.558,1.139-0.649,1.479-0.372
				c0.156,0.19,0.215,0.344,0.242,0.527c0.022,0.139,0.019,0.315-0.014,0.531c-0.004,0.026-0.008,0.053-0.013,0.081
				c0.124-0.042,0.222-0.067,0.312-0.086h0.182l0.14,0.084l0.158-0.24c0.38-0.581,0.389-0.87,0.36-0.992
				c-0.053-0.234-0.154-0.4-0.31-0.512C32.577,10.311,32.253,10.195,31.853,10.121z M31.208,11.739
				c-0.083,0.039-0.22,0.122-0.427,0.298c-0.424,0.363-0.934,1.061-1.514,2.076c-0.238,0.41-0.429,0.854-0.571,1.319
				c-0.145,0.477-0.248,0.928-0.302,1.337c-0.054,0.403-0.066,0.758-0.036,1.056c0.033,0.324,0.091,0.406,0.093,0.408
				c0.129,0.128,0.239,0.145,0.311,0.145c0.195-0.009,0.381-0.062,0.571-0.159c0.22-0.114,0.442-0.265,0.662-0.445
				c0.224-0.187,0.431-0.384,0.611-0.588c0.179-0.203,0.33-0.393,0.447-0.565c0.134-0.194,0.156-0.263,0.156-0.266
				c0.086-0.348,0.188-0.745,0.306-1.199c0.115-0.447,0.215-0.877,0.298-1.291c0.064-0.324,0.116-0.605,0.156-0.842
				c-0.054,0.009-0.112,0.019-0.174,0.026c-0.118,0.015-0.462,0.103-0.462,0.103s-0.155-1.052-0.142-1.143
				C31.212,11.866,31.212,11.781,31.208,11.739z"/>
		</g>
		<g>
			<path fill="#FFFFFF" d="M44.685,15.861c-0.437,0.639-0.888,1.26-1.35,1.865c-0.462,0.604-0.908,1.146-1.335,1.625
				c-0.43,0.479-0.825,0.866-1.186,1.159c-0.362,0.297-0.651,0.443-0.87,0.443c-0.521,0-0.946-0.248-1.272-0.744
				c-0.33-0.495-0.582-1.111-0.756-1.841c-0.178-0.732-0.287-1.513-0.329-2.347c-0.042-0.831-0.038-1.576,0.013-2.23
				c0.067-0.657,0.143-1.182,0.227-1.577c0.083-0.394,0.189-0.702,0.315-0.92s0.277-0.378,0.453-0.479
				c0.178-0.101,0.4-0.186,0.669-0.252c0.117-0.033,0.252-0.06,0.403-0.076c0.152-0.017,0.29-0.013,0.417,0.013
				c0.125,0.025,0.222,0.079,0.29,0.164c0.066,0.084,0.076,0.21,0.025,0.377c-0.035,0.151-0.089,0.375-0.164,0.669
				c-0.076,0.294-0.155,0.626-0.24,0.996c-0.084,0.37-0.164,0.757-0.241,1.161c-0.073,0.404-0.129,0.79-0.162,1.16
				c-0.051,0.639-0.051,1.196,0,1.677c0.05,0.479,0.126,0.882,0.227,1.211c0.101,0.327,0.21,0.575,0.328,0.743
				c0.118,0.169,0.21,0.252,0.278,0.252c0.083,0,0.238-0.113,0.467-0.34c0.226-0.227,0.486-0.525,0.78-0.895
				c0.294-0.37,0.605-0.799,0.934-1.287c0.327-0.487,0.635-0.991,0.92-1.514c-0.101-0.268-0.143-0.587-0.126-0.958
				c0.05-0.57,0.177-1.087,0.378-1.549c0.202-0.463,0.432-0.854,0.694-1.174c0.26-0.319,0.529-0.567,0.807-0.744
				c0.277-0.177,0.525-0.265,0.743-0.265c0.438,0,0.71,0.113,0.82,0.34c0.108,0.227,0.147,0.458,0.114,0.693
				c-0.033,0.354-0.19,0.837-0.466,1.45c-0.279,0.615-0.635,1.283-1.072,2.005c0.083,0.034,0.176,0.066,0.277,0.101
				c0.102,0.034,0.219,0.051,0.353,0.051c0.572,0,1.088-0.066,1.551-0.202c0.462-0.134,0.866-0.294,1.211-0.479
				c0.344-0.185,0.638-0.382,0.882-0.592c0.244-0.21,0.442-0.382,0.593-0.517c0.102-0.101,0.203-0.151,0.302-0.151
				c0.101,0,0.186,0.025,0.252,0.076c0.068,0.05,0.101,0.126,0.101,0.226c0,0.102-0.05,0.211-0.151,0.328
				c-0.604,0.74-1.341,1.336-2.208,1.791c-0.865,0.454-1.878,0.681-3.038,0.681c-0.101,0-0.227-0.008-0.378-0.023
				C45.013,15.944,44.854,15.911,44.685,15.861z"/>
			<path fill="#FFFFFF" d="M39.943,21.351c-0.652,0-1.207-0.319-1.604-0.924c-0.352-0.53-0.625-1.191-0.811-1.965
				c-0.182-0.752-0.296-1.566-0.339-2.419c-0.043-0.846-0.039-1.612,0.013-2.282c0.069-0.678,0.148-1.223,0.234-1.629
				c0.093-0.438,0.211-0.777,0.357-1.035c0.165-0.282,0.367-0.491,0.602-0.626c0.213-0.121,0.465-0.217,0.77-0.293
				c0.125-0.035,0.281-0.065,0.457-0.084c0.197-0.021,0.373-0.015,0.537,0.018c0.217,0.044,0.397,0.149,0.522,0.306
				c0.106,0.133,0.208,0.368,0.095,0.739c-0.026,0.125-0.083,0.353-0.159,0.652c-0.076,0.292-0.154,0.621-0.237,0.986
				c-0.083,0.366-0.161,0.748-0.237,1.146c-0.072,0.388-0.125,0.764-0.158,1.122c-0.047,0.607-0.047,1.146,0,1.601
				c0.046,0.449,0.118,0.831,0.212,1.136c0.108,0.353,0.207,0.535,0.271,0.628c0.036-0.033,0.084-0.079,0.144-0.138
				c0.215-0.216,0.466-0.504,0.75-0.859c0.289-0.363,0.594-0.784,0.916-1.262c0.293-0.438,0.568-0.886,0.818-1.334
				c-0.076-0.276-0.107-0.589-0.092-0.934c0.056-0.628,0.194-1.191,0.411-1.691c0.216-0.496,0.47-0.922,0.751-1.266
				c0.284-0.35,0.588-0.628,0.901-0.827c0.338-0.216,0.661-0.326,0.955-0.326c0.6,0,0.995,0.189,1.177,0.563
				c0.144,0.301,0.193,0.611,0.148,0.923c-0.036,0.378-0.199,0.895-0.497,1.556c-0.226,0.498-0.505,1.033-0.829,1.597
				c0.543,0.015,1.036-0.061,1.467-0.185c0.438-0.128,0.819-0.279,1.133-0.449c0.32-0.171,0.592-0.354,0.811-0.542
				c0.242-0.209,0.438-0.38,0.588-0.513c0.306-0.307,0.768-0.314,1.056-0.097c0.168,0.125,0.26,0.318,0.26,0.543
				c0,0.198-0.083,0.395-0.247,0.586c-0.628,0.769-1.412,1.405-2.323,1.883c-0.92,0.481-2.004,0.727-3.222,0.727
				c-0.113,0-0.253-0.009-0.421-0.027c-0.086-0.01-0.176-0.022-0.267-0.042c-0.392,0.564-0.793,1.116-1.205,1.654
				c-0.461,0.604-0.917,1.159-1.354,1.648c-0.444,0.495-0.857,0.899-1.232,1.204C40.618,21.182,40.262,21.351,39.943,21.351z
				 M39.841,10.874c-0.042,0-0.085,0.002-0.132,0.007c-0.127,0.014-0.24,0.035-0.337,0.063c-0.244,0.061-0.436,0.132-0.582,0.215
				c-0.112,0.064-0.215,0.177-0.308,0.334c-0.104,0.18-0.195,0.451-0.27,0.804c-0.08,0.376-0.154,0.894-0.22,1.533
				c-0.048,0.626-0.053,1.36-0.011,2.172c0.041,0.804,0.146,1.568,0.317,2.274c0.165,0.682,0.401,1.259,0.702,1.712
				c0.256,0.389,0.555,0.568,0.943,0.568c0.031,0,0.207-0.016,0.62-0.353c0.343-0.278,0.726-0.654,1.141-1.118
				c0.424-0.474,0.867-1.012,1.315-1.602c0.458-0.6,0.905-1.215,1.338-1.848l0.163-0.239l0.277,0.083
				c0.143,0.042,0.28,0.071,0.409,0.085c0.134,0.016,0.246,0.022,0.336,0.022c1.089,0,2.049-0.214,2.854-0.636
				c0.533-0.279,1.016-0.619,1.445-1.012c-0.24,0.194-0.524,0.379-0.846,0.552c-0.367,0.196-0.788,0.365-1.286,0.511
				c-0.497,0.145-1.056,0.217-1.663,0.217c-0.177,0-0.339-0.024-0.479-0.07c-0.109-0.036-0.208-0.072-0.3-0.109l-0.432-0.174
				l0.241-0.397c0.424-0.703,0.778-1.363,1.05-1.964c0.258-0.572,0.404-1.018,0.433-1.324c0.025-0.175,0-0.328-0.076-0.485
				c-0.025-0.052-0.163-0.115-0.463-0.115c-0.14,0-0.322,0.07-0.53,0.202c-0.242,0.154-0.481,0.376-0.712,0.66
				c-0.238,0.289-0.452,0.652-0.639,1.081c-0.184,0.422-0.3,0.901-0.347,1.428c-0.013,0.297,0.021,0.567,0.103,0.783l0.064,0.17
				l-0.087,0.16c-0.284,0.518-0.6,1.038-0.938,1.545c-0.336,0.497-0.653,0.934-0.953,1.312c-0.3,0.375-0.572,0.688-0.81,0.927
				c-0.772,0.766-1.092,0.405-1.35,0.034c-0.142-0.203-0.267-0.48-0.381-0.854c-0.108-0.352-0.19-0.784-0.243-1.284
				c-0.052-0.502-0.053-1.091-0.001-1.749c0.036-0.387,0.093-0.785,0.169-1.202c0.078-0.41,0.158-0.802,0.243-1.176
				c0.086-0.374,0.166-0.71,0.243-1.007c0.073-0.287,0.127-0.506,0.161-0.654l0.022-0.108
				C39.955,10.878,39.902,10.873,39.841,10.874z"/>
		</g>
		<g>
			<path fill="#FFFFFF" d="M59.767,15.103c-0.506,0.74-1.077,1.46-1.715,2.157c-0.639,0.696-1.316,1.319-2.029,1.865
				c-0.716,0.545-1.447,0.988-2.195,1.325c-0.749,0.336-1.476,0.504-2.182,0.504c-0.369,0-0.768-0.09-1.197-0.266
				c-0.429-0.178-0.819-0.449-1.173-0.819c-0.353-0.369-0.634-0.849-0.845-1.438c-0.209-0.587-0.272-1.304-0.188-2.145
				c0.067-0.688,0.28-1.415,0.643-2.181c0.361-0.765,0.807-1.466,1.337-2.105c0.528-0.639,1.125-1.168,1.789-1.589
				c0.665-0.42,1.333-0.63,2.006-0.63c0.64,0,1.101,0.16,1.387,0.479c0.286,0.319,0.413,0.715,0.379,1.186
				c-0.05,0.521-0.198,1-0.442,1.438c-0.243,0.438-0.533,0.833-0.869,1.186c-0.336,0.354-0.693,0.671-1.071,0.958
				c-0.38,0.285-0.737,0.546-1.073,0.782c-0.369,0.251-0.722,0.491-1.059,0.717c-0.337,0.229-0.631,0.435-0.882,0.619
				c0.016,0.421,0.092,0.772,0.226,1.06c0.135,0.285,0.304,0.518,0.505,0.691c0.201,0.178,0.432,0.303,0.692,0.381
				c0.261,0.074,0.526,0.113,0.795,0.113c0.571,0,1.169-0.182,1.791-0.543c0.622-0.361,1.231-0.798,1.829-1.312
				c0.596-0.512,1.15-1.046,1.665-1.601c0.512-0.555,0.937-1.034,1.272-1.437c0.119-0.134,0.241-0.215,0.366-0.24
				c0.127-0.024,0.228-0.008,0.303,0.051c0.076,0.059,0.113,0.16,0.113,0.303C59.942,14.754,59.883,14.917,59.767,15.103z
				 M53.31,11.219c-0.202,0-0.442,0.101-0.718,0.303c-0.278,0.201-0.551,0.492-0.82,0.869c-0.269,0.379-0.521,0.841-0.757,1.388
				c-0.235,0.546-0.412,1.172-0.529,1.879c0.201-0.151,0.42-0.307,0.655-0.467c0.236-0.161,0.47-0.332,0.706-0.518
				c0.724-0.555,1.228-1.043,1.514-1.463s0.446-0.782,0.479-1.084c0.034-0.319,0-0.551-0.101-0.693
				C53.638,11.291,53.495,11.219,53.31,11.219z"/>
			<path fill="#FFFFFF" d="M51.645,21.351c-0.416,0-0.869-0.1-1.348-0.296c-0.481-0.197-0.92-0.506-1.309-0.913
				c-0.39-0.407-0.704-0.938-0.932-1.576c-0.229-0.642-0.299-1.423-0.21-2.317c0.071-0.729,0.3-1.509,0.678-2.31
				c0.375-0.793,0.843-1.53,1.391-2.19c0.551-0.667,1.185-1.229,1.882-1.671c1.461-0.924,3.177-0.887,3.899-0.081
				c0.359,0.401,0.52,0.898,0.479,1.478c-0.057,0.581-0.222,1.117-0.491,1.602c-0.259,0.463-0.57,0.89-0.929,1.264
				c-0.347,0.365-0.723,0.701-1.119,1.002c-0.383,0.29-0.745,0.552-1.083,0.79c-0.375,0.256-0.729,0.497-1.067,0.723
				c-0.255,0.172-0.486,0.333-0.693,0.482c0.028,0.274,0.086,0.509,0.176,0.698c0.111,0.235,0.248,0.425,0.406,0.562
				c0.158,0.14,0.335,0.237,0.546,0.298c0.713,0.205,1.462,0.082,2.273-0.392c0.597-0.346,1.192-0.772,1.77-1.27
				c0.58-0.5,1.129-1.026,1.632-1.569c0.506-0.549,0.926-1.021,1.26-1.422c0.182-0.208,0.379-0.333,0.592-0.375
				c0.263-0.052,0.461-0.001,0.624,0.126c0.122,0.096,0.267,0.28,0.267,0.616c0,0.222-0.078,0.451-0.238,0.704
				c-0.522,0.766-1.111,1.506-1.758,2.212c-0.655,0.714-1.354,1.356-2.081,1.912c-0.741,0.566-1.507,1.027-2.272,1.372
				C53.192,21.169,52.404,21.351,51.645,21.351z M54.016,10.177c-0.592,0-1.196,0.191-1.793,0.57
				c-0.627,0.396-1.198,0.904-1.696,1.506c-0.506,0.61-0.938,1.29-1.285,2.023c-0.339,0.718-0.543,1.409-0.606,2.05
				c-0.079,0.778-0.021,1.443,0.167,1.975c0.19,0.53,0.445,0.967,0.758,1.294c0.312,0.328,0.661,0.572,1.037,0.728
				c0.381,0.157,0.735,0.235,1.047,0.235c0.647,0,1.326-0.157,2.02-0.47c0.711-0.318,1.424-0.749,2.118-1.277
				c0.688-0.526,1.353-1.139,1.977-1.818c0.622-0.679,1.187-1.39,1.679-2.113c0.06-0.092,0.086-0.159,0.099-0.206
				c-0.018,0.022-0.048,0.049-0.079,0.086c-0.332,0.399-0.762,0.884-1.279,1.445c-0.524,0.564-1.094,1.113-1.697,1.633
				c-0.616,0.528-1.251,0.982-1.888,1.352c-0.999,0.583-1.958,0.736-2.893,0.47c-0.322-0.096-0.605-0.251-0.846-0.464
				c-0.239-0.209-0.443-0.484-0.601-0.82c-0.157-0.332-0.246-0.74-0.266-1.213L49.98,16.95l0.171-0.124
				c0.255-0.188,0.553-0.396,0.894-0.628c0.337-0.226,0.69-0.464,1.058-0.716c0.329-0.23,0.682-0.488,1.057-0.771
				c0.362-0.274,0.707-0.583,1.023-0.916c0.312-0.327,0.584-0.699,0.811-1.104c0.216-0.388,0.349-0.82,0.394-1.283
				c0.025-0.353-0.066-0.645-0.28-0.883C54.901,10.295,54.534,10.177,54.016,10.177z M49.933,16.564l0.161-0.973
				c0.122-0.733,0.31-1.397,0.557-1.969c0.245-0.569,0.514-1.061,0.797-1.46c0.299-0.419,0.597-0.733,0.913-0.961
				c0.716-0.524,1.365-0.474,1.702,0.004c0.16,0.226,0.216,0.542,0.171,0.963c-0.041,0.373-0.219,0.787-0.546,1.266
				c-0.312,0.459-0.835,0.967-1.599,1.554c-0.239,0.188-0.481,0.364-0.725,0.53c-0.23,0.156-0.443,0.31-0.641,0.456L49.933,16.564z
				 M53.31,11.614c-0.053,0-0.205,0.023-0.485,0.227c-0.242,0.175-0.487,0.437-0.731,0.78c-0.251,0.354-0.492,0.796-0.715,1.313
				c-0.107,0.25-0.202,0.52-0.285,0.808c0.17-0.12,0.34-0.247,0.509-0.379c0.69-0.53,1.17-0.991,1.431-1.375
				c0.309-0.455,0.395-0.743,0.413-0.905c0.035-0.325-0.028-0.418-0.032-0.421C53.395,11.633,53.377,11.614,53.31,11.614z"/>
		</g>
		<g>
			<path fill="#FFFFFF" d="M57.572,19.945c0.739-3.11,1.331-5.607,1.777-7.491c0.445-1.883,0.787-3.32,1.022-4.312
				c0.268-1.177,0.454-1.992,0.554-2.446c0.05-0.319,0.093-0.63,0.125-0.934c0.036-0.268,0.053-0.546,0.053-0.832
				c0-0.286-0.026-0.546-0.077-0.782c0.135-0.084,0.282-0.151,0.44-0.202c0.161-0.05,0.317-0.092,0.468-0.126
				c0.186-0.05,0.37-0.092,0.555-0.125c0.186-0.034,0.354-0.051,0.505-0.051c0.134,0,0.26,0.013,0.379,0.038
				c0.117,0.025,0.191,0.079,0.226,0.164c0.101,0.084,0.147,0.251,0.139,0.504c-0.008,0.252-0.029,0.514-0.063,0.782
				c-0.066,0.319-0.142,0.665-0.227,1.034c-0.201,0.723-0.479,1.765-0.832,3.127c-0.303,1.16-0.711,2.741-1.223,4.741
				c-0.514,2.002-1.156,4.523-1.929,7.566c-0.083,0.084-0.185,0.143-0.304,0.176c-0.117,0.034-0.226,0.05-0.327,0.05
				c-0.117,0-0.243-0.008-0.378-0.023c-0.117-0.035-0.235-0.086-0.353-0.151c-0.1-0.067-0.201-0.157-0.302-0.265
				C57.698,20.275,57.622,20.132,57.572,19.945z"/>
			<path fill="#FFFFFF" d="M58.833,21.223c-0.131,0-0.272-0.009-0.423-0.026c-0.212-0.058-0.356-0.119-0.499-0.197
				c-0.152-0.101-0.277-0.21-0.401-0.343c-0.147-0.161-0.254-0.365-0.32-0.607l-0.026-0.098l2.823-11.9
				c0.268-1.173,0.452-1.987,0.553-2.44c0.045-0.289,0.086-0.594,0.118-0.891c0.035-0.26,0.05-0.52,0.05-0.789
				c0-0.253-0.023-0.488-0.067-0.699L60.582,2.96l0.236-0.147c0.16-0.1,0.338-0.182,0.528-0.243
				c0.174-0.054,0.339-0.099,0.502-0.135c0.179-0.049,0.374-0.093,0.568-0.129c0.415-0.075,0.744-0.074,1.039-0.01
				c0.258,0.055,0.394,0.196,0.465,0.312c0.155,0.17,0.224,0.419,0.211,0.756c-0.008,0.264-0.029,0.537-0.064,0.818
				c-0.073,0.353-0.149,0.701-0.232,1.072c-0.207,0.74-0.483,1.78-0.836,3.138c-0.304,1.161-0.712,2.74-1.223,4.74
				c-0.513,2.003-1.156,4.522-1.929,7.565l-0.027,0.105l-0.077,0.078c-0.131,0.13-0.291,0.223-0.474,0.275
				C59.118,21.201,58.971,21.223,58.833,21.223z M58.577,20.424c0.087,0,0.272,0.03,0.474-0.028
				c0.023-0.006,0.044-0.015,0.062-0.024c0.758-2.983,1.39-5.461,1.897-7.435c0.511-2.001,0.92-3.582,1.224-4.743
				c0.353-1.364,0.631-2.409,0.833-3.133c0.079-0.349,0.155-0.691,0.221-1.009c0.027-0.225,0.045-0.474,0.054-0.714
				c0.005-0.161-0.019-0.213-0.019-0.213l-0.073-0.062c-0.209-0.038-0.422-0.026-0.688,0.022c-0.175,0.032-0.348,0.072-0.521,0.118
				c-0.158,0.037-0.304,0.076-0.454,0.123c-0.04,0.013-0.081,0.027-0.121,0.044c0.023,0.179,0.034,0.367,0.034,0.562
				c0,0.304-0.018,0.598-0.054,0.883c-0.032,0.301-0.076,0.619-0.127,0.945c-0.104,0.478-0.291,1.294-0.56,2.472l-2.775,11.701
				c0.029,0.078,0.066,0.141,0.109,0.188c0.08,0.086,0.159,0.156,0.231,0.205c0.062,0.032,0.156,0.072,0.247,0.1
				C58.572,20.424,58.575,20.424,58.577,20.424z"/>
		</g>
		<g>
			<path fill="#FFFFFF" d="M64.884,14.605c0.438-0.066,0.787-0.028,1.048,0.114c0.26,0.143,0.374,0.407,0.341,0.793
				c-0.017,0.219-0.106,0.427-0.265,0.618c-0.161,0.194-0.354,0.367-0.58,0.518c-0.229,0.152-0.466,0.269-0.719,0.353
				c-0.252,0.085-0.471,0.127-0.656,0.127c-0.336,0-0.634-0.076-0.895-0.228c-0.261-0.15-0.375-0.395-0.341-0.73
				c0.017-0.218,0.088-0.416,0.214-0.595c0.127-0.176,0.286-0.33,0.479-0.465s0.412-0.244,0.656-0.328
				C64.41,14.698,64.649,14.641,64.884,14.605z"/>
			<path fill="#FFFFFF" d="M64.053,17.525c-0.4,0-0.771-0.095-1.093-0.282c-0.395-0.23-0.585-0.625-0.538-1.112
				c0.023-0.28,0.119-0.547,0.285-0.783c0.154-0.214,0.349-0.401,0.577-0.562c0.223-0.154,0.476-0.281,0.754-0.377
				c0.26-0.089,0.525-0.156,0.789-0.194c0.527-0.082,0.958-0.026,1.296,0.159c0.281,0.155,0.604,0.485,0.544,1.175
				c-0.022,0.296-0.144,0.58-0.355,0.836c-0.183,0.221-0.405,0.421-0.663,0.593c-0.257,0.172-0.529,0.306-0.813,0.4
				C64.535,17.478,64.28,17.525,64.053,17.525z M65.276,14.971c-0.104,0-0.214,0.008-0.331,0.026
				c-0.218,0.032-0.436,0.085-0.649,0.159c-0.209,0.072-0.397,0.165-0.558,0.279c-0.158,0.11-0.284,0.231-0.387,0.371
				c-0.082,0.118-0.129,0.248-0.141,0.394c-0.022,0.239,0.061,0.309,0.146,0.357c0.311,0.178,0.607,0.276,1.227,0.067
				c0.222-0.073,0.426-0.174,0.626-0.306c0.192-0.13,0.358-0.278,0.493-0.44c0.107-0.129,0.165-0.259,0.176-0.396
				c0.028-0.326-0.083-0.388-0.137-0.417C65.624,15.002,65.467,14.971,65.276,14.971z"/>
		</g>
		<g>
			<path fill="#FFFFFF" d="M79.917,19.188c0-0.352,0.038-0.757,0.114-1.21s0.172-0.921,0.29-1.4c0.117-0.479,0.234-0.945,0.353-1.4
				c0.119-0.454,0.219-0.856,0.303-1.21c0.101-0.437,0.093-0.772-0.025-1.008c-0.117-0.236-0.319-0.354-0.604-0.354
				c-0.135,0-0.4,0.118-0.795,0.354c-0.396,0.236-0.824,0.642-1.286,1.223c-0.463,0.58-0.916,1.363-1.361,2.344
				c-0.447,0.985-0.795,2.232-1.047,3.746c-0.32,0.168-0.622,0.277-0.908,0.328c-0.151,0.034-0.285,0.059-0.403,0.075
				c-0.336,0.018-0.555-0.038-0.655-0.165c-0.102-0.124-0.085-0.432,0.049-0.919c0.068-0.234,0.191-0.614,0.367-1.135
				c0.178-0.521,0.349-1.088,0.516-1.702c0.17-0.614,0.316-1.228,0.441-1.842c0.128-0.613,0.191-1.146,0.191-1.602
				c0-0.318-0.056-0.537-0.165-0.655c-0.11-0.117-0.266-0.177-0.468-0.177c-0.15,0-0.402,0.085-0.755,0.252
				c-0.354,0.168-0.749,0.496-1.187,0.984c-0.437,0.489-0.869,1.163-1.3,2.031c-0.426,0.866-0.793,1.987-1.095,3.365v-0.051
				c-0.035,0.136-0.067,0.271-0.102,0.404c-0.034,0.117-0.06,0.244-0.076,0.379c-0.016,0.135-0.041,0.26-0.076,0.378l-1.26,0.554
				c-0.085,0.034-0.188,0.061-0.316,0.076c-0.125,0.017-0.243-0.004-0.353-0.062c-0.109-0.06-0.188-0.182-0.238-0.366
				c-0.051-0.185-0.035-0.462,0.05-0.832l1.589-6.583c0.051-0.218,0.092-0.429,0.127-0.631c0.032-0.185,0.053-0.365,0.062-0.542
				c0.008-0.177-0.004-0.324-0.036-0.441c0.284-0.135,0.536-0.235,0.755-0.303c0.218-0.066,0.396-0.117,0.53-0.151
				c0.168-0.051,0.311-0.076,0.429-0.076c0.538,0,0.715,0.463,0.529,1.387c-0.066,0.27-0.168,0.664-0.303,1.185
				c0.319-0.403,0.659-0.785,1.022-1.146c0.36-0.362,0.727-0.685,1.096-0.971c0.37-0.286,0.743-0.513,1.123-0.681
				c0.378-0.168,0.751-0.252,1.122-0.252c0.285,0,0.525,0.084,0.718,0.252c0.193,0.167,0.345,0.391,0.454,0.668
				c0.108,0.278,0.173,0.605,0.188,0.984c0.018,0.377,0,0.769-0.051,1.173c0.271-0.353,0.568-0.71,0.897-1.073
				c0.327-0.36,0.671-0.684,1.032-0.97c0.362-0.286,0.736-0.521,1.124-0.706c0.386-0.185,0.772-0.278,1.159-0.278
				c0.455,0,0.803,0.135,1.046,0.403c0.244,0.27,0.411,0.614,0.505,1.035c0.093,0.42,0.118,0.874,0.077,1.361
				c-0.044,0.489-0.114,0.958-0.216,1.412l-0.858,3.404c-0.184,0.841-0.007,1.261,0.531,1.261c0.42,0,0.881-0.201,1.387-0.604
				c0.504-0.403,0.994-0.883,1.476-1.437c0.479-0.555,0.928-1.127,1.349-1.715c0.42-0.59,0.773-1.06,1.059-1.414
				c0.103-0.116,0.206-0.185,0.316-0.201c0.108-0.017,0.201,0.003,0.276,0.062c0.076,0.06,0.118,0.156,0.127,0.291
				c0.008,0.134-0.038,0.302-0.14,0.503c-0.335,0.589-0.746,1.239-1.235,1.955c-0.487,0.715-1.021,1.383-1.601,2.004
				c-0.58,0.623-1.198,1.145-1.854,1.565c-0.655,0.419-1.338,0.63-2.043,0.63c-0.235,0-0.468-0.026-0.693-0.077
				c-0.229-0.051-0.438-0.141-0.631-0.276c-0.194-0.136-0.349-0.314-0.467-0.543C79.977,19.831,79.917,19.542,79.917,19.188z"/>
			<path fill="#FFFFFF" d="M70.09,20.718l-0.958,0.422c-0.13,0.052-0.269,0.086-0.426,0.106l-0.129,0.008
				c-0.163,0-0.317-0.038-0.459-0.113c-0.211-0.116-0.355-0.321-0.435-0.612c-0.069-0.252-0.054-0.586,0.045-1.024l1.59-6.587
				c0.049-0.207,0.088-0.409,0.122-0.603c0.03-0.173,0.049-0.337,0.057-0.496c0.008-0.167-0.008-0.263-0.022-0.312l-0.094-0.324
				l0.306-0.145c0.305-0.144,0.574-0.25,0.81-0.322c0.226-0.069,0.409-0.123,0.549-0.157c0.665-0.203,1.103,0.03,1.274,0.24
				c0.217,0.264,0.29,0.662,0.223,1.21c0.363-0.365,0.744-0.703,1.131-1.001c0.396-0.307,0.802-0.552,1.206-0.73
				c0.811-0.361,1.697-0.425,2.258,0.063c0.241,0.209,0.431,0.485,0.563,0.822c0.125,0.319,0.198,0.693,0.217,1.112
				c0.001,0.008,0.001,0.017,0.001,0.025c0.051-0.058,0.103-0.116,0.156-0.174c0.339-0.375,0.702-0.716,1.08-1.015
				c0.381-0.302,0.784-0.555,1.197-0.753c1.002-0.478,2.098-0.414,2.669,0.218c0.291,0.319,0.493,0.728,0.6,1.215
				c0.101,0.456,0.129,0.954,0.084,1.481c-0.044,0.502-0.118,0.994-0.223,1.464l-0.86,3.416c-0.123,0.562-0.019,0.714-0.006,0.729
				c0.026,0.033,0.107,0.037,0.152,0.037c0.326,0,0.71-0.174,1.14-0.518c0.481-0.385,0.96-0.853,1.424-1.387
				c0.465-0.538,0.91-1.106,1.325-1.686c0.427-0.597,0.785-1.074,1.072-1.432c0.176-0.202,0.363-0.314,0.567-0.345l0.127-0.01
				c0.169,0,0.326,0.054,0.453,0.155c0.113,0.087,0.256,0.261,0.276,0.575c0.011,0.211-0.047,0.442-0.182,0.708
				c-0.347,0.61-0.756,1.258-1.262,2c-0.492,0.721-1.043,1.41-1.639,2.051c-0.599,0.642-1.248,1.191-1.929,1.628
				c-0.964,0.615-2.03,0.836-3.037,0.606c-0.279-0.062-0.539-0.176-0.771-0.338c-0.247-0.175-0.444-0.405-0.591-0.687
				c-0.146-0.281-0.222-0.635-0.222-1.051c0-0.375,0.041-0.805,0.119-1.275c0.078-0.463,0.177-0.939,0.296-1.43
				c0.119-0.479,0.236-0.949,0.355-1.405c0.118-0.45,0.216-0.852,0.301-1.202c0.103-0.449,0.048-0.657,0.005-0.74
				c-0.034-0.07-0.08-0.135-0.25-0.135c-0.001,0.002-0.14,0.028-0.593,0.297c-0.353,0.21-0.748,0.59-1.179,1.13
				c-0.439,0.55-0.88,1.311-1.311,2.261c-0.429,0.947-0.771,2.174-1.017,3.647l-0.031,0.194l-0.175,0.091
				c-0.357,0.188-0.701,0.312-1.023,0.368c-0.146,0.033-0.289,0.06-0.415,0.077l-0.169,0.008c-0.404,0-0.684-0.103-0.854-0.315
				c-0.194-0.244-0.201-0.624-0.021-1.272c0.068-0.243,0.193-0.629,0.371-1.157c0.177-0.516,0.346-1.073,0.512-1.679
				c0.166-0.606,0.312-1.21,0.435-1.816c0.121-0.583,0.182-1.095,0.182-1.523c0-0.307-0.059-0.386-0.06-0.387
				c-0.01-0.009-0.047-0.048-0.176-0.048c-0.013,0-0.147,0.006-0.585,0.213c-0.304,0.145-0.661,0.444-1.062,0.891
				c-0.411,0.458-0.826,1.112-1.239,1.942c-0.412,0.837-0.771,1.939-1.063,3.275L70.09,20.718z M70.29,11.634
				c0.003,0.069,0.003,0.142-0.001,0.22c-0.011,0.195-0.032,0.394-0.069,0.596c-0.034,0.204-0.077,0.422-0.13,0.649l-1.59,6.584
				c-0.093,0.409-0.067,0.58-0.053,0.635c0.027,0.102,0.055,0.128,0.055,0.13l0.075,0.409l0.03-0.398
				c0.111-0.014,0.18-0.035,0.217-0.051l1.07-0.472c0.008-0.044,0.015-0.092,0.021-0.141c0.021-0.158,0.051-0.304,0.089-0.44
				l0.858-3.427l0.003,0.472c0.114-0.298,0.234-0.575,0.361-0.83c0.45-0.908,0.896-1.601,1.36-2.12
				c0.478-0.532,0.906-0.884,1.31-1.077c0.424-0.201,0.708-0.291,0.926-0.291c0.391,0,0.626,0.164,0.756,0.301
				c0.184,0.199,0.272,0.501,0.272,0.927c0,0.483-0.068,1.048-0.199,1.682c-0.125,0.621-0.276,1.243-0.446,1.866
				c-0.17,0.622-0.345,1.196-0.523,1.725c-0.174,0.512-0.294,0.887-0.36,1.118c-0.096,0.344-0.102,0.508-0.1,0.573
				c0.022-0.007,0.09,0.007,0.213,0.007c0.162-0.014,0.288-0.036,0.429-0.068c0.207-0.037,0.416-0.105,0.638-0.207
				c0.256-1.454,0.604-2.679,1.044-3.644c0.457-1.011,0.931-1.828,1.412-2.429c0.495-0.622,0.951-1.052,1.392-1.316
				c0.604-0.36,0.842-0.409,0.998-0.409c0.435,0,0.774,0.204,0.959,0.572c0.161,0.323,0.179,0.74,0.058,1.276
				c-0.086,0.357-0.188,0.764-0.306,1.22c-0.118,0.452-0.235,0.918-0.353,1.394c-0.114,0.47-0.21,0.928-0.283,1.372
				c-0.072,0.429-0.108,0.814-0.108,1.146c0,0.287,0.045,0.518,0.131,0.686c0.089,0.171,0.2,0.302,0.343,0.402
				c0.148,0.104,0.31,0.175,0.489,0.214c0.814,0.186,1.655,0,2.438-0.501c0.626-0.4,1.223-0.906,1.777-1.5
				c0.568-0.611,1.096-1.271,1.562-1.958c0.494-0.724,0.894-1.354,1.22-1.927c0.05-0.102,0.073-0.174,0.082-0.221
				c-0.007,0.006-0.013,0.014-0.02,0.02c-0.272,0.339-0.621,0.803-1.035,1.384c-0.428,0.6-0.89,1.187-1.371,1.744
				c-0.495,0.571-1.008,1.071-1.527,1.487c-0.573,0.459-1.124,0.691-1.635,0.691c-0.414,0-0.647-0.182-0.77-0.334
				c-0.24-0.3-0.29-0.761-0.147-1.408l0.86-3.415c0.094-0.426,0.164-0.884,0.205-1.351c0.037-0.445,0.014-0.863-0.069-1.241
				c-0.077-0.351-0.217-0.638-0.411-0.854c-0.327-0.36-1.062-0.358-1.742-0.035c-0.359,0.172-0.712,0.395-1.048,0.66
				c-0.343,0.271-0.676,0.583-0.984,0.925c-0.322,0.354-0.611,0.703-0.875,1.047l-0.89,1.165l0.183-1.455
				c0.047-0.383,0.063-0.755,0.047-1.104c-0.015-0.333-0.069-0.621-0.162-0.858c-0.086-0.217-0.201-0.39-0.346-0.514
				c-0.32-0.28-0.897-0.17-1.419,0.062c-0.346,0.153-0.696,0.365-1.042,0.632c-0.358,0.279-0.716,0.593-1.059,0.937
				c-0.344,0.345-0.679,0.718-0.991,1.114l-1.16,1.461l0.466-1.807c0.135-0.519,0.236-0.913,0.302-1.181
				c0.131-0.648,0.017-0.829-0.009-0.858c-0.011-0.013,0.027-0.123-0.451,0.021c-0.146,0.038-0.316,0.086-0.527,0.151
				C70.595,11.512,70.449,11.567,70.29,11.634z"/>
		</g>
		<g>
			<path fill="#FFFFFF" d="M107.733,15.103c-0.505,0.74-1.076,1.46-1.715,2.157c-0.638,0.696-1.315,1.319-2.03,1.865
				c-0.715,0.545-1.444,0.988-2.193,1.325c-0.749,0.336-1.476,0.504-2.182,0.504c-0.369,0-0.769-0.09-1.198-0.266
				c-0.429-0.178-0.819-0.449-1.173-0.819c-0.353-0.369-0.635-0.849-0.845-1.438c-0.209-0.587-0.272-1.304-0.189-2.145
				c0.068-0.688,0.282-1.415,0.644-2.181c0.36-0.765,0.806-1.466,1.337-2.105c0.529-0.639,1.126-1.168,1.79-1.589
				c0.664-0.42,1.333-0.63,2.006-0.63c0.639,0,1.101,0.16,1.387,0.479c0.285,0.319,0.412,0.715,0.379,1.186
				c-0.051,0.521-0.199,1-0.442,1.438c-0.244,0.438-0.534,0.833-0.868,1.186c-0.337,0.354-0.695,0.671-1.074,0.958
				c-0.379,0.285-0.735,0.546-1.071,0.782c-0.369,0.251-0.722,0.491-1.058,0.717c-0.338,0.229-0.632,0.435-0.884,0.619
				c0.016,0.421,0.093,0.772,0.228,1.06c0.135,0.285,0.303,0.518,0.504,0.691c0.201,0.178,0.433,0.303,0.692,0.381
				c0.262,0.074,0.525,0.113,0.795,0.113c0.572,0,1.169-0.182,1.79-0.543c0.623-0.361,1.231-0.798,1.829-1.312
				c0.597-0.512,1.151-1.046,1.664-1.601c0.514-0.555,0.938-1.034,1.273-1.437c0.119-0.134,0.239-0.215,0.365-0.24
				c0.127-0.024,0.229-0.008,0.304,0.051c0.076,0.059,0.113,0.16,0.113,0.303C107.91,14.754,107.851,14.917,107.733,15.103z
				 M101.277,11.219c-0.202,0-0.442,0.101-0.717,0.303c-0.279,0.201-0.552,0.492-0.821,0.869c-0.27,0.379-0.521,0.841-0.757,1.388
				c-0.234,0.546-0.411,1.172-0.529,1.879c0.201-0.151,0.42-0.307,0.654-0.467c0.237-0.161,0.472-0.332,0.708-0.518
				c0.724-0.555,1.228-1.043,1.513-1.463c0.286-0.42,0.446-0.782,0.479-1.084c0.035-0.319,0-0.551-0.1-0.693
				C101.605,11.291,101.463,11.219,101.277,11.219z"/>
			<path fill="#FFFFFF" d="M99.613,21.351c-0.418,0-0.87-0.1-1.349-0.296c-0.481-0.197-0.92-0.506-1.309-0.913
				c-0.392-0.408-0.705-0.939-0.932-1.577c-0.229-0.64-0.298-1.419-0.21-2.316c0.071-0.727,0.299-1.505,0.678-2.31
				c0.374-0.792,0.844-1.529,1.393-2.19c0.552-0.667,1.186-1.229,1.882-1.671c0.728-0.459,1.474-0.691,2.218-0.691
				c0.753,0,1.317,0.205,1.682,0.611c0.358,0.402,0.521,0.899,0.479,1.478c-0.057,0.581-0.222,1.117-0.491,1.602
				c-0.257,0.461-0.569,0.888-0.928,1.264c-0.348,0.366-0.726,0.702-1.121,1.003c-0.382,0.289-0.743,0.551-1.083,0.789
				c-0.375,0.256-0.729,0.497-1.065,0.723c-0.256,0.172-0.486,0.334-0.693,0.482c0.026,0.272,0.085,0.508,0.176,0.699
				c0.11,0.234,0.245,0.424,0.405,0.562c0.157,0.14,0.337,0.237,0.546,0.298c0.713,0.203,1.462,0.081,2.273-0.392
				c0.598-0.347,1.192-0.772,1.77-1.27c0.584-0.501,1.133-1.029,1.631-1.569c0.507-0.549,0.927-1.021,1.26-1.422
				c0.185-0.208,0.38-0.333,0.593-0.375c0.267-0.053,0.461-0.001,0.625,0.128c0.121,0.094,0.267,0.278,0.267,0.614
				c0,0.219-0.082,0.455-0.24,0.704c-0.521,0.766-1.11,1.506-1.757,2.212c-0.652,0.713-1.353,1.355-2.081,1.912
				c-0.741,0.566-1.506,1.027-2.272,1.372C101.16,21.169,100.372,21.351,99.613,21.351z M101.984,10.177
				c-0.594,0-1.195,0.191-1.793,0.57c-0.628,0.396-1.197,0.903-1.697,1.506c-0.508,0.611-0.94,1.291-1.286,2.023
				c-0.34,0.722-0.543,1.412-0.604,2.049c-0.079,0.779-0.022,1.444,0.166,1.973c0.19,0.532,0.445,0.97,0.758,1.297
				s0.661,0.571,1.038,0.728c0.382,0.157,0.734,0.235,1.047,0.235c0.646,0,1.326-0.157,2.019-0.47
				c0.711-0.319,1.425-0.749,2.118-1.277c0.689-0.528,1.354-1.141,1.977-1.818c0.622-0.679,1.186-1.39,1.68-2.113
				c0.06-0.092,0.086-0.159,0.098-0.206c-0.017,0.022-0.046,0.049-0.078,0.086c-0.333,0.399-0.762,0.884-1.279,1.445
				c-0.521,0.562-1.091,1.111-1.697,1.632c-0.615,0.529-1.25,0.983-1.89,1.353c-0.996,0.583-1.958,0.735-2.891,0.47
				c-0.323-0.096-0.605-0.251-0.848-0.464c-0.239-0.209-0.442-0.484-0.601-0.82c-0.156-0.335-0.246-0.743-0.264-1.213l-0.009-0.211
				l0.171-0.124c0.256-0.188,0.553-0.396,0.894-0.628c0.338-0.226,0.689-0.464,1.058-0.716c0.329-0.23,0.683-0.488,1.057-0.771
				c0.362-0.274,0.706-0.582,1.025-0.916c0.311-0.328,0.584-0.7,0.81-1.104c0.216-0.388,0.349-0.82,0.392-1.283
				c0.025-0.352-0.064-0.645-0.277-0.883C102.869,10.295,102.503,10.177,101.984,10.177z M97.899,16.564l0.163-0.974
				c0.123-0.731,0.31-1.394,0.557-1.968c0.244-0.57,0.513-1.061,0.798-1.461c0.297-0.418,0.596-0.732,0.91-0.961
				c0.721-0.525,1.366-0.473,1.702,0.004c0.161,0.228,0.216,0.542,0.172,0.963c-0.04,0.371-0.219,0.785-0.545,1.265
				c-0.314,0.461-0.837,0.97-1.601,1.555c-0.239,0.188-0.481,0.365-0.725,0.531c-0.23,0.155-0.443,0.309-0.641,0.455L97.899,16.564z
				 M101.768,10.925c-0.063,0-0.251,0.027-0.592,0.276c-0.296,0.214-0.595,0.534-0.893,0.952c-0.308,0.432-0.601,0.971-0.874,1.604
				c-0.131,0.304-0.246,0.633-0.348,0.984c0.208-0.146,0.414-0.301,0.623-0.465c0.839-0.643,1.424-1.207,1.743-1.676
				c0.379-0.555,0.482-0.907,0.505-1.103c0.042-0.398-0.035-0.513-0.037-0.517C101.87,10.948,101.848,10.925,101.768,10.925z"/>
		</g>
		<g>
			<path fill="#FFFFFF" d="M115.224,13.967c0.068-0.1,0.155-0.163,0.265-0.188c0.109-0.026,0.198-0.013,0.265,0.037
				c0.067,0.051,0.104,0.135,0.114,0.252c0.008,0.118-0.038,0.277-0.139,0.479c-0.337,0.64-0.778,1.329-1.324,2.068
				s-1.123,1.434-1.728,2.08c-0.605,0.648-1.193,1.183-1.766,1.603c-0.571,0.418-1.051,0.629-1.438,0.629
				c-0.555,0-1.017-0.109-1.387-0.327c-0.37-0.219-0.661-0.487-0.87-0.806c-0.21-0.32-0.357-0.67-0.44-1.049
				c-0.085-0.377-0.11-0.728-0.076-1.046c0.017-0.269,0.076-0.753,0.175-1.449c0.104-0.698,0.237-1.506,0.404-2.422
				c0.17-0.917,0.357-1.9,0.568-2.951c0.209-1.05,0.433-2.063,0.667-3.039c-0.285,0.034-0.57,0.067-0.856,0.101
				c-0.285,0.034-0.546,0.05-0.783,0.05c-0.536,0-1.045-0.062-1.524-0.189c-0.479-0.125-0.836-0.248-1.072-0.366
				c-0.134-0.067-0.192-0.164-0.177-0.291c0.018-0.126,0.068-0.252,0.152-0.377c0.084-0.126,0.188-0.235,0.315-0.328
				c0.125-0.092,0.238-0.139,0.341-0.139c0.318,0.034,0.663,0.063,1.032,0.088c0.371,0.025,0.774,0.03,1.211,0.013
				c0.32-0.016,0.627-0.041,0.921-0.075c0.294-0.034,0.585-0.076,0.87-0.126c0.218-0.807,0.433-1.509,0.643-2.105
				s0.398-1.012,0.567-1.248c0.05-0.085,0.164-0.156,0.34-0.215c0.178-0.059,0.367-0.101,0.568-0.126
				c0.202-0.025,0.396-0.025,0.579,0c0.187,0.026,0.321,0.088,0.404,0.19c0.085,0.134,0.117,0.479,0.102,1.034
				c-0.017,0.554-0.109,1.26-0.278,2.118c0.706,0,1.333,0.038,1.88,0.113c0.545,0.076,1.013,0.16,1.398,0.251
				c0.388,0.093,0.699,0.187,0.934,0.278c0.235,0.093,0.412,0.156,0.529,0.189c0.119,0.034,0.181,0.118,0.189,0.252
				c0.008,0.135-0.017,0.273-0.075,0.417c-0.06,0.143-0.156,0.265-0.291,0.366c-0.134,0.101-0.285,0.134-0.452,0.101
				c-0.17-0.017-0.357-0.05-0.568-0.101c-0.21-0.05-0.463-0.092-0.755-0.126c-0.297-0.034-0.645-0.067-1.049-0.101
				c-0.404-0.034-0.873-0.051-1.412-0.051c-0.101,0-0.214,0.005-0.342,0.013c-0.125,0.009-0.255,0.013-0.389,0.013
				c-0.068,0.269-0.133,0.534-0.188,0.794c-0.061,0.261-0.14,0.534-0.24,0.819c-0.219,0.673-0.472,1.404-0.758,2.194
				c-0.251,0.689-0.554,1.479-0.907,2.371c-0.354,0.891-0.748,1.84-1.185,2.849c-0.102,0.724-0.089,1.274,0.036,1.651
				c0.128,0.379,0.282,0.651,0.467,0.82c0.219,0.185,0.488,0.286,0.808,0.303c0.252,0.034,0.559-0.055,0.921-0.266
				c0.361-0.209,0.735-0.49,1.123-0.845c0.386-0.353,0.776-0.739,1.171-1.159c0.396-0.42,0.762-0.832,1.098-1.235
				c0.337-0.404,0.631-0.77,0.882-1.097C114.945,14.334,115.123,14.103,115.224,13.967z"/>
			<path fill="#FFFFFF" d="M109.474,21.324c-0.621,0-1.155-0.128-1.587-0.383c-0.424-0.248-0.759-0.562-1.002-0.93
				c-0.234-0.359-0.401-0.756-0.496-1.18c-0.093-0.418-0.121-0.813-0.082-1.174c0.016-0.257,0.074-0.752,0.178-1.464
				c0.102-0.702,0.236-1.515,0.406-2.437c0.169-0.919,0.357-1.904,0.568-2.958c0.171-0.858,0.351-1.692,0.541-2.5l-0.295,0.034
				c-0.992,0.117-1.722,0.044-2.455-0.149c-0.513-0.135-0.888-0.264-1.148-0.396c-0.284-0.141-0.432-0.4-0.393-0.695
				c0.024-0.185,0.097-0.368,0.216-0.546c0.109-0.166,0.248-0.31,0.411-0.428c0.196-0.144,0.384-0.214,0.574-0.214
				c0.355,0.035,0.696,0.063,1.06,0.089c0.356,0.024,0.747,0.03,1.169,0.012c0.306-0.015,0.604-0.04,0.89-0.074
				c0.202-0.022,0.403-0.05,0.601-0.081c0.196-0.709,0.392-1.343,0.585-1.889c0.223-0.636,0.426-1.076,0.619-1.346
				c0.082-0.142,0.264-0.269,0.535-0.36c0.202-0.067,0.416-0.115,0.645-0.145c0.239-0.028,0.468-0.028,0.684,0
				c0.286,0.041,0.505,0.151,0.655,0.329c0.129,0.201,0.216,0.462,0.19,1.3c-0.014,0.467-0.08,1.043-0.196,1.716
				c0.532,0.014,1.021,0.051,1.457,0.111c0.553,0.077,1.036,0.164,1.437,0.259c0.399,0.095,0.731,0.194,0.986,0.294
				c0.219,0.085,0.384,0.146,0.493,0.177c0.28,0.081,0.458,0.308,0.476,0.607c0.013,0.194-0.022,0.393-0.103,0.591
				c-0.09,0.212-0.229,0.39-0.42,0.533c-0.223,0.169-0.481,0.233-0.77,0.173c-0.145-0.012-0.352-0.049-0.582-0.104
				c-0.197-0.046-0.434-0.085-0.71-0.118c-0.29-0.033-0.635-0.065-1.032-0.099c-0.395-0.033-0.855-0.049-1.381-0.049
				c-0.093,0-0.197,0.004-0.316,0.011c-0.033,0.003-0.067,0.005-0.103,0.007c-0.04,0.165-0.078,0.329-0.114,0.49
				c-0.063,0.279-0.146,0.566-0.254,0.867c-0.217,0.667-0.47,1.402-0.756,2.197c-0.254,0.694-0.559,1.487-0.913,2.383
				c-0.35,0.88-0.738,1.815-1.169,2.811c-0.104,0.783-0.042,1.204,0.028,1.418c0.132,0.39,0.268,0.569,0.357,0.651
				c0.142,0.121,0.329,0.189,0.561,0.201c0.199,0.006,0.393-0.03,0.703-0.211c0.336-0.196,0.689-0.464,1.054-0.796
				c0.379-0.346,0.763-0.727,1.149-1.139c0.39-0.413,0.751-0.819,1.081-1.217c0.333-0.4,0.625-0.761,0.874-1.084
				c0.252-0.327,0.426-0.557,0.526-0.69c0.111-0.168,0.286-0.291,0.494-0.338c0.218-0.051,0.429-0.015,0.589,0.106
				c0.111,0.084,0.248,0.244,0.273,0.537c0.013,0.198-0.047,0.42-0.181,0.688c-0.344,0.658-0.801,1.372-1.358,2.128
				c-0.557,0.752-1.146,1.464-1.758,2.115c-0.619,0.662-1.231,1.219-1.819,1.651C110.496,21.094,109.948,21.324,109.474,21.324z
				 M109.034,7.379L108.9,7.933c-0.235,0.97-0.456,1.978-0.664,3.023c-0.211,1.049-0.399,2.03-0.566,2.945
				c-0.167,0.911-0.302,1.712-0.402,2.408c-0.098,0.679-0.156,1.152-0.172,1.416c-0.031,0.293-0.009,0.603,0.066,0.936
				c0.074,0.33,0.203,0.639,0.386,0.917c0.174,0.266,0.424,0.495,0.741,0.683c0.307,0.181,0.706,0.272,1.185,0.272
				c0.204,0,0.578-0.097,1.204-0.553c0.548-0.403,1.124-0.926,1.71-1.555c0.588-0.629,1.16-1.316,1.699-2.045
				c0.477-0.645,0.873-1.256,1.184-1.818c-0.078,0.102-0.165,0.214-0.263,0.342c-0.254,0.33-0.552,0.7-0.894,1.107
				c-0.34,0.412-0.71,0.829-1.113,1.255c-0.399,0.428-0.8,0.821-1.191,1.181c-0.405,0.369-0.806,0.671-1.19,0.895
				c-0.377,0.22-0.708,0.326-1.013,0.326l0,0c-0.055,0-0.108-0.004-0.16-0.011c-0.374-0.019-0.724-0.151-1.01-0.393
				c-0.248-0.225-0.436-0.548-0.587-0.996c-0.146-0.444-0.165-1.044-0.054-1.832l0.028-0.103c0.436-1.006,0.829-1.952,1.181-2.838
				c0.352-0.888,0.652-1.674,0.903-2.361c0.284-0.785,0.535-1.512,0.751-2.181c0.101-0.281,0.177-0.538,0.232-0.785
				c0.059-0.261,0.122-0.529,0.19-0.803l0.075-0.3h0.31c0.124,0,0.246-0.002,0.361-0.011c0.14-0.009,0.261-0.014,0.369-0.014
				c0.551,0,1.032,0.018,1.445,0.052c0.408,0.034,0.761,0.067,1.059,0.102c0.312,0.037,0.58,0.082,0.803,0.134
				c0.191,0.046,0.363,0.078,0.516,0.092l0.177-0.023c0.077-0.058,0.131-0.125,0.164-0.202c0.021-0.058,0.036-0.112,0.043-0.165
				c-0.118-0.038-0.275-0.095-0.468-0.171c-0.22-0.086-0.516-0.174-0.879-0.261c-0.377-0.089-0.835-0.172-1.361-0.246
				c-0.528-0.072-1.141-0.109-1.826-0.109h-0.481l0.094-0.472c0.163-0.833,0.254-1.525,0.27-2.053
				c0.016-0.539-0.021-0.738-0.037-0.8c-0.013,0.005-0.052-0.009-0.125-0.02c-0.151-0.02-0.312-0.02-0.478,0
				c-0.174,0.022-0.338,0.059-0.492,0.109c-0.109,0.037-0.143,0.066-0.144,0.066c-0.1,0.144-0.271,0.458-0.516,1.152
				c-0.206,0.589-0.419,1.287-0.635,2.078l-0.065,0.242l-0.246,0.044c-0.294,0.052-0.593,0.095-0.895,0.13s-0.616,0.061-0.946,0.077
				c-0.465,0.017-0.875,0.013-1.257-0.013c-0.367-0.025-0.712-0.053-1.03-0.087c0.015,0.004-0.021,0.017-0.081,0.062
				c-0.09,0.066-0.162,0.14-0.221,0.229c-0.029,0.043-0.052,0.084-0.066,0.124c0.218,0.099,0.529,0.201,0.934,0.308
				c0.641,0.168,1.281,0.231,2.16,0.128L109.034,7.379z"/>
		</g>
		<g>
			<path fill="#FFFFFF" d="M98.125,15.103c-0.504,0.74-1.076,1.46-1.716,2.157c-0.638,0.696-1.315,1.319-2.028,1.865
				c-0.717,0.545-1.447,0.988-2.196,1.325c-0.747,0.336-1.475,0.504-2.181,0.504c-0.369,0-0.769-0.09-1.198-0.266
				c-0.427-0.178-0.819-0.449-1.172-0.819c-0.354-0.369-0.636-0.849-0.846-1.438c-0.21-0.587-0.272-1.304-0.188-2.145
				c0.065-0.688,0.281-1.415,0.642-2.181c0.361-0.765,0.808-1.466,1.337-2.105c0.53-0.639,1.126-1.168,1.79-1.589
				c0.664-0.42,1.333-0.63,2.006-0.63c0.639,0,1.102,0.16,1.388,0.479c0.284,0.319,0.41,0.715,0.378,1.186
				c-0.05,0.521-0.199,1-0.442,1.438c-0.243,0.438-0.533,0.833-0.869,1.186c-0.337,0.354-0.694,0.671-1.072,0.958
				c-0.378,0.285-0.735,0.546-1.072,0.782c-0.369,0.251-0.722,0.491-1.059,0.717c-0.337,0.229-0.63,0.435-0.883,0.619
				c0.016,0.421,0.092,0.772,0.228,1.06c0.135,0.285,0.302,0.518,0.504,0.691c0.202,0.178,0.433,0.303,0.692,0.381
				c0.262,0.074,0.527,0.113,0.796,0.113c0.572,0,1.169-0.182,1.79-0.543c0.623-0.361,1.232-0.798,1.83-1.312
				c0.594-0.512,1.149-1.046,1.662-1.601c0.514-0.555,0.938-1.034,1.274-1.437c0.117-0.134,0.239-0.215,0.365-0.24
				c0.126-0.024,0.228-0.008,0.303,0.051c0.076,0.059,0.114,0.16,0.114,0.303C98.302,14.754,98.242,14.917,98.125,15.103z
				 M91.669,11.219c-0.202,0-0.441,0.101-0.718,0.303c-0.279,0.201-0.553,0.492-0.821,0.869c-0.269,0.379-0.521,0.841-0.756,1.388
				c-0.236,0.546-0.413,1.172-0.53,1.879c0.202-0.151,0.421-0.307,0.656-0.467c0.234-0.161,0.471-0.332,0.706-0.518
				c0.723-0.555,1.227-1.043,1.513-1.463s0.445-0.782,0.479-1.084c0.034-0.319,0-0.551-0.101-0.693
				C91.997,11.291,91.854,11.219,91.669,11.219z"/>
			<path fill="#FFFFFF" d="M90.004,21.351c-0.416,0-0.87-0.1-1.348-0.296c-0.48-0.197-0.921-0.506-1.311-0.913
				c-0.39-0.408-0.703-0.939-0.931-1.577c-0.228-0.64-0.299-1.419-0.209-2.316c0.069-0.727,0.298-1.505,0.678-2.31
				c0.373-0.792,0.842-1.529,1.391-2.19c0.553-0.667,1.187-1.229,1.883-1.671c0.728-0.459,1.473-0.691,2.218-0.691
				c0.753,0,1.319,0.205,1.682,0.611c0.358,0.402,0.521,0.899,0.479,1.478c-0.057,0.581-0.223,1.117-0.492,1.602
				c-0.257,0.461-0.569,0.888-0.928,1.264c-0.348,0.366-0.725,0.702-1.12,1.003c-0.383,0.289-0.743,0.551-1.084,0.789
				c-0.374,0.256-0.728,0.497-1.065,0.723c-0.256,0.172-0.486,0.334-0.694,0.482c0.028,0.272,0.087,0.508,0.177,0.699
				c0.11,0.234,0.247,0.424,0.405,0.562c0.159,0.14,0.337,0.237,0.546,0.298c0.714,0.203,1.463,0.081,2.273-0.392
				c0.598-0.347,1.193-0.772,1.771-1.27c0.583-0.501,1.132-1.029,1.63-1.569c0.507-0.549,0.928-1.021,1.261-1.422
				c0.184-0.208,0.381-0.333,0.593-0.375c0.266-0.053,0.462-0.001,0.624,0.128c0.121,0.094,0.266,0.278,0.266,0.614
				c0,0.219-0.08,0.455-0.24,0.704c-0.521,0.766-1.109,1.506-1.756,2.212c-0.652,0.713-1.353,1.355-2.08,1.912
				c-0.742,0.566-1.507,1.027-2.273,1.372C91.551,21.169,90.763,21.351,90.004,21.351z M92.375,10.177
				c-0.594,0-1.196,0.191-1.794,0.57c-0.626,0.396-1.196,0.903-1.695,1.506c-0.507,0.611-0.94,1.291-1.286,2.023
				c-0.341,0.722-0.543,1.412-0.605,2.049c-0.079,0.779-0.022,1.444,0.168,1.973c0.189,0.532,0.444,0.97,0.758,1.297
				c0.312,0.327,0.662,0.571,1.037,0.728c0.382,0.157,0.735,0.235,1.047,0.235c0.646,0,1.326-0.157,2.02-0.47
				c0.711-0.319,1.423-0.749,2.117-1.277c0.689-0.528,1.354-1.141,1.976-1.818c0.622-0.679,1.188-1.39,1.681-2.113
				c0.059-0.092,0.086-0.159,0.099-0.206c-0.018,0.022-0.046,0.049-0.078,0.086c-0.334,0.399-0.762,0.884-1.281,1.445
				c-0.52,0.562-1.091,1.111-1.696,1.632c-0.613,0.529-1.25,0.983-1.89,1.353c-0.995,0.583-1.959,0.735-2.891,0.47
				c-0.322-0.096-0.606-0.251-0.848-0.464c-0.238-0.209-0.441-0.484-0.6-0.82c-0.156-0.335-0.246-0.743-0.265-1.213l-0.009-0.211
				l0.17-0.124c0.257-0.188,0.555-0.396,0.895-0.628c0.338-0.226,0.689-0.464,1.058-0.716c0.329-0.23,0.682-0.488,1.057-0.771
				c0.361-0.274,0.706-0.582,1.025-0.916c0.312-0.328,0.584-0.7,0.81-1.104c0.217-0.388,0.349-0.82,0.394-1.283
				c0.025-0.352-0.065-0.645-0.279-0.883C93.261,10.295,92.894,10.177,92.375,10.177z M88.291,16.564l0.162-0.974
				c0.123-0.731,0.311-1.394,0.558-1.968c0.245-0.57,0.514-1.061,0.797-1.461c0.298-0.418,0.597-0.732,0.911-0.961
				c0.72-0.525,1.366-0.473,1.703,0.004c0.158,0.228,0.216,0.542,0.169,0.963c-0.039,0.371-0.218,0.785-0.544,1.265
				c-0.314,0.461-0.838,0.97-1.601,1.555c-0.239,0.188-0.481,0.365-0.725,0.531c-0.23,0.155-0.444,0.309-0.641,0.455L88.291,16.564z
				 M92.158,10.925c-0.063,0-0.25,0.027-0.592,0.276c-0.296,0.214-0.594,0.534-0.893,0.952c-0.307,0.432-0.602,0.971-0.874,1.604
				c-0.131,0.304-0.247,0.633-0.347,0.984c0.208-0.146,0.415-0.301,0.622-0.465c0.838-0.643,1.424-1.207,1.744-1.676
				c0.378-0.555,0.482-0.907,0.504-1.103c0.043-0.398-0.035-0.513-0.038-0.517C92.262,10.948,92.239,10.925,92.158,10.925z"/>
		</g>
	</g>
	<g>
		<path fill="#FFFFFF" d="M102.345,24.557c-0.066-0.031-0.152-0.033-0.225-0.004c-0.034,0.017-3.892,2.092-7.98,2.092
			c-4.062,0-6.271-1.779-6.29-1.792c-0.086-0.052-0.205-0.052-0.286,0.005c-0.083,0.057-0.104,0.148-0.049,0.226
			c0.07,0.096,1.777,2.836,6.625,2.836c4.807,0,8.098-2.979,8.237-3.073c0.05-0.032,0.079-0.083,0.079-0.136l0,0
			C102.456,24.648,102.414,24.589,102.345,24.557z"/>
		<path fill="#FFFFFF" d="M94.14,28.261c-4.725,0-6.678-2.503-7.022-3.004c-0.16-0.228-0.101-0.489,0.135-0.652
			c0.237-0.162,0.634-0.174,0.89-0.015c0.268,0.202,2.338,1.713,5.998,1.713c3.608,0,7.048-1.682,7.699-2.02
			c0.332-0.145,0.535-0.112,0.742-0.02c0.211,0.103,0.334,0.266,0.334,0.446c0,0.152-0.088,0.296-0.239,0.395
			C101.504,26.071,98.379,28.261,94.14,28.261z M88.737,25.812c0.913,0.788,2.605,1.766,5.402,1.766
			c2.788,0,5.066-1.055,6.523-1.971c-1.574,0.624-4,1.38-6.523,1.38C91.673,26.987,89.844,26.352,88.737,25.812z"/>
	</g>
</g>
</svg>
