<?xml version="1.0" encoding="utf-8"?>
<!-- Generator: Adobe Illustrator 16.0.0, SVG Export Plug-In . SVG Version: 6.00 Build 0)  -->
<!DOCTYPE svg PUBLIC "-//W3C//DTD SVG 1.1//EN" "http://www.w3.org/Graphics/SVG/1.1/DTD/svg11.dtd">
<svg version="1.1" id="Layer_1" xmlns="http://www.w3.org/2000/svg" xmlns:xlink="http://www.w3.org/1999/xlink" x="0px" y="0px"
	 width="120px" height="30px" viewBox="0 0 120 30" enable-background="new 0 0 120 30" xml:space="preserve">
<g>
	<path fill="#FFFFFF" stroke="#FFFFFF" stroke-width="0.25" stroke-miterlimit="10" d="M2.698,5.848
		C1.56,6.22,2.073,4.466,2.367,3.955c0.57-0.989,2.712-0.827,3.665-0.905C8.41,2.855,16.7,2.747,19.045,2.93
		c0.646,0.05,1.29,0.101,1.931,0.176c0.666,0.078,0.263,1.014-0.127,1.382c-0.427,0.394-1.413,0.162-1.94,0.153
		c-0.509-0.008-3.759-0.069-4.268-0.069c-0.333,0-0.667,0-1,0c-0.417,0-0.388,0.382-0.521,0.754c-0.49,1.36-0.982,2.72-1.458,4.084
		c-0.983,2.829-1.974,5.676-2.714,8.563c-0.348,1.358-0.694,2.721-1.046,4.079c-0.16,0.623-0.313,1.247-0.452,1.874
		c-0.123,0.555-0.147,1.794-0.675,2.022c-0.413,0.178-2.708,0.959-2.566-0.013c0.143-0.974,0.609-1.991,0.906-2.938
		c0.798-2.534,1.587-5.071,2.388-7.607c1.125-3.565,2.196-6.944,3.332-10.506C9.171,5.105,4.339,5.443,2.698,5.848
		C2.489,5.916,2.905,5.797,2.698,5.848z"/>
	<path fill="#FFFFFF" stroke="#FFFFFF" stroke-width="0.25" stroke-miterlimit="10" d="M13.74,21.524
		c-0.119,0.188-0.25,0.31-0.394,0.37c-0.145,0.059-0.272,0.068-0.383,0.024c-0.109-0.041-0.182-0.13-0.216-0.266
		c-0.034-0.136,0-0.306,0.102-0.51c0.051-0.102,0.166-0.332,0.345-0.688c0.177-0.356,0.391-0.785,0.636-1.287
		c0.247-0.5,0.514-1.043,0.803-1.63c0.289-0.585,0.564-1.142,0.828-1.668s0.505-0.998,0.726-1.414
		c0.221-0.416,0.382-0.717,0.484-0.904c-0.187-0.169-0.314-0.293-0.382-0.369c-0.068-0.077-0.119-0.242-0.153-0.497
		c-0.034-0.22,0.017-0.509,0.153-0.866c0.136-0.356,0.314-0.7,0.535-1.031s0.467-0.615,0.738-0.854
		c0.272-0.238,0.535-0.356,0.79-0.356c0.476,0,0.81,0.153,1.006,0.458c0.194,0.306,0.31,0.62,0.344,0.942
		c0.034,0.221,0.017,0.501-0.051,0.84c-0.068,0.34-0.195,0.646-0.382,0.917c0.051,0.034,0.119,0.072,0.204,0.114
		c0.085,0.042,0.221,0.064,0.408,0.064c0.271,0,0.462-0.017,0.573-0.051c0.11-0.034,0.285-0.051,0.522-0.051
		c0.289,0,0.526,0.073,0.713,0.216c0.187,0.145,0.339,0.323,0.458,0.535c0.119,0.213,0.208,0.442,0.268,0.688
		c0.058,0.246,0.097,0.471,0.114,0.675c0.051,0.424-0.059,0.866-0.331,1.325c-0.271,0.458-0.603,0.959-0.993,1.503
		c-0.238,0.34-0.476,0.723-0.713,1.147c-0.238,0.424-0.34,0.806-0.306,1.145c0.034,0.221,0.093,0.4,0.178,0.536
		s0.323,0.204,0.713,0.204c0.289,0,0.606-0.105,0.955-0.319c0.348-0.213,0.705-0.484,1.07-0.814
		c0.365-0.332,0.727-0.696,1.083-1.097c0.357-0.398,0.688-0.789,0.994-1.172c0.306-0.381,0.564-0.726,0.776-1.031
		s0.37-0.525,0.472-0.662c0.085-0.136,0.195-0.229,0.331-0.28c0.136-0.051,0.255-0.051,0.357,0c0.102,0.051,0.165,0.153,0.191,0.306
		c0.024,0.153-0.039,0.356-0.191,0.611c-0.102,0.17-0.276,0.441-0.522,0.815c-0.247,0.373-0.544,0.79-0.893,1.249
		c-0.348,0.458-0.734,0.929-1.158,1.413c-0.425,0.483-0.871,0.927-1.338,1.324c-0.467,0.398-0.934,0.727-1.4,0.981
		c-0.468,0.255-0.914,0.381-1.338,0.381c-0.442,0-0.807-0.084-1.096-0.254c-0.289-0.17-0.521-0.378-0.701-0.625
		c-0.177-0.245-0.306-0.517-0.381-0.815c-0.077-0.296-0.106-0.571-0.089-0.826c0.017-0.204,0.072-0.421,0.165-0.65
		c0.093-0.229,0.204-0.467,0.332-0.714c0.126-0.245,0.262-0.492,0.408-0.737c0.143-0.245,0.275-0.489,0.394-0.727
		c0.289-0.492,0.523-0.913,0.7-1.261c0.179-0.348,0.268-0.641,0.268-0.879c0-0.153-0.034-0.289-0.102-0.408
		s-0.178-0.178-0.331-0.178c-0.102,0-0.175,0.004-0.216,0.013c-0.043,0.009-0.085,0.013-0.128,0.013s-0.102,0.004-0.178,0.013
		c-0.077,0.009-0.191,0.013-0.344,0.013c-0.221,0-0.408-0.034-0.561-0.102c-0.153-0.067-0.297-0.118-0.433-0.153
		c-0.068,0.119-0.221,0.374-0.458,0.764c-0.238,0.391-0.515,0.85-0.829,1.375c-0.314,0.526-0.645,1.078-0.993,1.656
		c-0.349,0.577-0.675,1.117-0.981,1.617c-0.306,0.501-0.564,0.926-0.777,1.273C13.923,21.249,13.791,21.457,13.74,21.524z"/>
	<path fill="#FFFFFF" stroke="#FFFFFF" stroke-width="0.25" stroke-miterlimit="10" d="M38.372,16.583
		c-0.238,0.34-0.543,0.761-0.917,1.261c-0.374,0.502-0.76,1.004-1.16,1.504c-0.399,0.5-0.789,0.958-1.171,1.375
		c-0.381,0.417-0.7,0.71-0.955,0.88c-0.17,0.102-0.365,0.187-0.586,0.254c-0.221,0.066-0.446,0.109-0.674,0.127
		c-0.23,0.017-0.446,0.004-0.65-0.038c-0.204-0.043-0.382-0.115-0.535-0.217c-0.153-0.119-0.28-0.289-0.382-0.51
		c-0.085-0.187-0.166-0.432-0.243-0.737c-0.076-0.306-0.105-0.688-0.089-1.147c-0.407,0.68-0.857,1.202-1.35,1.566
		c-0.492,0.366-0.959,0.634-1.401,0.804c-0.509,0.187-1.019,0.296-1.528,0.33c-0.238,0-0.493-0.081-0.764-0.241
		c-0.271-0.163-0.501-0.417-0.688-0.765c-0.187-0.347-0.306-0.798-0.357-1.351c-0.051-0.551,0.017-1.21,0.204-1.974
		c0.238-1.036,0.615-1.979,1.133-2.828s1.083-1.575,1.694-2.178c0.611-0.602,1.214-1.057,1.809-1.363s1.087-0.441,1.478-0.407
		c0.458,0.085,0.832,0.221,1.121,0.407c0.238,0.17,0.396,0.42,0.471,0.751c0.078,0.331-0.063,0.769-0.419,1.312
		c0.238-0.051,0.437-0.085,0.599-0.102c0.16-0.017,0.284-0.025,0.369-0.025c0.102,0,0.17,0.009,0.204,0.025
		c0.017,0.035,0.025,0.106,0.025,0.217c0,0.111-0.025,0.31-0.076,0.599s-0.127,0.679-0.229,1.171
		c-0.102,0.493-0.237,1.129-0.407,1.911c-0.034,0.152-0.064,0.292-0.089,0.421c-0.026,0.126-0.051,0.255-0.077,0.381
		c-0.024,0.129-0.055,0.277-0.089,0.447c-0.034,0.17-0.076,0.381-0.127,0.636c-0.017,0.153-0.021,0.319-0.012,0.496
		c0.008,0.18,0.038,0.346,0.089,0.498c0.051,0.153,0.131,0.276,0.241,0.368c0.11,0.095,0.268,0.142,0.472,0.142
		c0.17,0,0.391-0.105,0.663-0.318c0.271-0.214,0.561-0.485,0.866-0.815c0.306-0.332,0.625-0.696,0.955-1.097
		c0.332-0.397,0.642-0.784,0.93-1.158s0.547-0.704,0.777-0.993c0.229-0.289,0.395-0.501,0.496-0.637
		c0.136-0.153,0.272-0.242,0.408-0.268c0.136-0.025,0.238,0.013,0.306,0.115c0.068,0.103,0.08,0.255,0.038,0.459
		C38.698,16.073,38.576,16.312,38.372,16.583z M30.909,17.704c0.085-0.34,0.187-0.739,0.306-1.197
		c0.119-0.459,0.221-0.9,0.306-1.325s0.148-0.777,0.19-1.057s0.03-0.412-0.038-0.395c-0.085,0.017-0.178,0.042-0.28,0.077
		c-0.085,0.034-0.195,0.06-0.331,0.076c-0.136,0.017-0.272,0.042-0.408,0.077c0.136-0.271,0.217-0.497,0.242-0.675
		c0.026-0.178,0.03-0.318,0.013-0.42c-0.017-0.118-0.051-0.212-0.102-0.28c-0.187-0.153-0.514-0.029-0.981,0.369
		c-0.467,0.399-1.006,1.133-1.617,2.203c-0.255,0.442-0.458,0.913-0.611,1.413c-0.153,0.502-0.26,0.974-0.319,1.416
		c-0.06,0.441-0.072,0.826-0.038,1.158c0.034,0.33,0.102,0.547,0.204,0.649c0.187,0.187,0.399,0.277,0.637,0.268
		s0.479-0.077,0.726-0.204c0.246-0.128,0.492-0.292,0.74-0.496c0.245-0.204,0.466-0.417,0.662-0.638
		c0.194-0.221,0.356-0.425,0.483-0.611C30.82,17.925,30.892,17.789,30.909,17.704z"/>
	<path fill="#FFFFFF" stroke="#FFFFFF" stroke-width="0.25" stroke-miterlimit="10" d="M44.129,17.119
		c-0.441,0.646-0.896,1.273-1.363,1.885s-0.917,1.158-1.349,1.642c-0.434,0.484-0.833,0.875-1.198,1.172
		c-0.365,0.298-0.658,0.447-0.878,0.447c-0.526,0-0.956-0.251-1.286-0.753c-0.332-0.5-0.587-1.121-0.764-1.858
		c-0.179-0.74-0.29-1.528-0.332-2.37c-0.042-0.84-0.038-1.592,0.013-2.254c0.068-0.663,0.144-1.193,0.229-1.592
		c0.085-0.398,0.191-0.709,0.318-0.93c0.128-0.22,0.281-0.382,0.458-0.484c0.18-0.102,0.404-0.187,0.676-0.255
		c0.119-0.034,0.255-0.06,0.407-0.076c0.153-0.017,0.292-0.013,0.421,0.013c0.126,0.025,0.225,0.081,0.292,0.166
		c0.068,0.085,0.077,0.212,0.025,0.382c-0.034,0.153-0.089,0.378-0.165,0.675c-0.077,0.297-0.157,0.633-0.242,1.006
		c-0.085,0.374-0.165,0.765-0.243,1.172c-0.075,0.408-0.131,0.799-0.165,1.172c-0.051,0.646-0.051,1.209,0,1.694
		c0.051,0.483,0.127,0.891,0.229,1.223c0.102,0.33,0.212,0.581,0.331,0.751c0.119,0.17,0.212,0.255,0.28,0.255
		c0.084,0,0.241-0.115,0.472-0.344c0.228-0.229,0.491-0.53,0.789-0.903c0.297-0.374,0.611-0.808,0.943-1.3
		c0.33-0.493,0.641-1.002,0.929-1.529c-0.102-0.271-0.144-0.594-0.127-0.968c0.051-0.577,0.179-1.099,0.382-1.566
		c0.204-0.467,0.437-0.862,0.701-1.185c0.262-0.322,0.534-0.573,0.815-0.751c0.279-0.178,0.53-0.267,0.751-0.267
		c0.441,0,0.717,0.114,0.828,0.344c0.109,0.229,0.148,0.463,0.114,0.7c-0.034,0.357-0.191,0.845-0.471,1.465
		c-0.281,0.621-0.642,1.295-1.083,2.025c0.085,0.034,0.178,0.067,0.28,0.102c0.102,0.034,0.221,0.051,0.356,0.051
		c0.578,0,1.099-0.067,1.567-0.203c0.466-0.137,0.874-0.297,1.223-0.484c0.348-0.187,0.645-0.386,0.891-0.599
		c0.247-0.212,0.446-0.386,0.599-0.522c0.102-0.102,0.204-0.153,0.306-0.153c0.102,0,0.187,0.025,0.255,0.076
		s0.102,0.127,0.102,0.229c0,0.102-0.051,0.212-0.153,0.331c-0.611,0.748-1.355,1.35-2.229,1.809
		c-0.875,0.458-1.897,0.688-3.069,0.688c-0.102,0-0.229-0.008-0.382-0.024S44.299,17.17,44.129,17.119z"/>
	<path fill="#FFFFFF" stroke="#FFFFFF" stroke-width="0.25" stroke-miterlimit="10" d="M59.362,16.354
		c-0.51,0.748-1.087,1.475-1.732,2.179c-0.645,0.704-1.329,1.334-2.05,1.885c-0.723,0.551-1.461,0.998-2.217,1.338
		s-1.49,0.51-2.203,0.51c-0.374,0-0.776-0.091-1.21-0.269c-0.432-0.179-0.827-0.454-1.184-0.828
		c-0.357-0.373-0.642-0.856-0.854-1.451c-0.211-0.594-0.275-1.316-0.19-2.166c0.068-0.696,0.284-1.43,0.649-2.203
		c0.365-0.773,0.815-1.481,1.351-2.127c0.534-0.646,1.137-1.18,1.808-1.605c0.671-0.424,1.346-0.637,2.025-0.637
		c0.646,0,1.112,0.162,1.401,0.484c0.289,0.323,0.417,0.722,0.382,1.197c-0.051,0.526-0.2,1.01-0.446,1.452s-0.539,0.84-0.878,1.197
		c-0.339,0.356-0.701,0.679-1.082,0.968c-0.383,0.289-0.744,0.552-1.083,0.79c-0.374,0.255-0.73,0.497-1.07,0.725
		c-0.34,0.23-0.637,0.438-0.892,0.625c0.017,0.425,0.093,0.781,0.229,1.07c0.136,0.288,0.306,0.522,0.509,0.699
		c0.204,0.18,0.437,0.306,0.7,0.384c0.264,0.075,0.531,0.114,0.803,0.114c0.577,0,1.18-0.183,1.809-0.549
		c0.628-0.364,1.243-0.806,1.847-1.324c0.602-0.518,1.162-1.057,1.681-1.617c0.517-0.561,0.946-1.044,1.286-1.452
		c0.119-0.136,0.243-0.217,0.369-0.242c0.128-0.025,0.23-0.008,0.306,0.051c0.077,0.061,0.115,0.162,0.115,0.307
		C59.54,16.001,59.48,16.167,59.362,16.354z M52.841,12.431c-0.204,0-0.446,0.102-0.726,0.306c-0.281,0.204-0.557,0.497-0.829,0.878
		c-0.271,0.382-0.526,0.85-0.764,1.401s-0.416,1.185-0.535,1.897c0.204-0.152,0.424-0.31,0.662-0.471
		c0.238-0.162,0.476-0.336,0.713-0.522c0.73-0.561,1.24-1.053,1.528-1.478s0.45-0.79,0.484-1.095c0.034-0.322,0-0.556-0.102-0.701
		C53.172,12.503,53.027,12.431,52.841,12.431z"/>
	<path fill="#FFFFFF" stroke="#FFFFFF" stroke-width="0.25" stroke-miterlimit="10" d="M57.146,21.245
		c0.747-3.142,1.345-5.664,1.795-7.566c0.45-1.902,0.794-3.354,1.032-4.356c0.271-1.188,0.458-2.012,0.56-2.471
		c0.051-0.322,0.094-0.637,0.127-0.943c0.035-0.271,0.052-0.551,0.052-0.84c0-0.289-0.026-0.551-0.077-0.79
		c0.137-0.085,0.285-0.153,0.445-0.204c0.162-0.051,0.319-0.093,0.473-0.127c0.187-0.051,0.373-0.093,0.56-0.127
		C62.3,3.787,62.47,3.77,62.622,3.77c0.136,0,0.264,0.013,0.382,0.039c0.119,0.025,0.195,0.081,0.229,0.166
		c0.102,0.085,0.148,0.254,0.14,0.509s-0.029,0.519-0.063,0.79c-0.067,0.323-0.144,0.671-0.229,1.044
		c-0.204,0.73-0.484,1.783-0.841,3.159c-0.306,1.172-0.719,2.768-1.235,4.789c-0.519,2.022-1.168,4.569-1.949,7.642
		c-0.085,0.085-0.187,0.144-0.306,0.178c-0.119,0.034-0.229,0.051-0.331,0.051c-0.119,0-0.246-0.009-0.382-0.024
		c-0.119-0.036-0.238-0.087-0.357-0.152c-0.102-0.068-0.204-0.159-0.306-0.269C57.273,21.579,57.196,21.433,57.146,21.245z"/>
	<path fill="#FFFFFF" stroke="#FFFFFF" stroke-width="0.25" stroke-miterlimit="10" d="M64.532,15.852
		c0.441-0.067,0.794-0.029,1.058,0.115c0.263,0.145,0.378,0.411,0.344,0.802c-0.017,0.221-0.106,0.43-0.268,0.624
		c-0.162,0.196-0.357,0.37-0.585,0.522c-0.23,0.153-0.472,0.271-0.727,0.356S63.879,18.4,63.692,18.4
		c-0.34,0-0.641-0.078-0.904-0.23c-0.263-0.153-0.378-0.398-0.345-0.738c0.018-0.221,0.09-0.42,0.217-0.6
		c0.128-0.178,0.289-0.334,0.484-0.471c0.194-0.136,0.415-0.246,0.662-0.331C64.053,15.945,64.295,15.887,64.532,15.852z"/>
	<path fill="#FFFFFF" stroke="#FFFFFF" stroke-width="0.25" stroke-miterlimit="10" d="M79.716,20.481
		c0-0.356,0.038-0.765,0.115-1.223c0.076-0.459,0.174-0.931,0.293-1.415c0.118-0.483,0.237-0.955,0.356-1.414
		c0.119-0.458,0.221-0.865,0.306-1.222c0.102-0.441,0.094-0.781-0.025-1.019c-0.119-0.238-0.323-0.356-0.611-0.356
		c-0.136,0-0.404,0.119-0.803,0.356c-0.399,0.238-0.832,0.649-1.299,1.235c-0.468,0.586-0.926,1.376-1.375,2.368
		c-0.451,0.995-0.803,2.255-1.058,3.783c-0.323,0.17-0.629,0.281-0.917,0.332c-0.153,0.034-0.289,0.059-0.407,0.076
		c-0.34,0.017-0.561-0.038-0.663-0.166c-0.102-0.127-0.085-0.437,0.051-0.929c0.068-0.237,0.192-0.621,0.369-1.147
		c0.18-0.526,0.354-1.098,0.522-1.719c0.17-0.62,0.319-1.239,0.445-1.86c0.129-0.619,0.192-1.158,0.192-1.617
		c0-0.322-0.056-0.543-0.166-0.662c-0.111-0.118-0.268-0.178-0.472-0.178c-0.152,0-0.407,0.085-0.764,0.255
		s-0.756,0.501-1.197,0.993c-0.441,0.493-0.878,1.175-1.312,2.051c-0.432,0.875-0.802,2.008-1.107,3.4v-0.052
		c-0.034,0.137-0.068,0.272-0.102,0.408c-0.034,0.119-0.06,0.247-0.077,0.383c-0.017,0.136-0.042,0.263-0.076,0.381l-1.273,0.561
		c-0.085,0.034-0.19,0.061-0.319,0.077c-0.126,0.016-0.246-0.005-0.356-0.063c-0.11-0.061-0.19-0.184-0.241-0.37
		s-0.034-0.466,0.051-0.84l1.604-6.649c0.052-0.22,0.094-0.433,0.128-0.637c0.034-0.187,0.055-0.369,0.063-0.547
		c0.008-0.179-0.004-0.327-0.038-0.446c0.288-0.136,0.543-0.238,0.764-0.306c0.221-0.067,0.399-0.119,0.535-0.153
		c0.17-0.051,0.314-0.077,0.434-0.077c0.543,0,0.722,0.468,0.534,1.401c-0.067,0.272-0.17,0.671-0.306,1.197
		c0.323-0.407,0.666-0.793,1.032-1.159c0.364-0.365,0.734-0.692,1.107-0.981c0.374-0.289,0.751-0.518,1.135-0.688
		c0.381-0.169,0.759-0.255,1.133-0.255c0.288,0,0.53,0.085,0.726,0.255s0.348,0.395,0.458,0.675s0.175,0.611,0.191,0.994
		c0.018,0.382,0,0.777-0.051,1.185c0.272-0.357,0.573-0.717,0.905-1.083c0.33-0.365,0.678-0.691,1.043-0.98
		c0.365-0.289,0.743-0.526,1.134-0.713c0.391-0.187,0.781-0.28,1.172-0.28c0.459,0,0.811,0.136,1.057,0.408s0.416,0.62,0.51,1.044
		s0.119,0.883,0.077,1.375c-0.043,0.493-0.115,0.968-0.217,1.427l-0.866,3.438c-0.187,0.85-0.009,1.273,0.535,1.273
		c0.425,0,0.892-0.203,1.401-0.611c0.509-0.407,1.005-0.891,1.49-1.451c0.483-0.56,0.938-1.138,1.362-1.732s0.781-1.07,1.069-1.427
		c0.103-0.118,0.208-0.187,0.319-0.204c0.109-0.017,0.204,0.004,0.279,0.063c0.077,0.06,0.119,0.157,0.128,0.293
		c0.008,0.136-0.038,0.306-0.141,0.509c-0.339,0.596-0.755,1.252-1.248,1.975c-0.492,0.723-1.032,1.396-1.617,2.024
		c-0.586,0.629-1.21,1.155-1.872,1.58c-0.662,0.424-1.351,0.638-2.063,0.638c-0.237,0-0.472-0.026-0.7-0.078
		c-0.23-0.051-0.442-0.143-0.638-0.279c-0.195-0.138-0.352-0.318-0.471-0.549C79.775,21.13,79.716,20.838,79.716,20.481z"/>
	<path fill="#FFFFFF" stroke="#FFFFFF" stroke-width="0.25" stroke-miterlimit="10" d="M98.107,16.354
		c-0.51,0.748-1.087,1.475-1.732,2.179c-0.645,0.704-1.329,1.334-2.05,1.885c-0.723,0.551-1.461,0.998-2.217,1.338
		s-1.49,0.51-2.203,0.51c-0.374,0-0.776-0.091-1.21-0.269c-0.433-0.179-0.828-0.454-1.185-0.828
		c-0.356-0.373-0.642-0.856-0.854-1.451c-0.212-0.594-0.275-1.316-0.19-2.166c0.067-0.696,0.283-1.43,0.648-2.203
		c0.365-0.773,0.815-1.481,1.352-2.127c0.534-0.646,1.137-1.18,1.808-1.605c0.671-0.424,1.346-0.637,2.025-0.637
		c0.646,0,1.112,0.162,1.401,0.484c0.288,0.323,0.416,0.722,0.382,1.197c-0.051,0.526-0.2,1.01-0.446,1.452s-0.539,0.84-0.879,1.197
		c-0.339,0.356-0.7,0.679-1.082,0.968c-0.383,0.289-0.743,0.552-1.083,0.79c-0.373,0.255-0.729,0.497-1.069,0.725
		c-0.34,0.23-0.637,0.438-0.892,0.625c0.017,0.425,0.093,0.781,0.229,1.07c0.136,0.288,0.306,0.522,0.509,0.699
		c0.204,0.18,0.438,0.306,0.7,0.384c0.264,0.075,0.531,0.114,0.803,0.114c0.578,0,1.181-0.183,1.809-0.549
		c0.629-0.364,1.244-0.806,1.848-1.324c0.602-0.518,1.162-1.057,1.681-1.617c0.518-0.561,0.946-1.044,1.286-1.452
		c0.119-0.136,0.242-0.217,0.369-0.242c0.128-0.025,0.23-0.008,0.306,0.051c0.077,0.061,0.115,0.162,0.115,0.307
		C98.286,16.001,98.227,16.167,98.107,16.354z M91.587,12.431c-0.204,0-0.446,0.102-0.726,0.306
		c-0.281,0.204-0.557,0.497-0.829,0.878c-0.271,0.382-0.526,0.85-0.764,1.401s-0.416,1.185-0.535,1.897
		c0.204-0.152,0.425-0.31,0.662-0.471c0.238-0.162,0.476-0.336,0.714-0.522c0.729-0.561,1.239-1.053,1.528-1.478
		c0.288-0.424,0.45-0.79,0.483-1.095c0.034-0.322,0-0.556-0.102-0.701C91.918,12.503,91.773,12.431,91.587,12.431z"/>
	<path fill="#FFFFFF" stroke="#FFFFFF" stroke-width="0.25" stroke-miterlimit="10" d="M107.812,16.354
		c-0.51,0.748-1.087,1.475-1.732,2.179c-0.645,0.704-1.329,1.334-2.05,1.885c-0.723,0.551-1.461,0.998-2.217,1.338
		s-1.49,0.51-2.203,0.51c-0.373,0-0.776-0.091-1.21-0.269c-0.433-0.179-0.828-0.454-1.185-0.828
		c-0.356-0.373-0.642-0.856-0.854-1.451c-0.212-0.594-0.275-1.316-0.19-2.166c0.067-0.696,0.284-1.43,0.648-2.203
		c0.365-0.773,0.815-1.481,1.352-2.127c0.534-0.646,1.137-1.18,1.808-1.605c0.671-0.424,1.346-0.637,2.025-0.637
		c0.646,0,1.112,0.162,1.401,0.484c0.288,0.323,0.416,0.722,0.382,1.197c-0.051,0.526-0.2,1.01-0.446,1.452s-0.539,0.84-0.878,1.197
		c-0.34,0.356-0.701,0.679-1.083,0.968c-0.383,0.289-0.743,0.552-1.083,0.79c-0.373,0.255-0.729,0.497-1.069,0.725
		c-0.34,0.23-0.637,0.438-0.892,0.625c0.017,0.425,0.094,0.781,0.229,1.07c0.136,0.288,0.306,0.522,0.509,0.699
		c0.204,0.18,0.438,0.306,0.7,0.384c0.264,0.075,0.531,0.114,0.803,0.114c0.578,0,1.181-0.183,1.809-0.549
		c0.629-0.364,1.244-0.806,1.848-1.324c0.602-0.518,1.162-1.057,1.681-1.617c0.518-0.561,0.946-1.044,1.286-1.452
		c0.119-0.136,0.242-0.217,0.369-0.242c0.128-0.025,0.23-0.008,0.306,0.051c0.077,0.061,0.115,0.162,0.115,0.307
		C107.991,16.001,107.932,16.167,107.812,16.354z M101.292,12.431c-0.204,0-0.446,0.102-0.726,0.306
		c-0.281,0.204-0.557,0.497-0.828,0.878c-0.272,0.382-0.527,0.85-0.765,1.401s-0.416,1.185-0.535,1.897
		c0.204-0.152,0.425-0.31,0.662-0.471c0.238-0.162,0.476-0.336,0.714-0.522c0.73-0.561,1.239-1.053,1.528-1.478
		c0.288-0.424,0.45-0.79,0.483-1.095c0.034-0.322,0-0.556-0.102-0.701C101.623,12.503,101.479,12.431,101.292,12.431z"/>
	<path fill="#FFFFFF" stroke="#FFFFFF" stroke-width="0.25" stroke-miterlimit="10" d="M115.378,15.208
		c0.068-0.102,0.157-0.166,0.268-0.191c0.11-0.026,0.199-0.013,0.268,0.038c0.067,0.051,0.105,0.136,0.115,0.255
		c0.008,0.119-0.039,0.28-0.141,0.483c-0.34,0.646-0.786,1.343-1.337,2.09c-0.553,0.747-1.134,1.447-1.745,2.101
		c-0.611,0.654-1.206,1.194-1.783,1.619c-0.577,0.422-1.062,0.636-1.452,0.636c-0.561,0-1.027-0.111-1.401-0.331
		c-0.373-0.221-0.667-0.492-0.879-0.814c-0.212-0.323-0.36-0.676-0.445-1.059c-0.085-0.381-0.11-0.734-0.076-1.057
		c0.017-0.271,0.076-0.761,0.178-1.464c0.103-0.705,0.238-1.521,0.408-2.446s0.36-1.919,0.573-2.98
		c0.211-1.061,0.437-2.084,0.675-3.069c-0.289,0.034-0.577,0.068-0.866,0.102s-0.552,0.051-0.79,0.051
		c-0.543,0-1.057-0.063-1.541-0.191c-0.483-0.127-0.845-0.25-1.082-0.37c-0.136-0.067-0.195-0.166-0.179-0.293
		s0.068-0.254,0.153-0.382s0.19-0.238,0.318-0.331c0.127-0.093,0.241-0.14,0.344-0.14c0.322,0.034,0.671,0.063,1.044,0.089
		c0.374,0.025,0.781,0.03,1.223,0.013c0.323-0.016,0.633-0.042,0.93-0.076s0.591-0.077,0.879-0.127
		c0.221-0.815,0.438-1.524,0.649-2.127c0.212-0.603,0.403-1.022,0.573-1.261c0.051-0.085,0.166-0.157,0.344-0.217
		c0.179-0.059,0.37-0.102,0.573-0.127c0.204-0.025,0.399-0.025,0.586,0c0.187,0.026,0.323,0.089,0.408,0.191
		c0.085,0.136,0.118,0.484,0.102,1.044c-0.017,0.56-0.11,1.273-0.28,2.14c0.713,0,1.346,0.038,1.898,0.114
		c0.551,0.077,1.022,0.162,1.413,0.255c0.391,0.093,0.705,0.188,0.942,0.28c0.237,0.093,0.416,0.157,0.535,0.191
		c0.119,0.035,0.182,0.119,0.19,0.255c0.009,0.136-0.017,0.276-0.075,0.42c-0.061,0.144-0.158,0.267-0.294,0.369
		s-0.288,0.136-0.458,0.102c-0.17-0.017-0.361-0.051-0.573-0.102c-0.213-0.051-0.468-0.093-0.764-0.127
		c-0.299-0.034-0.65-0.067-1.058-0.102c-0.408-0.034-0.883-0.051-1.427-0.051c-0.102,0-0.216,0.004-0.345,0.013
		c-0.126,0.009-0.258,0.013-0.394,0.013c-0.068,0.272-0.133,0.54-0.19,0.803c-0.061,0.264-0.141,0.539-0.243,0.828
		c-0.221,0.679-0.476,1.418-0.764,2.216c-0.255,0.697-0.561,1.494-0.917,2.395c-0.357,0.9-0.756,1.859-1.197,2.878
		c-0.103,0.73-0.089,1.287,0.037,1.668c0.129,0.383,0.285,0.658,0.472,0.828c0.221,0.187,0.493,0.289,0.815,0.306
		c0.255,0.034,0.564-0.055,0.931-0.268c0.364-0.212,0.742-0.496,1.133-0.854c0.391-0.356,0.785-0.747,1.184-1.171
		c0.399-0.425,0.77-0.84,1.108-1.249c0.34-0.407,0.638-0.776,0.892-1.107C115.098,15.577,115.276,15.344,115.378,15.208z"/>
</g>
<path fill="#FFFFFF" stroke="#FFFFFF" stroke-width="0.25" stroke-miterlimit="10" d="M102.826,24.775
	c-0.072-0.035-0.164-0.037-0.238-0.003c-0.041,0.019-4.172,2.411-8.556,2.411c-4.355,0-6.722-2.051-6.745-2.066
	c-0.09-0.061-0.219-0.059-0.307,0.006s-0.109,0.172-0.053,0.259c0.075,0.111,1.905,3.271,7.104,3.271
	c5.148,0,8.68-3.435,8.827-3.544c0.054-0.037,0.085-0.096,0.085-0.156l0,0C102.944,24.882,102.9,24.813,102.826,24.775z"/>
</svg>
