<?xml version="1.0" encoding="utf-8"?>
<!-- Generator: Adobe Illustrator 16.0.0, SVG Export Plug-In . SVG Version: 6.00 Build 0)  -->
<!DOCTYPE svg PUBLIC "-//W3C//DTD SVG 1.1//EN" "http://www.w3.org/Graphics/SVG/1.1/DTD/svg11.dtd">
<svg version="1.1" id="Layer_1" xmlns="http://www.w3.org/2000/svg" xmlns:xlink="http://www.w3.org/1999/xlink" x="0px" y="0px"
	 width="62.691px" height="62.691px" viewBox="0 0 62.691 62.691" enable-background="new 0 0 62.691 62.691" xml:space="preserve">
<rect x="6.502" y="4.502" fill="none" width="50.498" height="50.498"/>
<g>
	<path opacity="0.5" fill="#FFFFFF" d="M23.629,44.732c0.406-1.043,0.27-2.211-0.508-3.01c-0.7-0.721-1.719-0.908-2.693-0.685
		c0.271-0.966,0.121-1.991-0.582-2.716c-0.702-0.717-1.719-0.904-2.694-0.683c0.271-0.964,0.12-1.989-0.582-2.715
		c-1.102-1.132-3.008-1.083-4.26,0.112c-1.246,1.195-2.044,3.359-0.933,4.63c1.11,1.271,2.384,0.499,3.359,0.274
		c-0.271,0.965-1.082,1.861-0.084,3.125c0.995,1.265,2.384,0.498,3.358,0.274c-0.271,0.964-1.047,1.95-0.085,3.124
		c0.967,1.172,2.555,0.549,3.601,0.222c-0.404,1.04-1.27,2.157-0.158,3.42c1.109,1.261,3.674,0.673,4.928-0.521
		c1.246-1.196,1.365-3.088,0.266-4.22C25.804,44.588,24.673,44.406,23.629,44.732z"/>
	<path fill="#FFFFFF" d="M46.449,36.738c-9.006-9.005-4.765-4.764-9.631-9.639c0,0-1.466-1.458-3.396-0.612
		c-1.354,0.596-3.099,1.406-4.414,2.022c-1.445,0.755-2.706,0.986-2.968,0.986c-2.788,0-5.049-2.259-5.049-5.045
		c0-1.81,0.959-3.382,2.39-4.273c2.012-1.393,6.645-3.858,6.645-3.858s-1.41-1.789-4.503-1.789c-3.092,0-9.546,4.231-9.546,4.231
		s-1.832,1.176-4.442,0.12l-5.032-1.752v17.489c0,0,1.436,0.42,2.728,0.945c0.294-0.83,0.761-1.601,1.417-2.232
		c2.142-2.041,5.69-2.062,7.64-0.057c0.586,0.606,0.996,1.339,1.207,2.139c0.786,0.243,1.494,0.672,2.068,1.262
		c0.588,0.604,0.996,1.336,1.209,2.136c0.786,0.245,1.492,0.671,2.067,1.263c0.646,0.664,1.075,1.473,1.277,2.346
		c0.82,0.24,1.563,0.68,2.16,1.295c1.17,1.201,1.587,2.834,1.332,4.41c0,0,0.726,0.812,1.172,1.263
		c0.865,0.862,2.272,0.862,3.138-0.002c0.863-0.863,0.865-2.272,0-3.138c-0.028-0.028-0.062-0.048-0.093-0.075
		c0.001-0.006,0.005-0.013,0.006-0.019c-2.914-2.914-3.065-3.127-2.777-3.414c0.289-0.289,0.716,0.346,3.978,3.609
		c0.009,0.008,0.028,0.011,0.04,0.018c0.069,0.101,0.141,0.199,0.229,0.287c0.863,0.865,2.272,0.863,3.138-0.002
		c0.862-0.863,0.864-2.27,0-3.135c-0.055-0.055-0.116-0.098-0.175-0.146c-0.038-0.044-0.062-0.086-0.106-0.131
		c-2.974-2.972-3.313-3.537-3.086-3.766c0.256-0.258,1.629,1.242,4.54,4.155c0,0.001,0.001,0.001,0.001,0.001
		c0,0.001,0.001,0.002,0.002,0.002c0.021,0.021,0.04,0.041,0.062,0.062c0.004,0,0.009,0,0.013-0.001
		c0.867,0.794,2.219,0.776,3.06-0.063c0.807-0.809,0.852-2.086,0.147-2.956c-0.013-0.061-0.035-0.114-0.075-0.154
		c-3.748-3.748-3.588-3.805-3.361-4.032c0.228-0.227,0.244-0.241,3.884,3.398c0.017,0.018,0.028,0.039,0.046,0.057
		c0.863,0.865,2.272,0.865,3.138,0c0.862-0.864,0.865-2.271,0-3.139C46.502,36.779,46.473,36.762,46.449,36.738z"/>
	<path opacity="0.5" fill="#FFFFFF" d="M49.071,20.569c-0.904,0.182-2.043-0.392-2.043-0.392s-2.412-2.081-5.126-4.367
		c-2.202-1.853-3.36-1.779-4.966-0.928c-2.64,1.402-8.982,4.963-11.993,6.787c-1.097,0.415-1.881,1.468-1.881,2.71
		c0,1.603,1.301,2.904,2.905,2.904c0.615,0,1.185-0.195,1.654-0.523c1.327-0.646,4.48-2.29,6.604-3.411
		c2.324-1.227,3.77,0.192,3.77,0.192s8.385,8.339,10.745,10.601c1.532,1.469,3.641,0.79,4.314,0.705
		C53.728,34.762,57,34.119,57,34.119V18.832C57,18.832,52.014,19.977,49.071,20.569z"/>
</g>
</svg>
