<?xml version="1.0" encoding="utf-8"?>
<!-- Generator: Adobe Illustrator 16.0.0, SVG Export Plug-In . SVG Version: 6.00 Build 0)  -->
<!DOCTYPE svg PUBLIC "-//W3C//DTD SVG 1.1//EN" "http://www.w3.org/Graphics/SVG/1.1/DTD/svg11.dtd">
<svg version="1.1" id="Layer_1" xmlns="http://www.w3.org/2000/svg" xmlns:xlink="http://www.w3.org/1999/xlink" x="0px" y="0px"
	 width="25.833px" height="25.833px" viewBox="0 0 25.833 25.833" enable-background="new 0 0 25.833 25.833" xml:space="preserve">
<path fill="#FFFFFF" d="M13.179,25.704c-1.893,0-3.329-0.345-3.329-0.345c-1.07-0.38-0.997-2.455-0.997-2.455l-0.074-9.14
	c-0.178-2.093,0.285-2.681,0.285-2.681c1.225-2.183,2.209-8.978,2.209-8.978c-0.378-0.305-0.008-0.437-0.008-0.437
	c0.282-0.259,0.067-0.341,0.067-0.341h-0.357c0.178-1.022,0.891-1.022,0.891-1.022h1.377 M13.169,25.704
	c1.893,0,3.255-0.345,3.255-0.345c1.068-0.38,0.964-2.455,0.964-2.455l0.062-9.14c0.176-2.095-0.295-2.681-0.295-2.681
	C15.93,8.9,14.939,2.105,14.939,2.105c0.378-0.305,0.006-0.437,0.006-0.437c-0.278-0.257-0.067-0.34-0.067-0.34h0.359
	c-0.181-1.023-0.895-1.023-0.895-1.023h-1.099"/>
<path fill="#FFFFFF" d="M14.24,12.916c0-4.814,2.75-8.979,6.761-11.031c-1.692-0.866-3.604-1.365-5.634-1.365
	C8.52,0.521,2.97,6.07,2.97,12.916c0,6.845,5.549,12.396,12.396,12.396c2.03,0,3.941-0.5,5.634-1.364
	C16.99,21.894,14.24,17.73,14.24,12.916z"/>
</svg>
