<?xml version="1.0" encoding="utf-8"?>
<!-- Generator: Adobe Illustrator 16.0.0, SVG Export Plug-In . SVG Version: 6.00 Build 0)  -->
<!DOCTYPE svg PUBLIC "-//W3C//DTD SVG 1.1//EN" "http://www.w3.org/Graphics/SVG/1.1/DTD/svg11.dtd">
<svg version="1.1" id="Layer_1" xmlns="http://www.w3.org/2000/svg" xmlns:xlink="http://www.w3.org/1999/xlink" x="0px" y="0px"
	 width="62.691px" height="62.691px" viewBox="0 0 62.691 62.691" enable-background="new 0 0 62.691 62.691" xml:space="preserve">
<rect x="8.762" y="8.762" fill="none" width="45.167" height="45.167"/>
<path fill="#FFFFFF" d="M20.922,17.448c-0.957,0-1.738-0.78-1.738-1.737v-5.212c0-0.958,0.781-1.737,1.738-1.737l0,0
	c0.957,0,1.737,0.78,1.737,1.737v5.212C22.66,16.668,21.88,17.448,20.922,17.448L20.922,17.448z"/>
<path fill="#FFFFFF" d="M48.718,12.236h-3.475v3.475c0,1.917-1.558,3.473-3.475,3.473c-1.916,0-3.474-1.557-3.474-3.473v-3.475
	H24.397v3.475c0,1.917-1.558,3.473-3.474,3.473c-1.917,0-3.474-1.557-3.474-3.473v-3.475h-3.476c-2.877,0-5.211,2.335-5.211,5.212
	v31.27c0,2.877,2.334,5.212,5.211,5.212h34.744c2.877,0,5.212-2.335,5.212-5.212v-31.27C53.929,14.571,51.594,12.236,48.718,12.236z
	 M50.455,48.718c0,0.958-0.779,1.737-1.737,1.737H13.973c-0.957,0-1.737-0.779-1.737-1.737V24.397h38.219V48.718z"/>
<path fill="#FFFFFF" d="M41.768,17.448c-0.957,0-1.737-0.78-1.737-1.737v-5.212c0-0.958,0.78-1.737,1.737-1.737l0,0
	c0.958,0,1.738,0.78,1.738,1.737v5.212C43.507,16.668,42.726,17.448,41.768,17.448L41.768,17.448z"/>
<rect x="20.922" y="28.27" fill="none" width="18.732" height="18.732"/>
<path opacity="0.5" fill="#FFFFFF" enable-background="new    " d="M41.155,31.03l-1.528-1.216
	c-0.423-0.334-1.052-0.286-1.398,0.109l-9.136,10.37l-3.327-3.857c-0.348-0.4-0.974-0.463-1.396-0.141l-1.532,1.185
	c-0.423,0.326-0.483,0.919-0.134,1.322l5.114,5.932c0.287,0.331,0.762,0.613,1.209,0.658c0.448,0.046,0.927-0.176,1.258-0.548
	l11-12.487C41.634,31.961,41.575,31.365,41.155,31.03z"/>
</svg>
