<?xml version="1.0" encoding="utf-8"?>
<!-- Generator: Adobe Illustrator 16.0.0, SVG Export Plug-In . SVG Version: 6.00 Build 0)  -->
<!DOCTYPE svg PUBLIC "-//W3C//DTD SVG 1.1//EN" "http://www.w3.org/Graphics/SVG/1.1/DTD/svg11.dtd">
<svg version="1.1" id="Layer_1" xmlns="http://www.w3.org/2000/svg" xmlns:xlink="http://www.w3.org/1999/xlink" x="0px" y="0px"
	 width="62.691px" height="62.691px" viewBox="0 0 62.691 62.691" enable-background="new 0 0 62.691 62.691" xml:space="preserve">
<rect x="7.3" y="6.3" fill="none" width="49.066" height="49.066"/>
<g opacity="0.5">
	<path fill="#FFFFFF" d="M38.21,12.052c0.007,0.003,0.035,0.021,0.043,0.024l0.244,0.116c0.043,0.024,0.126,0.035,0.166,0.028
		l0.11,0.173c0.06,0.074,0.06,0.074,0.599,0.251h0.02c0,0,0.01,0,0.014,0c0.019,0,0.038,0,0.051-0.003
		c0.058-0.01,0.107-0.045,0.134-0.097c0.029-0.055,0.04-0.089,0.02-0.144h0.17c0.009,0,0.017,0,0.025,0
		c0.07-0.011,0.144-0.066,0.166-0.134c0.025-0.076-0.016-0.187-0.078-0.238c-0.023-0.018-0.029-0.023-0.23-0.12
		c0.026-0.079-0.012-0.138-0.146-0.363c-0.009-0.011-0.021-0.023-0.034-0.035c-0.059-0.054-0.073-0.061-0.327-0.138
		c-0.017-0.003-0.032-0.007-0.052-0.007c-0.016,0-0.056,0-0.069,0.002l-0.251,0.052c-0.022,0.005-0.045,0.016-0.064,0.03
		l-0.091,0.048c-0.01-0.005-0.019-0.009-0.031-0.013c-0.023-0.008-0.082-0.019-0.108-0.014c-0.057,0.005-0.096,0.03-0.123,0.056
		h-0.277c-0.071,0-0.147,0.046-0.18,0.109c-0.016,0.025-0.021,0.055-0.021,0.084C37.885,11.842,37.922,11.866,38.21,12.052z"/>
	<path fill="#FFFFFF" d="M54.048,28.898l-0.271-1.006c0.018-0.004,0.031-0.011,0.048-0.018c0.066-0.037,0.103-0.112,0.093-0.188
		c-0.701-4.965-3.102-9.599-6.757-13.056c-1.092-1-2.275-1.896-3.521-2.662c-0.011-0.007-0.02-0.016-0.028-0.021l-0.124-0.071
		c-0.002-0.001-0.005-0.003-0.007-0.005c-0.148-0.091-0.296-0.183-0.444-0.264c-0.02-0.011-0.038-0.019-0.057-0.023
		c-0.029-0.016-0.062-0.037-0.096-0.055c-0.07-0.04-0.136-0.08-0.155-0.093c-0.003,0-0.009-0.004-0.012-0.005l-0.075-0.042
		c-0.006-0.002-0.013-0.007-0.021-0.009c-0.036-0.022-0.071-0.041-0.106-0.058l-0.032-0.011c-0.009-0.011-0.037-0.028-0.049-0.033
		c-0.021-0.015-0.062-0.022-0.092-0.025c-0.015-0.006-0.026-0.012-0.035-0.017l-0.125-0.064c-0.018-0.008-0.031-0.013-0.049-0.015
		c-0.015-0.005-0.026-0.007-0.042-0.007h-0.002l-0.072-0.033c-0.009-0.004-0.019-0.007-0.028-0.011
		c-0.013-0.003-0.027-0.007-0.04-0.009c-0.091-0.014-0.164,0.034-0.195,0.112c-0.032,0.077-0.01,0.168,0.058,0.22
		c0.052,0.042,0.11,0.074,0.17,0.105l0.045,0.023c0.035,0.023,0.035,0.023,0.53,0.282c0.03,0.016,0.028,0.018,0.228,0.09
		l0.002,0.002c0.018,0.003,0.03,0.007,0.046,0.007c0.017,0.008,0.026,0.013,0.041,0.022c0.016,0.011,0.056,0.028,0.077,0.033
		c0.005,0.002,0.009,0.002,0.009,0.002l0.321,0.19c0.006,0.015,0.017,0.03,0.028,0.044c0.007,0.007,0.025,0.028,0.035,0.033
		l0.087,0.071c0.165,0.128,0.364,0.284,0.521,0.427c0,0,0.007,0.004,0.01,0.005c-0.021,0.02-0.038,0.046-0.05,0.073
		c-0.028,0.074-0.009,0.154,0.048,0.206l0.078,0.069c-0.025-0.011-0.053-0.02-0.082-0.033l-0.391-0.286
		c-0.009-0.008-0.019-0.014-0.024-0.021c-0.016-0.044-0.074-0.118-0.285-0.373l0.011-0.029c0.007-0.022,0.009-0.049,0.007-0.072
		c-0.006-0.051-0.061-0.124-0.102-0.156c-0.052-0.041-0.052-0.041-0.433-0.214c-0.07-0.02-0.166-0.002-0.215,0.048
		c-0.07-0.007-0.123,0.017-0.163,0.06c-0.062,0.062-0.069,0.162-0.019,0.235c0.107,0.158,0.247,0.276,0.378,0.394
		c0.06,0.052,0.124,0.103,0.175,0.156c0.041,0.042,0.068,0.065,0.133,0.091c0.02,0.105,0.093,0.19,0.144,0.25
		c0.021,0.022,0.041,0.043,0.069,0.084c0.047,0.063,0.047,0.063,0.827,0.471c0.022,0.007,0.075,0.016,0.099,0.016
		c0.025,0,0.05-0.007,0.074-0.016l0.077-0.035c0.015,0.011,0.037,0.023,0.067,0.041c-0.035,0.039-0.054,0.088-0.05,0.143l0.005,0.07
		l-0.362-0.195c-0.079-0.041-0.173-0.023-0.232,0.044c-0.029,0.035-0.044,0.079-0.042,0.124c-0.077-0.035-0.157-0.068-0.23-0.101
		c-0.098-0.041-0.188-0.082-0.284-0.127c-0.012-0.003-0.048-0.017-0.062-0.021l-0.413-0.07c-0.026-0.003-0.082,0.003-0.114,0.015
		c-0.013,0.004-0.026,0.011-0.038,0.019l-0.233-0.071l-0.263-0.145c-0.011-0.006-0.062-0.022-0.072-0.024l-0.364-0.067
		c-0.013-0.002-0.039-0.007-0.054-0.007h-0.255c-0.034,0-0.089,0.024-0.116,0.042c-0.037,0.02-0.062,0.053-0.075,0.089l-0.043,0.108
		l-0.181,0.042c-0.042,0.01-0.094,0.054-0.122,0.09c-0.015,0.021-0.024,0.048-0.03,0.078l-0.064,0.11
		c-0.025,0.025-0.043,0.061-0.053,0.097l-0.091,0.123c-0.02,0.024-0.038,0.078-0.045,0.109c-0.004,0.024-0.004,0.046,0,0.07
		l0.021,0.111l-0.069,0.728c-0.001,0.013,0.002,0.037,0.006,0.06c-0.018,0.009-0.031,0.024-0.045,0.039l-0.407,0.502
		c-0.052,0.063-0.055,0.155-0.007,0.222l0.563,0.839l0.082,0.186c0.011,0.027,0.027,0.052,0.051,0.07
		c0.133,0.113,0.327,0.14,0.48,0.167c0.021,0,0.043,0.003,0.062,0.007l-0.037,0.313c-0.007,0.052,0.008,0.103,0.044,0.144
		l0.17,0.195c0.009,0.022,0.016,0.046,0.025,0.066l-0.293,0.099c-0.022,0.009-0.049,0.023-0.067,0.041
		c-0.007,0.007-0.032,0.033-0.04,0.042l-0.137,0.173c-0.04,0.002-0.081,0.02-0.114,0.05l-0.112,0.105
		c-0.013,0.013-0.039,0.05-0.048,0.064c-0.005,0.008-0.019,0.041-0.021,0.049l-0.057,0.133l0.026-0.174c0.002-0.01,0-0.064,0-0.074
		c-0.015-0.085-0.015-0.087-1.066-1.057l-0.013-0.24c-0.002-0.011-0.014-0.062-0.017-0.074l-0.021-0.058
		c-0.004-0.012-0.02-0.056-0.027-0.067c-0.044-0.077-0.044-0.082-0.387-0.24l-0.042-0.107c-0.054-0.097-0.124-0.14-0.245-0.147
		h-0.261c-0.181,0.016-0.181,0.016-0.335,0.8c-0.001,0.013-0.003,0.043-0.003,0.057c0,0.03,0.005,0.058,0.017,0.081
		c0.017,0.032,0.032,0.063,0.052,0.095h-0.031c-0.029-0.009-0.058-0.009-0.072-0.009c-0.017,0-0.077,0.009-0.092,0.014
		c-0.042,0.009-0.081,0.028-0.122,0.064c-0.016,0.007-0.028,0.013-0.047,0.018c-0.025,0.011-0.05,0.019-0.097,0.044
		c-0.012,0.007-0.038,0.026-0.045,0.033l-0.02,0.013c-0.105,0-0.146,0.041-0.303,0.204c-0.028,0.046-0.05,0.135-0.035,0.185
		l0.052,0.214c0.021,0.059,0.044,0.087,0.117,0.14c-0.011,0.011-0.018,0.025-0.021,0.034c-0.011,0.018-0.017,0.034-0.021,0.055
		l-0.067,0.34c-0.005,0.068,0.02,0.135,0.067,0.188c0.037,0.042,0.135,0.103,0.259,0.081l0.502-0.103
		c0.011-0.003,0.038-0.011,0.049-0.014l0.431-0.199c0.02-0.012,0.038-0.021,0.051-0.033c0.006,0.025,0.014,0.052,0.021,0.082
		c0.004,0.007,0.007,0.011,0.011,0.018l-0.065,0.049c-0.017,0.013-0.033,0.029-0.048,0.051c-0.007,0.009-0.026,0.043-0.032,0.055
		l-0.094,0.248c-0.015,0.071,0,0.14,0.042,0.199c0.046,0.063,0.122,0.104,0.228,0.113h0.165c0.005,0,0.013-0.002,0.018-0.002
		l-0.072,0.224c-0.003,0.018-0.007,0.037-0.007,0.057c0,0.011,0.002,0.048,0.004,0.061c0.015,0.071,0.032,0.154,0.052,0.226
		c0.012,0.028,0.074,0.11,0.097,0.131c0.032,0.039,0.08,0.059,0.133,0.061c0.113,0.004,0.21,0.006,0.302,0.006l0.361,0.308
		l-0.025,0.146c-0.002,0.016,0.004,0.077,0.004,0.093l0.048,0.211c-0.173-0.032-0.191-0.035-0.881-0.125
		c-0.007-0.002-0.015-0.002-0.018-0.002c-0.06-0.011-0.097-0.018-0.333-0.061c-0.025-0.005-0.051-0.005-0.075,0.002l-0.083,0.024
		c-0.056,0.014-0.102,0.054-0.124,0.108c-0.012,0.021-0.023,0.048-0.038,0.078l-0.128,0.026c-0.046,0.007-0.084,0.035-0.112,0.071
		c-0.01,0.014-0.025,0.032-0.039,0.047c-0.035,0.04-0.053,0.099-0.046,0.151c0.037,0.237,0.082,0.554,0.117,0.799l-0.145,0.696
		c0,0.016,0,0.049,0.002,0.062c0.004,0.024,0.006,0.046,0.011,0.105c0.007,0.044,0.029,0.088,0.063,0.117l0.109,0.103l0.178,0.483
		c0.048,0.115,0.188,0.181,0.316,0.158l0.332-0.066l0.148,0.167l-1.136,0.976c-0.019,0.015-0.053,0.071-0.06,0.089
		c-0.012,0.015-0.017,0.032-0.02,0.048l-0.183,0.782l-0.809,0.579l-0.37,0.151c-0.045,0.018-0.082,0.051-0.103,0.096
		c-0.152,0.343-0.403,0.756-0.624,1.12c-0.094,0.158-0.185,0.309-0.28,0.479l-0.443,0.967c-0.011,0.025-0.019,0.055-0.015,0.085
		c0.007,0.11,0.007,0.166,0.007,0.227c0,0.025,0.006,0.053,0.021,0.077c0.001,0.009,0.021,0.053,0.026,0.059l0.116,0.187
		l0.129,0.914l-0.562,1.117c-0.037,0.07-0.024,0.159,0.033,0.215l0.235,0.238c-0.002,0.109-0.004,0.225-0.008,0.339
		c-0.004,0.02-0.007,0.04-0.005,0.062l0.005,0.085c0,0.035,0.009,0.068,0.03,0.099l0.175,0.275l0.27,0.324l0.582,0.833
		c0.016,0.019,0.034,0.037,0.054,0.051l0.351,0.271l0.273,0.342c0.007,0.006,0.025,0.027,0.033,0.034l0.097,0.078
		c0.005,0.004,0.033,0.03,0.037,0.033l0.048,0.039c0.017,0.013,0.043,0.02,0.062,0.026l0.826,0.484l0.269,0.235
		c0.028,0.021,0.061,0.036,0.097,0.042c0.01,0.001,0.052,0.005,0.062,0.005c0.134,0,0.27-0.056,0.376-0.105l0.616-0.104h0.954
		c0.008,0,0.056-0.003,0.062-0.005l0.837-0.092c0.021,0.005,0.043,0.005,0.062,0l0.113-0.019c0.02-0.004,0.038-0.009,0.057-0.021
		l0.351-0.195l0.372-0.006l0.243-0.055l0.199,0.559c0.029,0.079,0.111,0.135,0.191,0.123l0.655-0.052l0.265,0.367l0.042,0.105
		l-0.509,1.077c-0.021,0.047-0.022,0.103-0.004,0.149l0.436,1.099l0.09,0.24l0.019,0.222c0,0.004,0.005,0.046,0.005,0.048
		c0.002,0.028,0.023,0.078,0.036,0.099c0.009,0.03,0.021,0.06,0.03,0.088c0.014,0.029,0.024,0.061,0.031,0.101l0.029,0.14
		l-0.102,0.343l-0.24,1.293l-0.392,0.35l-0.218,0.519l-0.114,0.045c-0.015,0.006-0.07,0.044-0.085,0.056
		c-0.025,0.021-0.043,0.047-0.059,0.075c-0.099,0.248-0.191,0.464-0.283,0.687c-0.008,0.019-0.016,0.073-0.016,0.092
		c-0.004,0.02,0,0.041,0.004,0.059l0.118,0.479c-0.207,0.765-0.473,1.634-0.682,2.222c-0.004,0.009-0.012,0.035-0.012,0.046
		l-0.027,0.146l-0.164,0.437c-0.075,0.156-0.106,0.214-0.244,0.473l-0.184,0.177c-0.11,0.125-0.199,0.298-0.277,0.451l-0.063,0.124
		c-0.026,0.045-0.029,0.101-0.013,0.151c0.021,0.051,0.059,0.091,0.109,0.109c0.115,0.045,0.208,0.045,0.29,0.045
		c0.021,0,0.042-0.004,0.062-0.011c0.071-0.026,0.152-0.071,0.226-0.11l0.051-0.031c0.307-0.057,0.706-0.138,1.052-0.212
		l0.623-0.289c0.012-0.003,0.035-0.015,0.045-0.019l0.983-0.684c0.007-0.004,0.014-0.011,0.019-0.019l0.028-0.016
		c0.115-0.08,0.374-0.258,0.444-0.319l0.496-0.53l0.21-0.205l0.144-0.097h0.103c0.025,0,0.049-0.008,0.07-0.015
		c0.104-0.044,0.188-0.123,0.257-0.192l0.586-0.598c0.013-0.013,0.024-0.026,0.033-0.046l0.351-0.663l0.06-0.092h0.037
		c0.027,0,0.054-0.009,0.078-0.02c0.101-0.047,0.183-0.136,0.244-0.207l0.122-0.1c0.009-0.008,0.012-0.013,0.02-0.02
		c0.261-0.183,0.56-0.408,0.744-0.552h0.037c0.032,0,0.065-0.008,0.098-0.024l0.002-0.002c-0.037,0.046-0.078,0.099-0.121,0.157
		c-0.013,0.011-0.044,0.055-0.053,0.068l-0.256,0.441l-0.496,0.432c-0.036,0.042-0.036,0.042-0.648,0.938
		c-0.048,0.081-0.052,0.173-0.056,0.284c-0.005,0.074,0.029,0.145,0.093,0.179l0.007,0.005c0.038,0.022,0.086,0.028,0.133,0.022
		c0.012-0.004,0.042-0.012,0.053-0.017l0.387-0.17c0.042-0.021,0.228-0.187,0.656-0.658c0.029,0.022,0.061,0.037,0.085,0.046
		c0.023,0.01,0.05,0.018,0.077,0.018h0.002c0.01,0,0.021,0,0.031-0.004c0.095-0.016,0.162-0.095,0.162-0.106
		c0.079-0.089,0.151-0.181,0.22-0.277l0.075-0.103c0.027-0.036,0.097-0.132,0.04-0.243c-0.011-0.024-0.026-0.044-0.048-0.061
		c0.126-0.146,0.266-0.308,0.413-0.483c-0.013,0.024-0.025,0.058-0.025,0.096c0,0.052,0.04,0.117,0.076,0.152
		c0.009,0.006,0.031,0.026,0.038,0.032c0.047,0.036,0.114,0.047,0.173,0.024c0.061-0.021,0.061-0.021,0.328-0.341
		c0.052-0.071,0.057-0.099,0.096-0.256c0.005-0.014,0.005-0.037,0.005-0.052c0-0.047-0.02-0.097-0.057-0.131
		c-0.055-0.062-0.148-0.068-0.223-0.031c-0.022,0.016-0.036,0.021-0.08,0.073c0.042-0.062,0.082-0.126,0.122-0.186
		c0.013-0.002,0.022-0.005,0.033-0.011c0.071-0.021,0.1-0.047,0.158-0.128l0.634-1.102c0.026-0.058,0.026-0.066,0.065-0.291
		c0.014-0.069-0.019-0.142-0.077-0.185c-0.12-0.082-0.195-0.063-0.26-0.023c-0.029,0.019-0.042,0.027-0.214,0.235
		c0.032-0.122-0.034-0.204-0.085-0.233c-0.015-0.008-0.028-0.016-0.047-0.02c-0.06-0.017-0.122-0.019-0.177-0.019h-0.057
		c0,0-0.025,0-0.043,0c0.017-0.035,0.031-0.072,0.051-0.106c0.032-0.062,0.063-0.128,0.092-0.193l0.062-0.124
		c0.011-0.024,0.019-0.053,0.02-0.079v-0.097l0.286-0.787l0.051-0.238l0.244-0.405l0.097-0.098c0.017-0.018,0.031-0.037,0.04-0.058
		c0.08-0.191,0.126-0.327,0.155-0.427l0.238-0.381l0.145-0.207c0.032-0.016,0.065-0.039,0.084-0.068l0.685-1.041l0.17-0.078
		c0.041-0.017,0.074-0.05,0.094-0.09l0.435-0.927c0.006-0.011,0.012-0.021,0.014-0.032c0.195-0.416,0.407-0.962,0.421-1.029
		l0.09-0.394c0.097-0.432,0.208-0.924,0.265-1.29c0.016-0.032,0.02-0.069,0.012-0.103l-0.033-0.207
		c-0.011-0.062-0.056-0.116-0.113-0.14c-0.058-0.025-0.126-0.02-0.178,0.019l-0.28,0.201c-0.096,0.067-0.191,0.138-0.287,0.205
		c-0.009-0.019-0.02-0.037-0.034-0.053l-0.017-0.015l0.012-0.125c0-0.004-0.002-0.026-0.007-0.041
		c0.02-0.004,0.032-0.012,0.048-0.017c0.011-0.006,0.03-0.019,0.042-0.024l0.58-0.463c0.019-0.018,0.041-0.049,0.055-0.071
		l0.396-0.708c0.014-0.018,0.021-0.044,0.021-0.068c0.01-0.079,0.015-0.138,0.017-0.188c0.037-0.022,0.063-0.054,0.078-0.095
		l0.199-0.52c0.004-0.005,0.01-0.041,0.011-0.048l0.022-0.244c0.049-0.461,0.1-0.984,0.112-1.427
		C54.054,28.929,54.052,28.912,54.048,28.898z M51.984,31.088l-0.012,0.464c-0.02-0.041-0.057-0.07-0.096-0.085
		c-0.008-0.003-0.013-0.005-0.018-0.008l-0.089-0.727l-0.007-0.051c-0.002-0.003-0.016-0.041-0.019-0.044l-0.051-0.22
		C51.8,30.653,51.899,30.884,51.984,31.088z M44.458,24.095c0.021,0.066,0.055,0.139,0.09,0.211c0.02,0.039,0.039,0.079,0.062,0.137
		c0.067,0.116,0.169,0.137,0.198,0.143l0.041-0.182l-0.037,0.182c0.021,0.005,0.045,0.005,0.063,0.001
		c0.116-0.016,0.135-0.045,0.327-0.338c0.011-0.019,0.021-0.039,0.024-0.059c0.012-0.031,0.017-0.077,0.013-0.105
		c-0.008-0.046-0.02-0.083-0.041-0.112c0.085-0.032,0.142-0.115,0.148-0.221v-0.32c0.049-0.013,0.092-0.05,0.113-0.097l0.177-0.365
		c0.025-0.052,0.025-0.112,0-0.164l-0.047-0.094h0.027c0.045,0,0.085-0.015,0.117-0.041l0.053,0.099
		c0.012,0.02,0.022,0.037,0.039,0.053c0.017,0.014,0.033,0.027,0.064,0.051c0.029,0.023,0.062,0.037,0.099,0.042l0.229,0.31
		c0.025,0.037,0.066,0.062,0.11,0.072c0.021,0.005,0.044,0.009,0.067,0.013c0.001,0.005,0.005,0.015,0.009,0.021
		c0.043,0.077,0.094,0.173,0.143,0.262l0.072,0.128c0.015,0.03,0.052,0.063,0.081,0.082l0.044,0.026
		c0.032,0.021,0.066,0.033,0.105,0.033h0.171c-0.003,0.021-0.002,0.048,0,0.074c0.011,0.042,0.011,0.042,0.126,0.254
		c0.067,0.107,0.067,0.107,0.84,0.262h0.008c0.008,0,0.014,0,0.02,0c0.221-0.022,0.213-0.186,0.191-0.506l0.063,0.06
		c0.048,0.045,0.109,0.065,0.174,0.049l0.375-0.097c0.024-0.005,0.048-0.014,0.069-0.032l0.025,0.014
		c-0.025,0.031-0.044,0.066-0.052,0.096c-0.017,0.088,0.021,0.188,0.096,0.258c0.021,0.016,0.021,0.016,0.302,0.181
		c0.014,0.007,0.03,0.015,0.045,0.018l0.02,0.006c0.04,0.009,0.106-0.002,0.146-0.017c0.029-0.014,0.056-0.033,0.073-0.056
		l0.097-0.121c0.022,0.077,0.043,0.155,0.062,0.231l-0.031,0.752l-0.488-0.152c-0.08-0.023-0.165,0.007-0.209,0.074l-0.134,0.199
		L48.13,25.14c-0.022-0.008-0.05-0.017-0.07-0.012c-0.112,0.003-0.211,0.003-0.299,0.003l-0.057-0.09
		c-0.029-0.046-0.075-0.077-0.129-0.086c-0.241-0.037-0.413-0.037-0.598-0.037c-0.022,0-0.047,0.003-0.067,0.011
		c-0.011,0.004-0.048,0.02-0.057,0.026l-0.183,0.112c-0.048,0.028-0.077,0.072-0.086,0.125l-0.062,0.333l-0.812-0.467
		c-0.01-0.004-0.061-0.022-0.068-0.026l-0.876-0.21l-0.281-0.101c0.021-0.033,0.031-0.072,0.029-0.113
		C44.506,24.419,44.482,24.25,44.458,24.095z M42.832,17.656l0.073-0.022c0.081-0.026,0.138-0.103,0.135-0.188l-0.022-0.415
		l0.069-0.16l0.098-0.438c0.004-0.019,0.004-0.033,0.004-0.051l0.332,0.143c0.037,0.016,0.078,0.019,0.119,0.008
		c0.034,0.121,0.081,0.195,0.131,0.277c0.01,0.021,0.025,0.037,0.043,0.051c0.019,0.015,0.04,0.03,0.062,0.042
		c-0.013,0.039-0.015,0.081,0,0.12l0.139,0.387c-0.143-0.039-0.334,0-0.484,0.037c-0.042,0.014-0.085,0.024-0.122,0.032
		c-0.011,0.001-0.033,0.007-0.045,0.013l-0.464,0.179c-0.019,0.007-0.033,0.017-0.047,0.028l-0.096-0.016
		C42.782,17.673,42.807,17.663,42.832,17.656z M47.543,21.231c0.024-0.029,0.044-0.063,0.053-0.103l0,0
		c0.011-0.033,0.013-0.079,0.013-0.117l0.02-0.252c0.012,0.019,0.029,0.035,0.05,0.056c0.389,0.352,0.389,0.352,0.484,0.352
		c0.037,0,0.062-0.003,0.093-0.021c0.033-0.015,0.059-0.036,0.081-0.063c0.038-0.055,0.074-0.102,0.104-0.146
		c0.015,0.015,0.03,0.029,0.052,0.044l0.611,0.424l0.259,0.199l-0.277,0.04c-0.262-0.181-0.276-0.19-0.351-0.19
		c-0.021,0-0.059,0.009-0.078,0.017c-0.125,0.044-0.269,0.097-0.411,0.153c-0.121,0.046-0.244,0.09-0.353,0.131l-0.12-0.007
		l-0.226-0.251c-0.006-0.009-0.011-0.018-0.015-0.03c0.017-0.029,0.024-0.069,0.026-0.118L47.543,21.231z M47.487,23.221
		c-0.004-0.026-0.015-0.052-0.031-0.074l-0.039-0.052c0.022,0.025,0.05,0.052,0.07,0.077c0.044,0.048,0.089,0.096,0.103,0.104
		l0.195,0.404c-0.103-0.007-0.213-0.015-0.316-0.019l-0.097-0.007l0.083-0.077c0.038-0.035,0.058-0.084,0.058-0.136
		C47.512,23.344,47.502,23.288,47.487,23.221z M40.056,23.9l0.413-0.063c0.019-0.002,0.032-0.007,0.052-0.015l0.041-0.019
		c0.019-0.007,0.032-0.018,0.046-0.03l0.355-0.309l0.082-0.09c0.051-0.061,0.103-0.119,0.161-0.171
		c0.053-0.052,0.07-0.126,0.049-0.195l-0.148-0.453l0.033-0.098l0.167-0.072h0.058c0.023,0,0.049-0.003,0.067-0.011
		c0.004,0,0.048-0.018,0.052-0.021l0.211-0.102c0.057-0.028,0.096-0.083,0.104-0.144l0.04-0.341l0.025-0.046l0.53,0.076
		c0.036,0,0.078-0.009,0.106-0.03l0.265-0.173h0.052c-0.015,0.018-0.028,0.037-0.047,0.057c-0.021,0.028-0.028,0.026-0.033,0.061
		c-0.006,0.016-0.022,0.064-0.004,0.18c0.02,0.067,0.033,0.137,0.048,0.202c0.004,0.016,0.009,0.031,0.017,0.046
		c0.017,0.033,0.035,0.059,0.057,0.079c-0.009,0.035-0.014,0.078-0.005,0.135l0.024,0.109c0.025,0.12,0.056,0.24,0.084,0.367
		c0.036,0.156,0.163,0.188,0.216,0.201c0.031,0.007,0.063,0.007,0.095,0c0.008-0.002,0.041-0.009,0.046-0.013l0.268-0.105
		c0.097-0.032,0.162-0.12,0.162-0.222c0-0.039,0-0.039-0.132-0.449c-0.027-0.077-0.082-0.133-0.164-0.163
		c0.016-0.048,0.031-0.103,0.051-0.169c0.002-0.007,0.002-0.014,0.006-0.022l0.334,0.332c0.012,0.013,0.049,0.037,0.063,0.046
		l0.698,0.387l0.068,0.05l0.063,0.155l-0.455-0.076c-0.038-0.005-0.135,0.03-0.17,0.047c-0.075,0.033-0.12,0.11-0.109,0.193
		c0.01,0.06,0.019,0.104,0.034,0.188c0.006,0.031,0.02,0.06,0.039,0.082c0.133,0.166,0.344,0.298,0.53,0.417
		c0.02,0.011,0.036,0.021,0.056,0.033c-0.003,0-0.007,0-0.012,0c-0.122,0.019-0.205,0.115-0.207,0.248
		c-0.018-0.084-0.032-0.164-0.047-0.241c-0.007-0.043-0.033-0.082-0.066-0.109l-0.155-0.121l-0.312-0.177
		c-0.042-0.024-0.087-0.035-0.134-0.035c-0.022,0-0.074,0.009-0.094,0.017l-0.283,0.096l-1.724,0.104
		c-0.013,0.001-0.05,0.009-0.063,0.014l-1.121,0.41h-0.413C40.037,23.929,40.046,23.915,40.056,23.9z M49.373,42.359l-0.387,0.234
		c-0.004,0.002-0.006,0.004-0.009,0.008l0.407-0.647c0.044,0.025,0.097,0.032,0.138,0.043c0.016,0.005,0.032,0.005,0.051,0.005
		h0.004c0.01,0,0.02,0,0.027,0c0.031-0.005,0.053-0.007,0.076-0.025C49.594,42.086,49.492,42.211,49.373,42.359z"/>
	<path fill="#FFFFFF" d="M43.276,37.339c0.042-0.144,0.016-0.303-0.07-0.419c-0.09-0.123-0.241-0.191-0.422-0.191
		c-0.007,0-0.043,0-0.052,0.002c-0.269,0.037-0.482,0.213-0.538,0.454c-0.044,0.195,0.027,0.387,0.19,0.495
		c0.087,0.06,0.189,0.091,0.3,0.091C42.958,37.77,43.208,37.588,43.276,37.339z"/>
	<path fill="#FFFFFF" d="M34.981,13.952c0.073,0,0.135-0.042,0.167-0.107l0.07-0.144c0.043-0.085,0.085-0.175,0.119-0.25
		c0.012-0.03,0.021-0.064,0.014-0.1c-0.005-0.051-0.01-0.084-0.044-0.119c0.042-0.028,0.074-0.074,0.083-0.126l0.097-0.618
		c0.004-0.032,0-0.069-0.015-0.101c0.021-0.048,0.021-0.103-0.002-0.155c-0.062-0.127-0.121-0.247-0.179-0.362
		c0.032-0.012,0.066-0.04,0.089-0.074l0.08,0.023c0.062,0.024,0.132,0.013,0.185-0.031l0.16-0.135
		c0.039-0.034,0.063-0.083,0.065-0.135c0-0.008,0-0.012,0-0.019c0-0.041-0.012-0.088-0.034-0.119
		c-0.106-0.153-0.31-0.197-0.469-0.232c-0.051-0.013-0.099-0.022-0.175-0.042c-0.007,0-0.043-0.004-0.053-0.004
		c-0.067,0-0.134,0.015-0.198,0.037c-0.009-0.035-0.031-0.07-0.061-0.097c-0.041-0.034-0.065-0.077-0.099-0.133
		c-0.041-0.074-0.097-0.162-0.188-0.235c-0.158-0.132-0.367-0.165-0.547-0.191c-0.32-0.039-0.65-0.009-0.964,0.02
		c-0.12,0.01-0.236,0.005-0.347,0.001c-0.128-0.007-0.258-0.011-0.366,0c-0.069,0.005-0.125,0.04-0.173,0.059
		c-0.049-0.019-0.149-0.048-0.226-0.03c-0.216,0.056-0.426,0.221-0.629,0.377c-0.045,0.036-0.091,0.068-0.134,0.101
		c-0.003-0.007-0.007-0.011-0.014-0.018c-0.032-0.059-0.092-0.094-0.158-0.096c-0.174-0.004-0.212-0.016-0.262-0.077
		c-0.011-0.019-0.023-0.047-0.032-0.077c-0.03-0.093-0.086-0.262-0.318-0.307c-0.007,0-0.056-0.004-0.067-0.004
		c-0.062,0-0.119,0.014-0.166,0.026c0,0-0.003,0-0.007,0c0.004-0.002,0.004-0.004,0.006-0.009c0.001-0.086,0.001-0.291-0.298-0.371
		c-0.037-0.009-0.077-0.015-0.125-0.015c-0.049,0-0.221,0.007-0.332,0.082c-0.1,0.066-0.133,0.147-0.133,0.179
		c-0.026,0.021-0.049,0.033-0.092,0.051c-0.039,0.017-0.088,0.037-0.129,0.069c-0.071,0.044-0.122,0.099-0.174,0.155
		c-0.055,0.058-0.115,0.123-0.195,0.108c-0.05-0.022-0.102-0.021-0.151,0.001c-0.151,0.066-0.21,0.157-0.226,0.242
		c-0.069,0.065-0.161,0.171-0.183,0.278c-0.032,0.019-0.074,0.044-0.133,0.081l-0.017-0.238c-0.021-0.094-0.142-0.171-0.221-0.162
		c-0.079,0.007-0.149,0.045-0.215,0.136l-0.309,0.202c-0.016,0.009-0.052,0.039-0.065,0.052l-0.311,0.346
		c-0.048,0.055-0.066,0.162-0.037,0.227c0.001,0.005,0.003,0.009,0.005,0.012c-0.002,0.004-0.005,0.007-0.009,0.007
		c-0.035-0.051-0.095-0.069-0.28-0.111c0,0,0.004,0,0.005-0.004c0.002,0,0.039-0.051,0.039-0.053l0.135-0.243
		c0.032-0.053,0.039-0.135,0.014-0.19c-0.03-0.068-0.122-0.11-0.195-0.118c-0.083,0.002-0.086,0.005-0.388,0.221
		c-0.011,0.008-0.043,0.045-0.052,0.056l-0.152,0.258c-0.018-0.012-0.04-0.019-0.062-0.022c0.021-0.037,0.039-0.085,0.037-0.121
		c-0.006-0.097-0.062-0.144-0.185-0.236c-0.037-0.022-0.084-0.034-0.133-0.022c-0.035,0.003-0.055,0.011-0.204,0.08l-0.03-0.013
		c-0.108-0.053-0.245,0.024-0.288,0.06c-0.037,0.035-0.074,0.072-0.105,0.105c-0.002-0.005-0.003-0.011-0.005-0.016
		c-0.035-0.074-0.121-0.121-0.201-0.115l-0.614,0.064c-0.009,0.003-0.045,0.014-0.054,0.017l-0.433,0.173
		c-0.101,0.045-0.123,0.081-0.231,0.253c-0.001,0.004-0.003,0.007-0.003,0.007c-0.019-0.001-0.037-0.005-0.055-0.005h-0.35
		c-0.018,0-0.034,0.004-0.051,0.007c-0.007,0.003-0.052,0.015-0.058,0.017l-0.722,0.299c-0.011,0.006-0.052,0.03-0.063,0.037
		l-0.424,0.271c-0.065,0.047-0.099,0.091-0.118,0.149c-0.018,0.072,0.014,0.155,0.07,0.203c-0.019,0.019-0.037,0.039-0.053,0.066
		l-0.046-0.125c-0.019-0.053-0.061-0.092-0.11-0.11c-0.007-0.024-0.019-0.044-0.035-0.065c-0.046-0.057-0.126-0.087-0.201-0.057
		l-0.076,0.021l-0.047-0.021c-0.025-0.015-0.099-0.019-0.129-0.019l-0.449,0.076c0.005-0.016,0.008-0.035,0.012-0.053
		c0.022-0.087,0.044-0.181,0.074-0.25c0.034-0.085-0.003-0.188-0.081-0.237c-0.035-0.021-0.076-0.031-0.117-0.027
		c-0.151,0.017-0.354,0.039-0.505,0.057c-0.005,0.002-0.052,0.016-0.055,0.016l-0.616,0.247c-1.01,0.696-1.968,1.474-2.848,2.312
		c-0.013,0.013-0.031,0.046-0.046,0.073l-0.417,0.522c-0.037,0.044-0.048,0.099-0.037,0.154l-0.141,0.137h-0.067
		c-0.097,0.003-0.097,0.003-0.54,0.456c-0.022,0.022-0.06,0.057-0.081,0.111c-0.034,0.018-0.077,0.057-0.177,0.141l-0.089,0.103
		c-0.048,0.057-0.097,0.116-0.147,0.174c-0.007,0.012-0.014,0.028-0.02,0.047c-0.02,0.011-0.039,0.025-0.054,0.044
		c-0.079,0.094-0.158,0.193-0.232,0.29c-0.043,0.06-0.05,0.139-0.015,0.204l-0.063,0.073c-0.011,0-0.064,0.01-0.092,0.026
		c-0.056,0.028-0.056,0.028-0.402,0.446c-0.004,0.005-0.035,0.048-0.039,0.055l-0.039,0.056c-0.018,0.031-0.051,0.103-0.126,0.271
		l-0.072,0.158c-0.048,0.005-0.094,0.032-0.125,0.072l-0.142,0.176c-1.613,2.426-2.716,5.101-3.282,7.973L9.893,27.24l0.036,0.97
		l-0.133,1.022c-0.002,0.025-0.002,0.051,0.005,0.077l0.107,0.37c0.105,0.371,0.225,0.79,0.343,1.119
		c0.011,0.022,0.041,0.064,0.057,0.085l0.461,0.476c0.058,0.058,0.149,0.072,0.222,0.033l0.245-0.127l0.186,0.463
		c0,0.004,0.021,0.044,0.021,0.048c0.009,0.019,0.021,0.035,0.037,0.049l0.116,0.184c0.007,0.015,0.019,0.028,0.031,0.04
		l0.214,0.228c0.011,0.008,0.081,0.06,0.091,0.066l0.313,0.185c0,0.007,0.004,0.02,0.008,0.028l0.457,1.37
		c0.004,0.01,0.029,0.05,0.037,0.058l0.107,0.13c0.052,0.062,0.144,0.084,0.218,0.052l0.052-0.022l0.181,0.211l0.002,0.007
		c0.013,0.048,0.042,0.086,0.082,0.109c0.039,0.024,0.067,0.041,0.093,0.052c0.021,0.01,0.041,0.017,0.057,0.02l0.241,0.343
		c0.049,0.07,0.144,0.098,0.227,0.064l0.258-0.113c0.04-0.014,0.072-0.047,0.089-0.084l0.097,0.151
		c0.074,0.514,0.168,1.031,0.273,1.548l-0.067,0.344l-0.103,0.345l-0.152,0.752c-0.004,0.022-0.004,0.049,0,0.07
		c0,0.004,0.012,0.048,0.012,0.055c0.048,0.174,0.098,0.352,0.151,0.521l0.016,0.053c0.009,0.028,0.024,0.057,0.046,0.077
		c0.015,0.015,0.033,0.03,0.077,0.068c0.003,0.004,0.007,0.008,0.014,0.013l-0.021,0.039c-0.02,0.037-0.028,0.081-0.018,0.125
		c0.002,0.015,0.015,0.073,0.022,0.087l0.376,0.824c0.007,0.017,0.018,0.032,0.03,0.045l0.74,0.635l0.366,0.549
		c0.006,0.011,0.037,0.048,0.045,0.057c0.016,0.019,0.031,0.037,0.031,0.037l0,0c0.562,0.733,1.372,1.71,1.52,1.814l1.023,0.549
		c0.014,0.003,0.024,0.009,0.034,0.011c0.097,0.062,0.199,0.121,0.531,0.312l0.103,0.103c0.405,0.619,0.994,1.512,1.478,2.182
		c1.077,1.361,1.365,1.726,2.738,3.095c0.007,0.01,0.03,0.027,0.039,0.035l0.37,0.261c0.054,0.057,0.108,0.107,0.159,0.157
		l0.079,0.08c0.013,0.014,0.025,0.021,0.041,0.028c0.072,0.043,0.16,0.067,0.239,0.085c0.011,0.071,0.041,0.094,0.343,0.304
		c0.053,0.039,0.111,0.062,0.167,0.062c0.002,0.004,0.004,0.006,0.007,0.008l0.107,0.161c0.022,0.03,0.048,0.053,0.081,0.066
		l0.253,0.109l0.046,0.073c0.015,0.02,0.032,0.037,0.052,0.055c0.103,0.069,0.236,0.115,0.354,0.156l0.076,0.027l0.004,0.002
		c0.015,0.057,0.056,0.119,0.097,0.15c0.024,0.02,0.052,0.042,0.067,0.051c0.034,0.021,0.064,0.04,0.116,0.051l0.192,0.099
		c0.025,0.019,0.096,0.038,0.125,0.038h0.009c0.009,0,0.021-0.003,0.031-0.003l0.074,0.043c0.007,0.006,0.04,0.022,0.048,0.026
		l0.098,0.039c0.018,0.041,0.052,0.081,0.097,0.101l0.402,0.181c0.048,0.021,0.103,0.021,0.151,0
		c0.007-0.004,0.014-0.008,0.02-0.011c0.009,0.007,0.021,0.011,0.032,0.018c0.018,0.034,0.05,0.064,0.089,0.081l0.363,0.157
		c0.016,0.01,0.034,0.013,0.055,0.015c0.032,0.002,0.06,0.006,0.08,0.006c0.011,0.005,0.023,0.012,0.037,0.012
		c0.121,0.025,0.181,0.025,0.239,0.025c0.071,0,0.134-0.041,0.164-0.1l0.033-0.006c0.065-0.009,0.119-0.05,0.146-0.108
		c0.026-0.061,0.019-0.13-0.018-0.184c0,0-0.002-0.001-0.003-0.003c0.003,0.002,0.009,0.003,0.014,0.007
		c0.026,0.008,0.092,0.008,0.118,0.004c0.026-0.006,0.052-0.018,0.074-0.032c0.041-0.029,0.072-0.078,0.081-0.131
		c0.007-0.056-0.015-0.126-0.052-0.166l-0.163-0.188c-0.037-0.04-0.042-0.044-0.247-0.139c-0.018-0.006-0.062-0.014-0.082-0.014
		c-0.028-0.006-0.058,0.01-0.083,0.02c-0.037,0.011-0.071,0.009-0.1,0.025c-0.077,0.045-0.118,0.157-0.089,0.24
		c0.009,0.033,0.03,0.071,0.061,0.131l-0.284-0.095c-0.013-0.007-0.042-0.017-0.065-0.021c-0.017-0.004-0.033-0.005-0.048-0.007
		l-0.084-0.074c-0.011-0.011-0.041-0.029-0.051-0.036l-0.229-0.131l-0.238-0.351c-0.004-0.007-0.031-0.039-0.035-0.043
		c-0.049-0.045-0.093-0.094-0.138-0.143c-0.02-0.024-0.048-0.041-0.079-0.053l-0.24-0.081c0-0.043-0.017-0.085-0.046-0.121
		c-0.183-0.214-0.348-0.413-0.517-0.623c-0.017-0.021-0.034-0.038-0.055-0.049l-0.051-0.029c0.047-0.057,0.054-0.138,0.017-0.202
		c-0.011-0.026-0.024-0.049-0.037-0.065l0.24-0.172c0.041-0.027,0.074-0.1,0.079-0.146c0.005-0.021,0.005-0.041,0.002-0.062
		l-0.062-0.394c-0.004-0.039-0.022-0.076-0.051-0.104c-0.039-0.037-0.08-0.067-0.127-0.094l0.039-0.015
		c0.037-0.012,0.09-0.06,0.113-0.093c0.015-0.017,0.026-0.037,0.03-0.06l0.089-0.298l0.042-0.052
		c0.021-0.022,0.032-0.051,0.039-0.077l0.08-0.376l0.032-0.033c0.016-0.019,0.039-0.066,0.046-0.091
		c0.007-0.021,0.011-0.047,0.009-0.067l-0.009-0.199l0.009-0.013c0.051-0.051,0.067-0.129,0.039-0.195l-0.366-0.945
		c0.424-0.235,0.945-0.518,1.348-0.727c0.052-0.029,0.088-0.08,0.096-0.138l0.044-0.29c0.066-0.435,0.14-0.932,0.207-1.325
		c0.003-0.024,0-0.065-0.004-0.09l-0.251-1.09l0.106-0.135l0.181-0.067c0.024-0.011,0.046-0.024,0.064-0.041l0.037-0.038
		c0.015-0.014,0.028-0.03,0.037-0.045l0.321-0.604c0.003-0.004,0.005-0.01,0.007-0.016l0.362-0.648
		c0.014-0.021,0.024-0.089,0.028-0.112c0.001-0.02,0-0.039-0.004-0.058l-0.201-1.021c-0.012-0.056-0.046-0.104-0.098-0.13
		c-0.532-0.27-1.241-0.623-1.814-0.899c-0.005-0.003-0.048-0.012-0.055-0.015l-1.448-0.195l-0.5-0.192l-0.563-0.413
		c-0.008-0.003-0.045-0.023-0.056-0.026l-0.125-0.05l0.017-0.034c0.026-0.051,0.013-0.139-0.013-0.191
		c-0.013-0.028-0.03-0.062-0.046-0.085c-0.035-0.047-0.105-0.094-0.154-0.077L24,36.958l-0.42-0.352l-0.526-0.751
		c-0.008-0.029-0.022-0.057-0.043-0.078l-0.056-0.063c-0.02-0.022-0.046-0.039-0.074-0.05l-0.906-0.413l-0.282-0.223
		c-0.039-0.031-0.09-0.046-0.141-0.038l-0.553,0.074l-0.678-0.639c0.039,0.005,0.052-0.002,0.077-0.011l0.048-0.019
		c0.065-0.025,0.111-0.086,0.118-0.155c0.014-0.14,0.014-0.244,0.009-0.333l0.192-0.182c0.037-0.038,0.058-0.086,0.058-0.137v-0.097
		c0-0.099-0.076-0.18-0.173-0.187c-0.24-0.017-0.446-0.022-0.641-0.024c0-0.012,0.002-0.021,0.002-0.031
		c0-0.041,0-0.045-0.077-0.264c0.072-0.046,0.116-0.123,0.116-0.212c0-0.042,0-0.045-0.111-0.35
		c-0.003-0.052-0.026-0.125-0.072-0.266c0.026-0.018,0.05-0.04,0.071-0.073c0.057-0.102,0.032-0.18-0.071-0.49
		c-0.003-0.011-0.009-0.018-0.013-0.03c0.013-0.044,0.015-0.094,0-0.139c0.092-0.041,0.155-0.125,0.162-0.236
		c0-0.041,0-0.041-0.1-0.365c-0.04-0.085-0.1-0.125-0.162-0.144c0-0.005,0-0.011,0.001-0.018c0.007-0.072-0.014-0.147-0.063-0.203
		c-0.046-0.054-0.112-0.085-0.197-0.089h-0.062c-0.019-0.086-0.08-0.172-0.197-0.206c-0.159-0.042-0.36-0.077-0.55-0.11
		c-0.094-0.016-0.182-0.033-0.238-0.042c-0.032-0.009-0.09-0.013-0.123-0.009c-0.065,0.014-0.116,0.048-0.154,0.096
		c-0.072-0.055-0.146-0.11-0.216-0.162l-0.156-0.118c-0.039-0.037-0.135-0.078-0.186-0.063c-0.081,0.008-0.147,0.049-0.194,0.126
		l-0.009-0.008l-0.547-0.308l-0.252-0.092c-0.032-0.018-0.061-0.026-0.129-0.043c-0.025-0.007-0.07-0.007-0.099-0.002
		c0,0-0.003,0.002-0.008,0.002h-0.143c-0.021,0-0.041,0.003-0.063,0.011c-0.009,0.004-0.051,0.021-0.06,0.026l-0.021,0.011
		c0-0.003,0.003-0.005,0.003-0.005c0.003-0.011,0.007-0.02,0.011-0.032c0-0.003,0.004-0.011,0.004-0.015h0.191
		c0.004,0,0.01,0,0.016,0c0.139-0.011,0.227-0.123,0.236-0.21c0.015-0.082,0.015-0.082-0.147-0.483
		c-0.048-0.106-0.173-0.17-0.278-0.14c-0.046,0.012-0.108,0.036-0.167,0.123c-0.042,0.071-0.085,0.161-0.125,0.242l-0.02,0.044
		c-0.197-0.138-0.415-0.284-0.633-0.431c-0.305-0.207-0.611-0.413-0.866-0.601c-0.026-0.018-0.103-0.037-0.136-0.039
		c-0.022-0.002-0.037-0.002-0.055,0.003l-0.533,0.113c-0.013,0.003-0.039,0.007-0.051,0.015c-0.098,0.035-0.102,0.036-0.362,0.618
		c-0.027-0.026-0.061-0.047-0.092-0.058c-0.028-0.007-0.055-0.011-0.082-0.007l-0.845,0.123c-0.074,0.009-0.132,0.062-0.154,0.134
		l-0.192,0.71l-0.282,0.051l-0.231-0.651l0.236-1.25l0.209-0.637l0.19-0.297c0.212-0.33,0.445-0.693,0.647-0.992h0.291l0.412,0.394
		c0.059,0.059,0.149,0.07,0.222,0.028c0.169-0.097,0.236-0.288,0.284-0.459l0.527,0.179l-0.063,1.499
		c-0.003,0.073,0.037,0.143,0.1,0.175c0.158,0.083,0.271,0.083,0.352,0.083c0.046,0,0.095-0.018,0.126-0.052l0.074-0.066
		c0.002,0.019,0.007,0.043,0.007,0.053l0.082,0.231c0.018,0.066,0.066,0.149,0.228,0.176h0.246c0.009,0,0.016,0,0.02-0.002
		c0.11-0.013,0.197-0.09,0.22-0.185c0.024-0.064,0.024-0.064-0.065-0.538c-0.029-0.116-0.117-0.188-0.236-0.188h-0.188l0.142-0.478
		c0.046-0.316,0.097-0.63,0.153-0.939l0.458-0.788h0.04c0.028,0,0.051-0.005,0.078-0.016l0.554-0.367
		c0.319-0.219,0.657-0.451,0.938-0.639c0.021-0.013,0.039-0.031,0.053-0.051c0.046-0.072,0.065-0.1,0.072-0.14
		c0.048-0.212,0.096-0.424,0.151-0.63c0.011,0.007,0.022,0.017,0.041,0.031c0.077,0.062,0.184,0.056,0.252-0.013l0.798-0.8
		c0.011-0.011,0.035-0.037,0.042-0.05l0.109-0.175l0.855-0.089c0.046-0.005,0.088-0.026,0.119-0.058l0.243-0.266
		c0.048-0.052,0.061-0.126,0.037-0.191l-0.019-0.051l0.166-0.232h0.173c0.018,0,0.035-0.002,0.052-0.007
		c0.011-0.001,0.065-0.02,0.074-0.023l0.616-0.296l-0.037,0.149c-0.014,0.055,0,0.116,0.037,0.162l0.05,0.063
		c0.053,0.06,0.138,0.083,0.209,0.055c0.306-0.115,0.679-0.258,1.023-0.389l0.374-0.144c0.026-0.009,0.05-0.027,0.073-0.048
		l0.057-0.065c0.012-0.014,0.02-0.031,0.028-0.048h0.214c0.004,0,0.007,0,0.007,0c0.089-0.003,0.107-0.014,0.357-0.195
		c0.019-0.018,0.053-0.068,0.062-0.092c0.048-0.111,0.013-0.184-0.062-0.266l0.059-0.258c0.007-0.052-0.019-0.147-0.054-0.19
		c-0.046-0.052-0.109-0.074-0.21-0.081c-0.106,0.007-0.112,0.007-0.668,0.591l-0.138-0.155c0.019-0.074,0.039-0.146,0.055-0.219
		h0.004c0.049,0,0.097-0.019,0.129-0.052l0.268-0.256c0.042-0.041,0.058-0.133,0.053-0.192l-0.005-0.046
		c-0.005-0.043-0.024-0.083-0.053-0.112h0.852l-0.008,0.004c-0.033,0.021-0.108,0.074-0.118,0.176
		c-0.007,0.06,0.01,0.109,0.042,0.154l-0.099,0.158c-0.028,0.054-0.035,0.155-0.009,0.209c0.055,0.108,0.092,0.121,0.641,0.215
		l0.044,0.11c0.021,0.026,0.074,0.104,0.213,0.111l0.188-0.003c0.051-0.007,0.081-0.015,0.131-0.055
		c0.039,0.029,0.09,0.048,0.153,0.058h0.166c0.012,0,0.024,0,0.034-0.003c0.083-0.015,0.083-0.015,0.454-0.272
		c0.019-0.018,0.07-0.067,0.085-0.142c0.007-0.042,0.016-0.087,0.024-0.154c0-0.102-0.035-0.158-0.116-0.206l0.046-0.078
		c0.021-0.048,0.028-0.132,0.009-0.177c-0.029-0.07-0.058-0.099-0.206-0.169l0.305-0.247c0.077-0.07,0.105-0.174,0.068-0.266
		c-0.023-0.056-0.062-0.101-0.121-0.125l0.189-0.274c0.004-0.005,0.008-0.011,0.012-0.018c0.027-0.044,0.037-0.099,0.023-0.151
		c-0.018-0.065-0.07-0.115-0.136-0.129l-0.394-0.098c0.011-0.016,0.018-0.031,0.025-0.049c0.052-0.146,0.08-0.26,0.11-0.367
		l0.015-0.05c0.019-0.077-0.011-0.16-0.081-0.204l-0.067-0.047c0.006-0.013,0.007-0.025,0.009-0.039l0.044-0.146
		c0.086-0.557,0.147-0.839,0.151-0.86c0.016-0.079-0.015-0.156-0.084-0.199l-0.041-0.027c0.077-0.026,0.099-0.052,0.26-0.335
		c0.017,0.007,0.032,0.013,0.047,0.018c0.015,0.002,0.065,0.014,0.081,0.014h0.118c0.113-0.004,0.117-0.005,0.584-0.491
		c0.035,0.02,0.08,0.036,0.111,0.036c0.094,0,0.123-0.019,0.883-0.424c0.013-0.003,0.032-0.019,0.04-0.026
		c0.037-0.032,0.082-0.097,0.087-0.144c0.014-0.092,0.016-0.099-0.4-0.609l0.201-0.234c0.071-0.128,0.071-0.128-0.333-0.712
		c-0.011-0.018-0.042-0.044-0.059-0.055c-0.016-0.012-0.03-0.021-0.043-0.026l-0.026-0.009c0.052-0.036,0.115-0.105,0.249-0.251
		c0.005-0.005,0.014-0.013,0.018-0.02c0.03,0.011,0.058,0.011,0.087,0.003c0.186-0.041,0.369-0.162,0.531-0.269
		c0.044-0.03,0.088-0.06,0.129-0.083h0.07c0.015,0,0.048-0.005,0.058-0.01l0.303-0.07c0.044-0.022,0.084-0.056,0.125-0.115
		l0.004,0.042c0.001,0.032,0.011,0.061,0.025,0.087c0,0,0,0.003,0.003,0.005c-0.015,0.042-0.025,0.081-0.037,0.123
		c-0.007,0.019-0.007,0.06-0.007,0.077c0,0.019,0.005,0.039,0.009,0.056l0.047,0.126c0.015,0.042,0.074,0.098,0.11,0.12
		c0.025,0.015,0.055,0.024,0.088,0.024c0.176,0.003,0.343,0.005,0.474,0l0.173,0.033l0.042,0.108l-0.147,0.396
		c-0.011,0.029-0.007,0.092-0.003,0.121c0.005,0.041,0.023,0.08,0.051,0.109c-0.018,0.048-0.016,0.102,0.006,0.153
		c0.017,0.037,0.042,0.081,0.065,0.121l0.033,0.062c0.011,0.021,0.024,0.039,0.041,0.054l-0.27,0.001
		c-0.097,0.011-0.097,0.011-0.505,0.355c-0.022,0.021-0.054,0.074-0.066,0.101c-0.005,0.011-0.011,0.027-0.013,0.044l-0.069,0.375
		c-0.005,0.031-0.002,0.062,0.007,0.094c0.015,0.04,0.037,0.074,0.062,0.103c0,0.007-0.002,0.015-0.004,0.023l-0.082,0.028
		c-0.017,0.007-0.035,0.016-0.051,0.026c-0.023,0.018-0.083,0.057-0.107,0.135c-0.009,0.034-0.011,0.069-0.004,0.102l0.214,0.836
		c0.009,0.042,0.034,0.074,0.062,0.1c0.037,0.03,0.066,0.048,0.094,0.062c0.024,0.009,0.05,0.016,0.074,0.016h0.199l0.121,0.211
		c0.014,0.021,0.03,0.041,0.052,0.057c0.061,0.046,0.145,0.076,0.234,0.055l0.387-0.088c0.023-0.005,0.044-0.016,0.062-0.028
		l0.282-0.272c0.263-0.276,0.561-0.587,0.801-0.844l0.583-0.206c0.012-0.002,0.058-0.03,0.066-0.036l0.083-0.058l0.097,0.029
		c0.015,0.004,0.049,0.01,0.062,0.01c0.098,0,0.127-0.021,0.444-0.259l0.575-0.321l0.309,0.059c0.017,0.003,0.034,0.003,0.053,0
		l0.092-0.015c0.361-0.133,0.845-0.311,1.206-0.454C34.953,13.97,34.969,13.961,34.981,13.952z M24.308,14.928
		c0.016,0.023,0.039,0.046,0.069,0.063l-0.26-0.137c-0.013-0.007-0.028-0.013-0.044-0.016l0.06-0.35
		c0.004-0.022,0.004-0.043,0-0.065l0.603-0.118c-0.03,0.018-0.071,0.044-0.122,0.076c-0.003,0.003-0.033,0.032-0.037,0.035
		l-0.247,0.279C24.308,14.729,24.252,14.823,24.308,14.928z M22.357,15.073c0.023-0.01,0.048-0.023,0.066-0.041
		c0.012-0.015,0.03-0.03,0.042-0.04c0.035-0.026,0.058-0.063,0.067-0.106h0.311l-0.007,0.057c-0.015,0.093,0.041,0.183,0.129,0.208
		c0.122,0.037,0.209,0.037,0.276,0.037c0.022,0,0.073-0.013,0.092-0.021l0.131-0.046l0.03,0.009
		c-0.131,0.129-0.245,0.282-0.355,0.425c-0.072,0.098-0.144,0.192-0.214,0.27l-0.387,0.142c-0.041,0.014-0.074,0.042-0.096,0.077
		l-0.438,0.702l-0.887,0.308c-0.048,0.011-0.088,0.041-0.112,0.081c-0.018,0.031-0.036,0.059-0.053,0.086
		c-0.002-0.004-0.003-0.007-0.005-0.011l-0.25-0.391l-0.14-0.479c-0.014-0.056-0.055-0.099-0.11-0.12l0.019-0.014
		c0.04-0.032,0.063-0.08,0.067-0.131l0.005-0.089l0.607-0.44c0.204-0.079,0.444-0.173,0.68-0.268L22.357,15.073z M24.915,14.238
		l0.571-0.521c0.074,0.025,0.158,0.055,0.256,0.086l-0.259,0.223c-0.008,0.007-0.032,0.029-0.041,0.039l-0.131,0.171L24.915,14.238z
		 M25.039,15.865c0.071-0.071,0.074-0.185,0.007-0.258l-0.435-0.483c-0.011-0.007-0.03-0.022-0.041-0.03l-0.167-0.088
		c0.113,0.055,0.16,0.03,0.57-0.036l0.062,0.039l-0.039,0.048c-0.121,0.192-0.07,0.227,0.553,0.649
		c0.003,0.001,0.008,0.003,0.012,0.007l-0.62,0.335l-0.047-0.041L25.039,15.865z M13.214,29.019c0.016,0.015,0.039,0.026,0.06,0.037
		l-0.037,0.084c-0.021,0.072-0.018,0.097,0.016,0.307c0.029,0.089,0.066,0.121,0.137,0.163c0.046,0.025,0.102,0.029,0.152,0.013
		c0.013-0.005,0.045-0.017,0.061-0.024c-0.022,0.218,0.061,0.431,0.219,0.545c0.076,0.053,0.162,0.083,0.251,0.083
		c0.255,0,0.473-0.225,0.51-0.521c0.011-0.099,0-0.199-0.03-0.288l0.095,0.087c-0.002,0.039-0.002,0.076-0.005,0.112l-0.005,0.162
		c0.012,0.099,0.065,0.173,0.155,0.216c0.015,0.007,0.032,0.013,0.049,0.014c0.018,0.004,0.055,0.005,0.076,0.004l0.579-0.085
		c-0.001,0.016-0.001,0.027,0,0.039c0,0.011,0.002,0.02,0.002,0.03c-0.046,0.059-0.054,0.128-0.054,0.194
		c-0.031-0.034-0.068-0.056-0.104-0.065c-0.132-0.039-0.295-0.067-0.45-0.094l-0.199-0.036l-0.002,0.009
		c-0.032-0.007-0.064-0.012-0.083-0.012c-0.089,0.019-0.107,0.042-0.281,0.251c-0.044,0.063-0.06,0.136-0.048,0.209
		c0.011,0.071,0.048,0.13,0.089,0.155c0.093,0.079,0.218,0.151,0.328,0.212l0.121,0.07c0.019,0.013,0.04,0.02,0.062,0.023
		l0.027,0.005c0.02,0.004,0.042,0.004,0.064,0.003c0.015-0.005,0.055-0.014,0.069-0.019l0.316-0.123
		c0.014-0.005,0.033-0.017,0.046-0.028c0.067-0.048,0.103-0.115,0.111-0.218c0-0.036,0-0.075,0-0.127
		c0.084,0.062,0.289,0.093,0.824,0.181c0.013,0.002,0.049,0.009,0.062,0.009c0.007,0,0.044,0.003,0.051,0.003h0.008
		c0.011,0,0.011-0.001,0.021-0.003h0.9c0.008,0,0.015-0.002,0.022-0.003c0.042,0.07,0.117,0.115,0.216,0.119h0.577
		c0.003,0,0.007,0,0.011,0c0.069-0.003,0.125-0.032,0.166-0.069c0.011,0.01,0.022,0.019,0.03,0.028
		c0.037,0.032,0.07,0.062,0.116,0.105c0.05,0.037,0.105,0.058,0.164,0.058c0.011,0,0.077-0.011,0.089-0.015l0.113-0.037v0.048
		c0.012,0.098,0.067,0.174,0.161,0.214c-0.024,0.039-0.035,0.084-0.039,0.136c0,0.121,0.001,0.242,0.003,0.363l0.003,0.127
		c0.018,0.139,0.11,0.192,0.171,0.216l0.004,0.123c0,0,0,0.004,0.001,0.008c-0.023,0.036-0.039,0.085-0.041,0.139
		c0,0.1,0.005,0.202,0.012,0.311c0.007,0.07,0.042,0.136,0.097,0.18c0.002,0.059,0.005,0.118,0.009,0.177
		c0,0.006,0,0.01,0.002,0.015c-0.029,0.045-0.05,0.102-0.054,0.17c0.007,0.08,0.011,0.159,0.015,0.239l0.004,0.059
		c0.013,0.104,0.092,0.212,0.228,0.229c0,0.004,0,0.008,0.002,0.014l0.008,0.129l-0.371-0.329c-0.013-0.013-0.03-0.024-0.048-0.031
		l-0.692-0.149c-0.026-0.003-0.048-0.003-0.074,0l-0.055,0.011c-0.019,0.004-0.034,0.011-0.051,0.02l-0.125,0.065l-0.717-0.182
		l-0.438-0.528c-0.016-0.021-0.037-0.037-0.063-0.048l-0.052-0.025c-0.07-0.038-0.154-0.022-0.213,0.032l-0.134,0.129l-0.103-0.055
		c-0.051-0.03-0.106-0.058-0.151-0.083c-0.057-0.032-0.125-0.032-0.182,0l-0.851,0.474c-0.017,0.009-0.061,0.05-0.072,0.064
		c-0.015,0.017-0.026,0.032-0.035,0.053l-0.27,0.623l-0.25-0.171c-0.021-0.017-0.051-0.027-0.081-0.031l-0.052-0.006
		c-0.007,0-0.015-0.002-0.022-0.002c-0.011,0-0.02,0.002-0.029,0.002l-0.522,0.086l-0.178-0.324l0.052-1.594
		c0.003-0.039,0.007-0.086,0.007-0.123c0-0.034-0.011-0.067-0.026-0.094c-0.09-0.153-0.234-0.323-0.35-0.463l-0.052-0.063
		c-0.011-0.015-0.064-0.051-0.081-0.062c-0.019-0.011-0.041-0.022-0.063-0.025l-0.437-0.09c0-0.003,0-0.007,0-0.007l0.002-0.385
		L13.214,29.019z"/>
	<path fill="#FFFFFF" d="M35.501,15.732h0.017c0.064,0,0.064,0,1.061-0.435c0.112-0.079,0.11-0.179,0.095-0.25
		c-0.014-0.054-0.031-0.105-0.058-0.183c-0.012-0.025-0.024-0.05-0.045-0.071c-0.007-0.005-0.038-0.039-0.045-0.044l-0.401-0.313
		c-0.036-0.025-0.11-0.052-0.205-0.055l-0.738,0.133l-0.166-0.102c-0.025-0.014-0.09-0.028-0.114-0.028
		c-0.06,0-0.126,0.015-0.518,0.093c-0.083,0.026-0.141,0.085-0.159,0.158c-0.02,0.067,0.014,0.174,0.063,0.222
		c0.068,0.063,0.155,0.118,0.236,0.166l-0.063,0.146c-0.016,0.048-0.015,0.128,0.009,0.172c0.054,0.106,0.054,0.106,0.977,0.381
		C35.465,15.729,35.482,15.732,35.501,15.732z"/>
</g>
<circle fill="none" stroke="#FFFFFF" stroke-width="1.8516" stroke-linecap="round" stroke-linejoin="bevel" stroke-miterlimit="10" cx="31.833" cy="30.833" r="22.712"/>
</svg>
